<?plantuml 1.2026.2?><svg xmlns="http://www.w3.org/2000/svg" xmlns:xlink="http://www.w3.org/1999/xlink" contentStyleType="text/css" data-diagram-type="CLASS" height="638.8051px" preserveAspectRatio="none" style="width:501px;height:638px;background:#FFFFFF;" version="1.1" viewBox="0 0 501 638" width="501.6605px" zoomAndPan="magnify"><defs/><g><!--class NPC--><g class="entity" data-qualified-name="NPC" data-source-line="3" id="ent0002"><rect fill="#F1F1F1" height="121.0263" rx="4.5113" ry="4.5113" style="stroke:#181818;stroke-width:0.9023;" width="104.7603" x="258.1025" y="12.6317"/><ellipse cx="285.1705" cy="41.5043" fill="#A9DCDF" rx="19.8499" ry="19.8499" style="stroke:#181818;stroke-width:1.8045;"/><path d="M276.458,51.8804 L282.4919,29.8876 L288.1593,29.8876 L294.2496,51.8804 L289.7946,51.8804 L288.4694,46.4386 L282.1254,46.4386 L280.772,51.8804 L276.458,51.8804 Z M284.4092,37.3595 L283.0558,42.7731 L287.5954,42.7731 L286.2984,37.3595 Q286.0446,36.3162 285.819,35.3294 Q285.5935,34.3143 285.3397,33.2711 Q285.1423,34.3143 284.8886,35.3294 Q284.6348,36.3162 284.4092,37.3595 Z " fill="#000000"/><text fill="#000000" font-family="sans-serif" font-size="25.2635" font-style="italic" lengthAdjust="spacing" textLength="47.0152" x="310.434" y="51.3065">NPC</text><line style="stroke:#181818;stroke-width:0.9023;" x1="259.907" x2="361.0582" y1="70.3768" y2="70.3768"/><text fill="#000000" font-family="sans-serif" font-size="25.2635" lengthAdjust="spacing" textLength="66.7206" x="268.9297" y="104.6015">int xp</text><line style="stroke:#181818;stroke-width:0.9023;" x1="259.907" x2="361.0582" y1="119.2218" y2="119.2218"/></g><!--class MobileNPC--><g class="entity" data-qualified-name="MobileNPC" data-source-line="7" id="ent0003"><rect fill="#F1F1F1" height="121.0263" rx="4.5113" ry="4.5113" style="stroke:#181818;stroke-width:0.9023;" width="180.4999" x="108.3623" y="276.22"/><ellipse cx="135.4303" cy="305.0926" fill="#A9DCDF" rx="19.8499" ry="19.8499" style="stroke:#181818;stroke-width:1.8045;"/><path d="M126.7178,315.4686 L132.7517,293.4759 L138.419,293.4759 L144.5093,315.4686 L140.0544,315.4686 L138.7292,310.0269 L132.3851,310.0269 L131.0317,315.4686 L126.7178,315.4686 Z M134.669,300.9478 L133.3156,306.3614 L137.8551,306.3614 L136.5581,300.9478 Q136.3044,299.9045 136.0788,298.9177 Q135.8532,297.9026 135.5995,296.8594 Q135.4021,297.9026 135.1483,298.9177 Q134.8946,299.9045 134.669,300.9478 Z " fill="#000000"/><text fill="#000000" font-family="sans-serif" font-size="25.2635" font-style="italic" lengthAdjust="spacing" textLength="122.7548" x="160.6938" y="314.8948">MobileNPC</text><line style="stroke:#181818;stroke-width:0.9023;" x1="110.1668" x2="287.0576" y1="333.9651" y2="333.9651"/><text fill="#000000" font-family="sans-serif" font-size="25.2635" lengthAdjust="spacing" textLength="115.9084" x="119.1895" y="368.1898">int moves</text><line style="stroke:#181818;stroke-width:0.9023;" x1="110.1668" x2="287.0576" y1="382.8101" y2="382.8101"/></g><!--class Flower--><g class="entity" data-qualified-name="Flower" data-source-line="11" id="ent0004"><rect fill="#F1F1F1" height="86.6176" rx="4.5113" ry="4.5113" style="stroke:#181818;stroke-width:0.9023;" width="137.1984" x="351.9744" y="293.4353"/><ellipse cx="379.0424" cy="322.3078" fill="#ADD1B2" rx="19.8499" ry="19.8499" style="stroke:#181818;stroke-width:1.8045;"/><path d="M378.0837,334.7986 Q374.9258,334.7986 372.8675,333.4734 Q370.8374,332.12 369.8223,329.6951 Q368.8355,327.2421 368.8355,323.9996 Q368.8355,320.3341 370.0197,317.7119 Q371.2039,315.0897 373.516,313.6799 Q375.8281,312.2701 379.2116,312.2701 Q380.8187,312.2701 382.0311,312.6085 Q383.2436,312.9186 384.4842,313.5389 L383.018,317.1762 Q381.8902,316.6123 380.9033,316.3867 Q379.9447,316.1611 379.0706,316.1611 Q376.9559,316.1611 375.6871,317.1198 Q374.4183,318.0785 373.8825,319.7984 Q373.3468,321.5183 373.3468,323.8022 Q373.3468,327.4395 374.6438,329.1876 Q375.9408,330.9076 378.8168,330.9076 Q379.8883,330.9076 381.0161,330.6256 Q382.1439,330.3436 383.6383,329.6669 L383.6383,333.6708 Q382.3131,334.2347 380.8751,334.5166 Q379.4653,334.7986 378.0837,334.7986 Z " fill="#000000"/><text fill="#000000" font-family="sans-serif" font-size="25.2635" lengthAdjust="spacing" textLength="79.4533" x="404.3059" y="332.11">Flower</text><line style="stroke:#181818;stroke-width:0.9023;" x1="353.7789" x2="487.3683" y1="351.1804" y2="351.1804"/><line style="stroke:#181818;stroke-width:0.9023;" x1="353.7789" x2="487.3683" y1="365.6167" y2="365.6167"/></g><!--class Unicorn--><g class="entity" data-qualified-name="Unicorn" data-source-line="14" id="ent0005"><rect fill="#F1F1F1" height="86.6176" rx="4.5113" ry="4.5113" style="stroke:#181818;stroke-width:0.9023;" width="151.8006" x="12.6317" y="539.8083"/><ellipse cx="39.6997" cy="568.6809" fill="#ADD1B2" rx="19.8499" ry="19.8499" style="stroke:#181818;stroke-width:1.8045;"/><path d="M38.7411,581.1716 Q35.5832,581.1716 33.5249,579.8464 Q31.4948,578.493 30.4797,576.0682 Q29.4929,573.6151 29.4929,570.3726 Q29.4929,566.7072 30.6771,564.0849 Q31.8613,561.4627 34.1734,560.0529 Q36.4854,558.6432 39.8689,558.6432 Q41.4761,558.6432 42.6885,558.9815 Q43.9009,559.2917 45.1415,559.912 L43.6754,563.5492 Q42.5475,562.9853 41.5607,562.7597 Q40.602,562.5342 39.7279,562.5342 Q37.6133,562.5342 36.3444,563.4928 Q35.0756,564.4515 34.5399,566.1714 Q34.0042,567.8914 34.0042,570.1753 Q34.0042,573.8125 35.3012,575.5607 Q36.5982,577.2806 39.4742,577.2806 Q40.5456,577.2806 41.6735,576.9986 Q42.8013,576.7167 44.2957,576.04 L44.2957,580.0438 Q42.9705,580.6077 41.5325,580.8897 Q40.1227,581.1716 38.7411,581.1716 Z " fill="#000000"/><text fill="#000000" font-family="sans-serif" font-size="25.2635" lengthAdjust="spacing" textLength="94.0556" x="64.9632" y="578.4831">Unicorn</text><line style="stroke:#181818;stroke-width:0.9023;" x1="14.4363" x2="162.6279" y1="597.5534" y2="597.5534"/><line style="stroke:#181818;stroke-width:0.9023;" x1="14.4363" x2="162.6279" y1="611.9897" y2="611.9897"/></g><!--class Butterfly--><g class="entity" data-qualified-name="Butterfly" data-source-line="17" id="ent0006"><rect fill="#F1F1F1" height="86.6176" rx="4.5113" ry="4.5113" style="stroke:#181818;stroke-width:0.9023;" width="160.7944" x="228.2916" y="539.8083"/><ellipse cx="255.3596" cy="568.6809" fill="#ADD1B2" rx="19.8499" ry="19.8499" style="stroke:#181818;stroke-width:1.8045;"/><path d="M254.401,581.1716 Q251.243,581.1716 249.1847,579.8464 Q247.1546,578.493 246.1396,576.0682 Q245.1527,573.6151 245.1527,570.3726 Q245.1527,566.7072 246.3369,564.0849 Q247.5212,561.4627 249.8332,560.0529 Q252.1453,558.6432 255.5288,558.6432 Q257.136,558.6432 258.3484,558.9815 Q259.5608,559.2917 260.8014,559.912 L259.3352,563.5492 Q258.2074,562.9853 257.2205,562.7597 Q256.2619,562.5342 255.3878,562.5342 Q253.2731,562.5342 252.0043,563.4928 Q250.7355,564.4515 250.1998,566.1714 Q249.6641,567.8914 249.6641,570.1753 Q249.6641,573.8125 250.9611,575.5607 Q252.2581,577.2806 255.1341,577.2806 Q256.2055,577.2806 257.3333,576.9986 Q258.4612,576.7167 259.9555,576.04 L259.9555,580.0438 Q258.6303,580.6077 257.1923,580.8897 Q255.7826,581.1716 254.401,581.1716 Z " fill="#000000"/><text fill="#000000" font-family="sans-serif" font-size="25.2635" lengthAdjust="spacing" textLength="103.0493" x="280.6231" y="578.4831">Butterfly</text><line style="stroke:#181818;stroke-width:0.9023;" x1="230.0961" x2="387.2815" y1="597.5534" y2="597.5534"/><line style="stroke:#181818;stroke-width:0.9023;" x1="230.0961" x2="387.2815" y1="611.9897" y2="611.9897"/></g><!--reverse link NPC to MobileNPC--><g class="link" data-entity-1="ent0002" data-entity-2="ent0003" data-link-type="extension" data-source-line="20" id="lnk7"><path codeLine="20" d="M265.3403,163.2742 C256.8229,180.4173 262.2529,170.1676 254.5476,187.7979 C242.0782,216.3456 229.627,248.6468 219.6479,275.6967" fill="none" id="NPC-backto-MobileNPC" style="stroke:#181818;stroke-width:1.8045;"/><polygon fill="none" points="279.793,134.1852,255.644,158.4567,275.0367,168.0918,279.793,134.1852" style="stroke:#181818;stroke-width:1.8045;"/><text fill="#000000" font-family="sans-serif" font-size="23.4589" lengthAdjust="spacing" textLength="87.5019" x="256.3521" y="214.68">extends</text></g><!--reverse link NPC to Flower--><g class="link" data-entity-1="ent0002" data-entity-2="ent0004" data-link-type="extension" data-source-line="21" id="lnk8"><path codeLine="21" d="M348.1277,163.8614 C368.6814,212.4034 384.6364,250.0723 402.8803,293.1646" fill="none" id="NPC-backto-Flower" style="stroke:#181818;stroke-width:1.8045;"/><polygon fill="none" points="335.4629,133.9506,338.1575,168.083,358.098,159.6398,335.4629,133.9506" style="stroke:#181818;stroke-width:1.8045;"/><text fill="#000000" font-family="sans-serif" font-size="23.4589" lengthAdjust="spacing" textLength="87.5019" x="373.9175" y="214.68">extends</text></g><!--reverse link MobileNPC to Unicorn--><g class="link" data-entity-1="ent0003" data-entity-2="ent0005" data-link-type="extension" data-source-line="22" id="lnk9"><path codeLine="22" d="M152.2101,426.6964 C143.422,443.8395 148.8921,433.7739 140.8619,451.3862 C127.6347,480.367 114.2451,513.7148 104.3201,539.3572" fill="none" id="MobileNPC-backto-Unicorn" style="stroke:#181818;stroke-width:1.8045;"/><polygon fill="none" points="167.0277,397.7915,142.5751,421.7572,161.8451,431.6356,167.0277,397.7915" style="stroke:#181818;stroke-width:1.8045;"/><text fill="#000000" font-family="sans-serif" font-size="23.4589" lengthAdjust="spacing" textLength="87.5019" x="142.6665" y="478.2683">extends</text></g><!--reverse link MobileNPC to Butterfly--><g class="link" data-entity-1="ent0003" data-entity-2="ent0006" data-link-type="extension" data-source-line="23" id="lnk10"><path codeLine="23" d="M238.9496,427.516 C258.8175,471.3121 271.9252,500.2349 289.6277,539.285" fill="none" id="MobileNPC-backto-Butterfly" style="stroke:#181818;stroke-width:1.8045;"/><polygon fill="none" points="225.5307,397.9359,229.0896,431.989,248.8097,423.0431,225.5307,397.9359" style="stroke:#181818;stroke-width:1.8045;"/><text fill="#000000" font-family="sans-serif" font-size="23.4589" lengthAdjust="spacing" textLength="87.5019" x="265.3026" y="478.2683">extends</text></g><?plantuml-src AqvEp4bLC3KmK2ZFJ2d9uE9AJ2ekAKfCBb58paaiBbRm2t1MgEPIoCmhKQWeuAh5aFVDJyhCIKLIbPjVbbeCKWYHTyl9Bqyj0ah2HKBpCfFpY_AGXPnAIqfIYz9oAY628DDiQdHraGotKaYjA4dDIob6I49DHiWWL8FbOVRWL82m5Q440000?></g></svg>