<?plantuml 1.2026.2?><svg xmlns="http://www.w3.org/2000/svg" xmlns:xlink="http://www.w3.org/1999/xlink" contentStyleType="text/css" data-diagram-type="CLASS" height="412.9401px" preserveAspectRatio="none" style="width:651px;height:412px;background:#FFFFFF;" version="1.1" viewBox="0 0 651 412" width="651.2447px" zoomAndPan="magnify"><defs/><g><!--class NPC--><g class="entity" data-qualified-name="NPC" data-source-line="3" id="ent0002"><rect fill="#F1F1F1" height="156.6914" rx="4.5478" ry="4.5478" style="stroke:#181818;stroke-width:0.9096;" width="138.6747" x="241.8519" y="12.7338"/><ellipse cx="284.0192" cy="41.8397" fill="#A9DCDF" rx="20.0103" ry="20.0103" style="stroke:#181818;stroke-width:1.8191;"/><path d="M275.2362,52.2997 L281.3189,30.1292 L287.0321,30.1292 L293.1716,52.2997 L288.6807,52.2997 L287.3447,46.8139 L280.9494,46.8139 L279.5851,52.2997 L275.2362,52.2997 Z M283.2517,37.6615 L281.8874,43.1188 L286.4636,43.1188 L285.1561,37.6615 Q284.9003,36.6098 284.6729,35.6149 Q284.4455,34.5917 284.1897,33.54 Q283.9907,34.5917 283.7349,35.6149 Q283.4791,36.6098 283.2517,37.6615 Z " fill="#000000"/><text fill="#000000" font-family="sans-serif" font-size="25.4677" font-style="italic" lengthAdjust="spacing" textLength="47.3952" x="312.7936" y="51.7212">NPC</text><line style="stroke:#181818;stroke-width:0.9096;" x1="243.671" x2="378.7075" y1="70.9457" y2="70.9457"/><text fill="#000000" font-family="sans-serif" font-size="25.4677" lengthAdjust="spacing" textLength="67.2599" x="252.7666" y="105.447">int xp</text><text fill="#000000" font-family="sans-serif" font-size="25.4677" lengthAdjust="spacing" textLength="116.8452" x="252.7666" y="140.1338">int moves</text><line style="stroke:#181818;stroke-width:0.9096;" x1="243.671" x2="378.7075" y1="154.8722" y2="154.8722"/></g><!--class Unicorn--><g class="entity" data-qualified-name="Unicorn" data-source-line="8" id="ent0003"><rect fill="#F1F1F1" height="87.3177" rx="4.5478" ry="4.5478" style="stroke:#181818;stroke-width:0.9096;" width="153.0276" x="12.7338" y="313.1432"/><ellipse cx="40.0206" cy="342.2491" fill="#ADD1B2" rx="20.0103" ry="20.0103" style="stroke:#181818;stroke-width:1.8191;"/><path d="M39.0542,354.8408 Q35.8708,354.8408 33.7958,353.5049 Q31.7493,352.1406 30.7261,349.6961 Q29.7312,347.2233 29.7312,343.9545 Q29.7312,340.2595 30.925,337.6161 Q32.1188,334.9726 34.4496,333.5515 Q36.7803,332.1303 40.1912,332.1303 Q41.8113,332.1303 43.0335,332.4714 Q44.2558,332.784 45.5064,333.4093 L44.0284,337.076 Q42.8914,336.5075 41.8966,336.2801 Q40.9302,336.0527 40.0491,336.0527 Q37.9173,336.0527 36.6382,337.0192 Q35.3591,337.9856 34.8191,339.7194 Q34.279,341.4533 34.279,343.7556 Q34.279,347.4222 35.5865,349.1845 Q36.894,350.9184 39.7932,350.9184 Q40.8733,350.9184 42.0103,350.6341 Q43.1472,350.3499 44.6537,349.6677 L44.6537,353.7039 Q43.3178,354.2724 41.8682,354.5566 Q40.447,354.8408 39.0542,354.8408 Z " fill="#000000"/><text fill="#000000" font-family="sans-serif" font-size="25.4677" lengthAdjust="spacing" textLength="94.8158" x="65.4883" y="352.1305">Unicorn</text><line style="stroke:#181818;stroke-width:0.9096;" x1="14.553" x2="163.9423" y1="371.355" y2="371.355"/><line style="stroke:#181818;stroke-width:0.9096;" x1="14.553" x2="163.9423" y1="385.908" y2="385.908"/></g><!--class Butterfly--><g class="entity" data-qualified-name="Butterfly" data-source-line="11" id="ent0004"><rect fill="#F1F1F1" height="87.3177" rx="4.5478" ry="4.5478" style="stroke:#181818;stroke-width:0.9096;" width="162.094" x="230.1368" y="313.1432"/><ellipse cx="257.4236" cy="342.2491" fill="#ADD1B2" rx="20.0103" ry="20.0103" style="stroke:#181818;stroke-width:1.8191;"/><path d="M256.4572,354.8408 Q253.2737,354.8408 251.1988,353.5049 Q249.1523,352.1406 248.129,349.6961 Q247.1342,347.2233 247.1342,343.9545 Q247.1342,340.2595 248.328,337.6161 Q249.5218,334.9726 251.8525,333.5515 Q254.1833,332.1303 257.5941,332.1303 Q259.2143,332.1303 260.4365,332.4714 Q261.6587,332.784 262.9094,333.4093 L261.4313,337.076 Q260.2944,336.5075 259.2996,336.2801 Q258.3331,336.0527 257.452,336.0527 Q255.3202,336.0527 254.0412,337.0192 Q252.7621,337.9856 252.222,339.7194 Q251.682,341.4533 251.682,343.7556 Q251.682,347.4222 252.9895,349.1845 Q254.297,350.9184 257.1962,350.9184 Q258.2763,350.9184 259.4132,350.6341 Q260.5502,350.3499 262.0567,349.6677 L262.0567,353.7039 Q260.7207,354.2724 259.2711,354.5566 Q257.8499,354.8408 256.4572,354.8408 Z " fill="#000000"/><text fill="#000000" font-family="sans-serif" font-size="25.4677" lengthAdjust="spacing" textLength="103.8822" x="282.8913" y="352.1305">Butterfly</text><line style="stroke:#181818;stroke-width:0.9096;" x1="231.9559" x2="390.4117" y1="371.355" y2="371.355"/><line style="stroke:#181818;stroke-width:0.9096;" x1="231.9559" x2="390.4117" y1="385.908" y2="385.908"/></g><!--class Caterpillar--><g class="entity" data-qualified-name="Caterpillar" data-source-line="14" id="ent0005"><rect fill="#F1F1F1" height="87.3177" rx="4.5478" ry="4.5478" style="stroke:#181818;stroke-width:0.9096;" width="182.8501" x="456.2351" y="313.1432"/><ellipse cx="483.5219" cy="342.2491" fill="#ADD1B2" rx="20.0103" ry="20.0103" style="stroke:#181818;stroke-width:1.8191;"/><path d="M482.5555,354.8408 Q479.3721,354.8408 477.2971,353.5049 Q475.2506,352.1406 474.2274,349.6961 Q473.2325,347.2233 473.2325,343.9545 Q473.2325,340.2595 474.4263,337.6161 Q475.6201,334.9726 477.9509,333.5515 Q480.2816,332.1303 483.6925,332.1303 Q485.3126,332.1303 486.5348,332.4714 Q487.7571,332.784 489.0077,333.4093 L487.5297,337.076 Q486.3927,336.5075 485.3979,336.2801 Q484.4315,336.0527 483.5504,336.0527 Q481.4186,336.0527 480.1395,337.0192 Q478.8604,337.9856 478.3204,339.7194 Q477.7803,341.4533 477.7803,343.7556 Q477.7803,347.4222 479.0878,349.1845 Q480.3953,350.9184 483.2945,350.9184 Q484.3746,350.9184 485.5116,350.6341 Q486.6485,350.3499 488.155,349.6677 L488.155,353.7039 Q486.8191,354.2724 485.3695,354.5566 Q483.9483,354.8408 482.5555,354.8408 Z " fill="#000000"/><text fill="#000000" font-family="sans-serif" font-size="25.4677" lengthAdjust="spacing" textLength="124.6383" x="508.9896" y="352.1305">Caterpillar</text><line style="stroke:#181818;stroke-width:0.9096;" x1="458.0543" x2="637.2662" y1="371.355" y2="371.355"/><line style="stroke:#181818;stroke-width:0.9096;" x1="458.0543" x2="637.2662" y1="385.908" y2="385.908"/></g><!--reverse link NPC to Unicorn--><g class="link" data-entity-1="ent0002" data-entity-2="ent0003" data-link-type="extension" data-source-line="17" id="lnk6"><path codeLine="17" d="M224.6359,195.1097 C185.2519,241.6064 157.754,274.0685 125.2464,312.4701" fill="none" id="NPC-backto-Unicorn" style="stroke:#181818;stroke-width:1.8191;"/><polygon fill="none" points="245.7994,170.124,216.3073,188.0552,232.9644,202.1642,245.7994,170.124" style="stroke:#181818;stroke-width:1.8191;"/><text fill="#000000" font-family="sans-serif" font-size="23.6486" lengthAdjust="spacing" textLength="88.2092" x="195.3734" y="251.1058">extends</text></g><!--reverse link NPC to Butterfly--><g class="link" data-entity-1="ent0002" data-entity-2="ent0004" data-link-type="extension" data-source-line="18" id="lnk7"><path codeLine="18" d="M311.1786,202.8682 C311.1786,249.3649 311.1786,274.0685 311.1786,312.4701" fill="none" id="NPC-backto-Butterfly" style="stroke:#181818;stroke-width:1.8191;"/><polygon fill="none" points="311.1786,170.124,300.2638,202.8682,322.0933,202.8682,311.1786,170.124" style="stroke:#181818;stroke-width:1.8191;"/><text fill="#000000" font-family="sans-serif" font-size="23.6486" lengthAdjust="spacing" textLength="88.2092" x="312.9977" y="251.1058">extends</text></g><!--reverse link NPC to Caterpillar--><g class="link" data-entity-1="ent0002" data-entity-2="ent0005" data-link-type="extension" data-source-line="19" id="lnk8"><path codeLine="19" d="M402.7902,194.4313 C444.7573,240.928 474.6628,274.0685 509.317,312.4701" fill="none" id="NPC-backto-Caterpillar" style="stroke:#181818;stroke-width:1.8191;"/><polygon fill="none" points="380.8508,170.124,394.6877,201.7445,410.8926,187.1182,380.8508,170.124" style="stroke:#181818;stroke-width:1.8191;"/><text fill="#000000" font-family="sans-serif" font-size="23.6486" lengthAdjust="spacing" textLength="88.2092" x="459.3822" y="251.1058">extends</text></g><?plantuml-src AqvEp4bLC3CrK2ZFJ2d9uE9AJ2ekAKfCBb58paaiBbRm2t1MgEPIoCmhKQWeWD2v-MMfnLorN5mG5Q5vcSdvHNb0LN0XfzAIajIYj9nAP47dHA1OGMPEJc8HH1Xaj4sDhYxS12k5r8gIrBoKOeGKmYGiaiWc8gG1?></g></svg>