<?plantuml 1.2026.2?><svg xmlns="http://www.w3.org/2000/svg" xmlns:xlink="http://www.w3.org/1999/xlink" contentStyleType="text/css" data-diagram-type="CLASS" height="1067.4534px" preserveAspectRatio="none" style="width:1150px;height:1067px;background:#FFFFFF;" version="1.1" viewBox="0 0 1150 1067" width="1150.2239px" zoomAndPan="magnify"><defs/><g><!--class Expression--><g class="entity" data-qualified-name="Expression" data-source-line="3" id="ent0002"><rect fill="#F1F1F1" height="177.3452" rx="3.5677" ry="3.5677" style="stroke:#181818;stroke-width:0.7135;" width="343.7016" x="595.091" y="9.9895"/><ellipse cx="713.5565" cy="32.8228" fill="#B4A7E5" rx="15.6978" ry="15.6978" style="stroke:#181818;stroke-width:1.4271;"/><path d="M707.8928,42.0988 L707.8928,39.6683 L711.2598,39.2892 L711.2598,27.5827 L707.8928,27.2037 L707.8928,24.7732 L718.083,24.7732 L718.083,27.2037 L714.6268,27.5827 L714.6268,39.2892 L718.083,39.6683 L718.083,42.0988 L707.8928,42.0988 Z " fill="#000000"/><text fill="#000000" font-family="sans-serif" font-size="19.9791" font-style="italic" lengthAdjust="spacing" textLength="94.6405" x="742.8116" y="40.5746">Expression</text><line style="stroke:#181818;stroke-width:0.7135;" x1="596.5181" x2="937.3656" y1="55.656" y2="55.656"/><line style="stroke:#181818;stroke-width:0.7135;" x1="596.5181" x2="937.3656" y1="67.0726" y2="67.0726"/><text fill="#000000" font-family="sans-serif" font-size="19.9791" lengthAdjust="spacing" textLength="121.712" x="603.6535" y="94.1385">int evaluate()</text><text fill="#000000" font-family="sans-serif" font-size="19.9791" lengthAdjust="spacing" textLength="178.9119" x="603.6535" y="121.3498">int countProducts()</text><text fill="#000000" font-family="sans-serif" font-size="19.9791" lengthAdjust="spacing" textLength="245.2822" x="603.6535" y="148.5612">int countDistinctIntegers()</text><text fill="#000000" font-family="sans-serif" font-size="19.9791" lengthAdjust="spacing" textLength="326.5767" x="603.6535" y="175.7726">int countSubExpressions(int result)</text></g><!--class Operation--><g class="entity" data-qualified-name="Operation" data-source-line="10" id="ent0003"><rect fill="#F1F1F1" height="122.9224" rx="3.5677" ry="3.5677" style="stroke:#181818;stroke-width:0.7135;" width="319.0875" x="416.1641" y="327.2858"/><ellipse cx="524.72" cy="350.119" fill="#B4A7E5" rx="15.6978" ry="15.6978" style="stroke:#181818;stroke-width:1.4271;"/><path d="M519.0563,359.395 L519.0563,356.9645 L522.4233,356.5855 L522.4233,344.879 L519.0563,344.4999 L519.0563,342.0694 L529.2465,342.0694 L529.2465,344.4999 L525.7903,344.879 L525.7903,356.5855 L529.2465,356.9645 L529.2465,359.395 L519.0563,359.395 Z " fill="#000000"/><text fill="#000000" font-family="sans-serif" font-size="19.9791" font-style="italic" lengthAdjust="spacing" textLength="89.8456" x="553.9751" y="357.8709">Operation</text><line style="stroke:#181818;stroke-width:0.7135;" x1="417.5912" x2="733.8246" y1="372.9522" y2="372.9522"/><line style="stroke:#181818;stroke-width:0.7135;" x1="417.5912" x2="733.8246" y1="384.3689" y2="384.3689"/><text fill="#000000" font-family="sans-serif" font-size="19.9791" lengthAdjust="spacing" textLength="273.972" x="424.7266" y="411.4347">Expression getFirstOperand()</text><text fill="#000000" font-family="sans-serif" font-size="19.9791" lengthAdjust="spacing" textLength="301.9626" x="424.7266" y="438.6461">Expression getSecondOperand()</text></g><!--class AbstractOperation--><g class="entity" data-qualified-name="AbstractOperation" data-source-line="15" id="ent0004"><rect fill="#F1F1F1" height="204.5566" rx="3.5677" ry="3.5677" style="stroke:#181818;stroke-width:0.7135;" width="319.0875" x="416.1641" y="590.1676"/><ellipse cx="488.1984" cy="613.0008" fill="#A9DCDF" rx="15.6978" ry="15.6978" style="stroke:#181818;stroke-width:1.4271;"/><path d="M481.3083,621.2065 L486.0801,603.814 L490.562,603.814 L495.3784,621.2065 L491.8553,621.2065 L490.8073,616.903 L485.7902,616.903 L484.7199,621.2065 L481.3083,621.2065 Z M487.5964,609.723 L486.5261,614.0042 L490.1161,614.0042 L489.0903,609.723 Q488.8897,608.898 488.7113,608.1175 Q488.5329,607.3148 488.3322,606.4898 Q488.1761,607.3148 487.9754,608.1175 Q487.7748,608.898 487.5964,609.723 Z " fill="#000000"/><text fill="#000000" font-family="sans-serif" font-size="19.9791" font-style="italic" lengthAdjust="spacing" textLength="162.8888" x="517.4535" y="620.7527">AbstractOperation</text><line style="stroke:#181818;stroke-width:0.7135;" x1="417.5912" x2="733.8246" y1="635.8341" y2="635.8341"/><text fill="#000000" font-family="sans-serif" font-size="19.9791" lengthAdjust="spacing" textLength="227.7207" x="424.7266" y="662.8999">Expression firstOperand</text><text fill="#000000" font-family="sans-serif" font-size="19.9791" lengthAdjust="spacing" textLength="257.809" x="424.7266" y="690.1113">Expression secondOperand</text><line style="stroke:#181818;stroke-width:0.7135;" x1="417.5912" x2="733.8246" y1="701.6734" y2="701.6734"/><text fill="#000000" font-family="sans-serif" font-size="19.9791" lengthAdjust="spacing" textLength="273.972" x="424.7266" y="728.7393">Expression getFirstOperand()</text><text fill="#000000" font-family="sans-serif" font-size="19.9791" lengthAdjust="spacing" textLength="301.9626" x="424.7266" y="755.9507">Expression getSecondOperand()</text><text fill="#000000" font-family="sans-serif" font-size="19.9791" lengthAdjust="spacing" textLength="245.2822" x="424.7266" y="783.162">int countDistinctIntegers()</text></g><!--class Sum--><g class="entity" data-qualified-name="Sum" data-source-line="24" id="ent0005"><rect fill="#F1F1F1" height="150.1338" rx="3.5677" ry="3.5677" style="stroke:#181818;stroke-width:0.7135;" width="343.7016" x="9.9895" y="907.4638"/><ellipse cx="154.7773" cy="930.2971" fill="#ADD1B2" rx="15.6978" ry="15.6978" style="stroke:#181818;stroke-width:1.4271;"/><path d="M154.0192,940.1751 Q151.5218,940.1751 149.8941,939.1271 Q148.2886,938.0568 147.4859,936.1392 Q146.7054,934.1992 146.7054,931.635 Q146.7054,928.7362 147.642,926.6625 Q148.5785,924.5888 150.4069,923.4739 Q152.2354,922.359 154.9111,922.359 Q156.1821,922.359 157.1409,922.6265 Q158.0998,922.8718 159.0809,923.3624 L157.9214,926.2388 Q157.0295,925.7929 156.249,925.6145 Q155.4909,925.4361 154.7996,925.4361 Q153.1273,925.4361 152.1239,926.1942 Q151.1205,926.9524 150.6968,928.3125 Q150.2731,929.6727 150.2731,931.4789 Q150.2731,934.3553 151.2988,935.7378 Q152.3246,937.098 154.599,937.098 Q155.4463,937.098 156.3382,936.875 Q157.2301,936.652 158.4119,936.1169 L158.4119,939.2832 Q157.3639,939.7292 156.2267,939.9521 Q155.1118,940.1751 154.0192,940.1751 Z " fill="#000000"/><text fill="#000000" font-family="sans-serif" font-size="19.9791" lengthAdjust="spacing" textLength="41.9959" x="184.0324" y="938.0489">Sum</text><line style="stroke:#181818;stroke-width:0.7135;" x1="11.4166" x2="352.2641" y1="953.1303" y2="953.1303"/><line style="stroke:#181818;stroke-width:0.7135;" x1="11.4166" x2="352.2641" y1="964.5469" y2="964.5469"/><text fill="#000000" font-family="sans-serif" font-size="19.9791" lengthAdjust="spacing" textLength="121.712" x="18.552" y="991.6128">int evaluate()</text><text fill="#000000" font-family="sans-serif" font-size="19.9791" lengthAdjust="spacing" textLength="178.9119" x="18.552" y="1018.8241">int countProducts()</text><text fill="#000000" font-family="sans-serif" font-size="19.9791" lengthAdjust="spacing" textLength="326.5767" x="18.552" y="1046.0355">int countSubExpressions(int result)</text></g><!--class Product--><g class="entity" data-qualified-name="Product" data-source-line="30" id="ent0006"><rect fill="#F1F1F1" height="150.1338" rx="3.5677" ry="3.5677" style="stroke:#181818;stroke-width:0.7135;" width="343.7016" x="403.8627" y="907.4638"/><ellipse cx="532.7173" cy="930.2971" fill="#ADD1B2" rx="15.6978" ry="15.6978" style="stroke:#181818;stroke-width:1.4271;"/><path d="M531.9591,940.1751 Q529.4618,940.1751 527.834,939.1271 Q526.2285,938.0568 525.4258,936.1392 Q524.6454,934.1992 524.6454,931.635 Q524.6454,928.7362 525.5819,926.6625 Q526.5184,924.5888 528.3469,923.4739 Q530.1753,922.359 532.8511,922.359 Q534.1221,922.359 535.0809,922.6265 Q536.0397,922.8718 537.0208,923.3624 L535.8613,926.2388 Q534.9694,925.7929 534.1889,925.6145 Q533.4308,925.4361 532.7396,925.4361 Q531.0672,925.4361 530.0638,926.1942 Q529.0604,926.9524 528.6367,928.3125 Q528.2131,929.6727 528.2131,931.4789 Q528.2131,934.3553 529.2388,935.7378 Q530.2645,937.098 532.5389,937.098 Q533.3862,937.098 534.2781,936.875 Q535.1701,936.652 536.3519,936.1169 L536.3519,939.2832 Q535.3039,939.7292 534.1667,939.9521 Q533.0517,940.1751 531.9591,940.1751 Z " fill="#000000"/><text fill="#000000" font-family="sans-serif" font-size="19.9791" lengthAdjust="spacing" textLength="73.8624" x="561.9723" y="938.0489">Product</text><line style="stroke:#181818;stroke-width:0.7135;" x1="405.2898" x2="746.1373" y1="953.1303" y2="953.1303"/><line style="stroke:#181818;stroke-width:0.7135;" x1="405.2898" x2="746.1373" y1="964.5469" y2="964.5469"/><text fill="#000000" font-family="sans-serif" font-size="19.9791" lengthAdjust="spacing" textLength="121.712" x="412.4252" y="991.6128">int evaluate()</text><text fill="#000000" font-family="sans-serif" font-size="19.9791" lengthAdjust="spacing" textLength="178.9119" x="412.4252" y="1018.8241">int countProducts()</text><text fill="#000000" font-family="sans-serif" font-size="19.9791" lengthAdjust="spacing" textLength="326.5767" x="412.4252" y="1046.0355">int countSubExpressions(int result)</text></g><!--class Division--><g class="entity" data-qualified-name="Division" data-source-line="36" id="ent0007"><rect fill="#F1F1F1" height="150.1338" rx="3.5677" ry="3.5677" style="stroke:#181818;stroke-width:0.7135;" width="343.7016" x="797.7359" y="907.4638"/><ellipse cx="926.4207" cy="930.2971" fill="#ADD1B2" rx="15.6978" ry="15.6978" style="stroke:#181818;stroke-width:1.4271;"/><path d="M925.6625,940.1751 Q923.1651,940.1751 921.5374,939.1271 Q919.9319,938.0568 919.1292,936.1392 Q918.3488,934.1992 918.3488,931.635 Q918.3488,928.7362 919.2853,926.6625 Q920.2218,924.5888 922.0502,923.4739 Q923.8787,922.359 926.5544,922.359 Q927.8254,922.359 928.7843,922.6265 Q929.7431,922.8718 930.7242,923.3624 L929.5647,926.2388 Q928.6728,925.7929 927.8923,925.6145 Q927.1342,925.4361 926.443,925.4361 Q924.7706,925.4361 923.7672,926.1942 Q922.7638,926.9524 922.3401,928.3125 Q921.9164,929.6727 921.9164,931.4789 Q921.9164,934.3553 922.9422,935.7378 Q923.9679,937.098 926.2423,937.098 Q927.0896,937.098 927.9815,936.875 Q928.8734,936.652 930.0552,936.1169 L930.0552,939.2832 Q929.0072,939.7292 927.87,939.9521 Q926.7551,940.1751 925.6625,940.1751 Z " fill="#000000"/><text fill="#000000" font-family="sans-serif" font-size="19.9791" lengthAdjust="spacing" textLength="74.202" x="955.6757" y="938.0489">Division</text><line style="stroke:#181818;stroke-width:0.7135;" x1="799.163" x2="1140.0105" y1="953.1303" y2="953.1303"/><line style="stroke:#181818;stroke-width:0.7135;" x1="799.163" x2="1140.0105" y1="964.5469" y2="964.5469"/><text fill="#000000" font-family="sans-serif" font-size="19.9791" lengthAdjust="spacing" textLength="121.712" x="806.2984" y="991.6128">int evaluate()</text><text fill="#000000" font-family="sans-serif" font-size="19.9791" lengthAdjust="spacing" textLength="178.9119" x="806.2984" y="1018.8241">int countProducts()</text><text fill="#000000" font-family="sans-serif" font-size="19.9791" lengthAdjust="spacing" textLength="326.5767" x="806.2984" y="1046.0355">int countSubExpressions(int result)</text></g><!--class IntegerValue--><g class="entity" data-qualified-name="IntegerValue" data-source-line="42" id="ent0008"><rect fill="#F1F1F1" height="177.3452" rx="3.5677" ry="3.5677" style="stroke:#181818;stroke-width:0.7135;" width="343.7016" x="784.8922" y="300.0857"/><ellipse cx="889.9918" cy="322.9189" fill="#ADD1B2" rx="15.6978" ry="15.6978" style="stroke:#181818;stroke-width:1.4271;"/><path d="M889.2336,332.797 Q886.7362,332.797 885.1085,331.749 Q883.503,330.6787 882.7003,328.761 Q881.9199,326.8211 881.9199,324.2568 Q881.9199,321.3581 882.8564,319.2843 Q883.7929,317.2106 885.6213,316.0957 Q887.4498,314.9808 890.1255,314.9808 Q891.3965,314.9808 892.3554,315.2484 Q893.3142,315.4937 894.2953,315.9842 L893.1358,318.8607 Q892.2439,318.4147 891.4634,318.2363 Q890.7053,318.058 890.0141,318.058 Q888.3417,318.058 887.3383,318.8161 Q886.3349,319.5742 885.9112,320.9344 Q885.4875,322.2946 885.4875,324.1007 Q885.4875,326.9772 886.5133,328.3597 Q887.539,329.7198 889.8134,329.7198 Q890.6607,329.7198 891.5526,329.4969 Q892.4445,329.2739 893.6263,328.7387 L893.6263,331.9051 Q892.5783,332.351 891.4411,332.574 Q890.3262,332.797 889.2336,332.797 Z " fill="#000000"/><text fill="#000000" font-family="sans-serif" font-size="19.9791" lengthAdjust="spacing" textLength="121.3724" x="919.2468" y="330.6708">IntegerValue</text><line style="stroke:#181818;stroke-width:0.7135;" x1="786.3193" x2="1127.1668" y1="345.7522" y2="345.7522"/><line style="stroke:#181818;stroke-width:0.7135;" x1="786.3193" x2="1127.1668" y1="357.1688" y2="357.1688"/><text fill="#000000" font-family="sans-serif" font-size="19.9791" lengthAdjust="spacing" textLength="121.712" x="793.4547" y="384.2346">int evaluate()</text><text fill="#000000" font-family="sans-serif" font-size="19.9791" lengthAdjust="spacing" textLength="178.9119" x="793.4547" y="411.446">int countProducts()</text><text fill="#000000" font-family="sans-serif" font-size="19.9791" lengthAdjust="spacing" textLength="245.2822" x="793.4547" y="438.6574">int countDistinctIntegers()</text><text fill="#000000" font-family="sans-serif" font-size="19.9791" lengthAdjust="spacing" textLength="326.5767" x="793.4547" y="465.8688">int countSubExpressions(int result)</text></g><!--reverse link Expression to Operation--><g class="link" data-entity-1="ent0002" data-entity-2="ent0003" data-link-type="extension" data-source-line="50" id="lnk9"><path codeLine="50" d="M694.2946,209.2144 C664.3117,254.253 642.7696,286.5998 615.9121,326.9433" fill="none" id="Expression-backto-Operation" style="stroke:#181818;stroke-width:1.4271;stroke-dasharray:9.9895,9.9895;"/><polygon fill="none" points="708.5293,187.8318,687.1671,204.4695,701.4221,213.9593,708.5293,187.8318" style="stroke:#181818;stroke-width:1.4271;"/><text fill="#000000" font-family="sans-serif" font-size="18.552" lengthAdjust="spacing" textLength="69.199" x="678.4894" y="251.4181">extends</text></g><!--reverse link Operation to AbstractOperation--><g class="link" data-entity-1="ent0003" data-entity-2="ent0004" data-link-type="dependency" data-source-line="52" id="lnk10"><path codeLine="52" d="M575.7113,459.2618 C575.7113,499.063 575.7113,543.5735 575.7113,589.7252" fill="none" id="Operation-backto-AbstractOperation" style="stroke:#181818;stroke-width:1.4271;"/><polygon fill="#181818" points="575.7113,450.6994,570.003,463.5431,575.7113,457.8348,581.4196,463.5431,575.7113,450.6994" style="stroke:#181818;stroke-width:1.4271;"/><text fill="#000000" font-family="sans-serif" font-size="18.552" lengthAdjust="spacing" textLength="103.6501" x="577.1384" y="541.5">implements</text></g><!--reverse link Expression to IntegerValue--><g class="link" data-entity-1="ent0002" data-entity-2="ent0008" data-link-type="dependency" data-source-line="53" id="lnk11"><path codeLine="53" d="M829.6408,194.9765 C853.0734,230.4536 875.3546,264.1662 898.7872,299.629" fill="none" id="Expression-backto-IntegerValue" style="stroke:#181818;stroke-width:1.4271;"/><polygon fill="#181818" points="824.9217,187.8318,827.2372,201.6949,828.8543,193.7857,836.7634,195.4028,824.9217,187.8318" style="stroke:#181818;stroke-width:1.4271;"/><text fill="#000000" font-family="sans-serif" font-size="18.552" lengthAdjust="spacing" textLength="103.6501" x="868.9613" y="251.4181">implements</text></g><!--reverse link AbstractOperation to Sum--><g class="link" data-entity-1="ent0004" data-entity-2="ent0005" data-link-type="extension" data-source-line="55" id="lnk12"><path codeLine="55" d="M416.0875,810.2737 C365.5975,847.0923 330.2541,872.8715 283.5744,906.9073" fill="none" id="AbstractOperation-backto-Sum" style="stroke:#181818;stroke-width:1.4271;"/><polygon fill="none" points="436.8425,795.1386,411.0424,803.3554,421.1325,817.1921,436.8425,795.1386" style="stroke:#181818;stroke-width:1.4271;"/><text fill="#000000" font-family="sans-serif" font-size="18.552" lengthAdjust="spacing" textLength="69.199" x="368.3999" y="858.7963">extends</text></g><!--reverse link AbstractOperation to Product--><g class="link" data-entity-1="ent0004" data-entity-2="ent0006" data-link-type="extension" data-source-line="56" id="lnk13"><path codeLine="56" d="M575.7113,820.826 C575.7113,857.6446 575.7113,872.8715 575.7113,906.9073" fill="none" id="AbstractOperation-backto-Product" style="stroke:#181818;stroke-width:1.4271;"/><polygon fill="none" points="575.7113,795.1386,567.1488,820.826,584.2738,820.826,575.7113,795.1386" style="stroke:#181818;stroke-width:1.4271;"/><text fill="#000000" font-family="sans-serif" font-size="18.552" lengthAdjust="spacing" textLength="69.199" x="577.1384" y="858.7963">extends</text></g><!--reverse link AbstractOperation to Division--><g class="link" data-entity-1="ent0004" data-entity-2="ent0007" data-link-type="extension" data-source-line="57" id="lnk14"><path codeLine="57" d="M735.3352,810.2737 C785.8251,847.0923 821.1685,872.8715 867.8625,906.9073" fill="none" id="AbstractOperation-backto-Division" style="stroke:#181818;stroke-width:1.4271;"/><polygon fill="none" points="714.5801,795.1386,730.2901,817.1921,740.3802,803.3554,714.5801,795.1386" style="stroke:#181818;stroke-width:1.4271;"/><text fill="#000000" font-family="sans-serif" font-size="18.552" lengthAdjust="spacing" textLength="69.199" x="809.3523" y="858.7963">extends</text></g><?plantuml-src lLB1JW8n4BttA-O81uWSl92zcA299qqsyLxQ0PjqkvlE54d4VxV0ObiLD1WyTjwRDwypZvIq29F9zHMy6CtFGXZ7w1TI8TokEuz4fdNmAW0Y0BYIDaZ6mR0lg3OuVlIj3egfhCuCiN6AxwFW4lqdj0xpf4-3RJq-WkMXUCjDF7Je9HyyP9QMo7V64-y8Jk_KIxX6rJgTyAWhvyHUgkZ1IYAuwPz7Xooo2IL2kRZugxNJQul6ztxhq9nrYjFBtcltdHVJdvcLEJjBlndGB-mfgkA_1rPazwqsut6MsodWcj5f4Y8Lgz7ec_HDmJITnGOTKw4OsSNt2gBuAbHjOiSsBMdu4TBXx3yIF-wNcEy0?></g></svg>