<?plantuml 1.2026.2?><svg xmlns="http://www.w3.org/2000/svg" xmlns:xlink="http://www.w3.org/1999/xlink" contentStyleType="text/css" data-diagram-type="CLASS" height="1172.3336px" preserveAspectRatio="none" style="width:700px;height:1172px;background:#FFFFFF;" version="1.1" viewBox="0 0 700 1172" width="700.0506px" zoomAndPan="magnify"><defs/><g><!--class Node--><g class="entity" data-qualified-name="Node" data-source-line="3" id="ent0002"><rect fill="#F1F1F1" height="208.1255" rx="4.1869" ry="4.1869" style="stroke:#181818;stroke-width:0.8374;" width="306.5206" x="58.6837" y="11.7233"/><ellipse cx="177.2999" cy="38.5195" fill="#B4A7E5" rx="18.4224" ry="18.4224" style="stroke:#181818;stroke-width:1.6748;"/><path d="M170.6532,49.4055 L170.6532,46.5532 L174.6046,46.1083 L174.6046,32.37 L170.6532,31.9252 L170.6532,29.0728 L182.612,29.0728 L182.612,31.9252 L178.556,32.37 L178.556,46.1083 L182.612,46.5532 L182.612,49.4055 L170.6532,49.4055 Z " fill="#000000"/><text fill="#000000" font-family="sans-serif" font-size="23.4467" font-style="italic" lengthAdjust="spacing" textLength="55.0526" x="211.6325" y="47.6168">Node</text><line style="stroke:#181818;stroke-width:0.8374;" x1="60.3584" x2="363.5295" y1="65.3157" y2="65.3157"/><line style="stroke:#181818;stroke-width:0.8374;" x1="60.3584" x2="363.5295" y1="78.7138" y2="78.7138"/><text fill="#000000" font-family="sans-serif" font-size="23.4467" lengthAdjust="spacing" textLength="144.4075" x="68.7322" y="110.4773">int getLabel()</text><text fill="#000000" font-family="sans-serif" font-size="23.4467" lengthAdjust="spacing" textLength="167.8306" x="68.7322" y="142.4115">Node getNext()</text><text fill="#000000" font-family="sans-serif" font-size="23.4467" lengthAdjust="spacing" textLength="286.4234" x="68.7322" y="174.3457">Node nextDifferentNode()</text><text fill="#000000" font-family="sans-serif" font-size="23.4467" lengthAdjust="spacing" textLength="135.7792" x="68.7322" y="206.2799">int redSum()</text></g><!--class HeadNode--><g class="entity" data-qualified-name="HeadNode" data-source-line="10" id="ent0003"><rect fill="#F1F1F1" height="112.3228" rx="4.1869" ry="4.1869" style="stroke:#181818;stroke-width:0.8374;" width="219.5807" x="11.7233" y="674.3933"/><ellipse cx="62.2243" cy="701.1895" fill="#B4A7E5" rx="18.4224" ry="18.4224" style="stroke:#181818;stroke-width:1.6748;"/><path d="M55.5776,712.0754 L55.5776,709.2231 L59.529,708.7783 L59.529,695.04 L55.5776,694.5951 L55.5776,691.7428 L67.5364,691.7428 L67.5364,694.5951 L63.4804,695.04 L63.4804,708.7783 L67.5364,709.2231 L67.5364,712.0754 L55.5776,712.0754 Z " fill="#000000"/><text fill="#000000" font-family="sans-serif" font-size="23.4467" font-style="italic" lengthAdjust="spacing" textLength="109.5893" x="91.3109" y="710.2868">HeadNode</text><line style="stroke:#181818;stroke-width:0.8374;" x1="13.3981" x2="229.6292" y1="727.9857" y2="727.9857"/><line style="stroke:#181818;stroke-width:0.8374;" x1="13.3981" x2="229.6292" y1="741.3838" y2="741.3838"/><text fill="#000000" font-family="sans-serif" font-size="23.4467" lengthAdjust="spacing" textLength="199.4835" x="21.7719" y="773.1472">boolean validList()</text></g><!--class AbstractNode--><g class="entity" data-qualified-name="AbstractNode" data-source-line="14" id="ent0004"><rect fill="#F1F1F1" height="271.994" rx="4.1869" ry="4.1869" style="stroke:#181818;stroke-width:0.8374;" width="306.5206" x="232.859" y="352.169"/><ellipse cx="308.6148" cy="378.9652" fill="#A9DCDF" rx="18.4224" ry="18.4224" style="stroke:#181818;stroke-width:1.6748;"/><path d="M300.5289,388.5951 L306.1289,368.1839 L311.3887,368.1839 L317.041,388.5951 L312.9064,388.5951 L311.6765,383.5446 L305.7887,383.5446 L304.5326,388.5951 L300.5289,388.5951 Z M307.9083,375.1185 L306.6522,380.1428 L310.8653,380.1428 L309.6616,375.1185 Q309.4261,374.1503 309.2167,373.2344 Q309.0074,372.2923 308.7719,371.3241 Q308.5887,372.2923 308.3532,373.2344 Q308.1177,374.1503 307.9083,375.1185 Z " fill="#000000"/><text fill="#000000" font-family="sans-serif" font-size="23.4467" font-style="italic" lengthAdjust="spacing" textLength="140.7733" x="342.9475" y="388.0625">AbstractNode</text><line style="stroke:#181818;stroke-width:0.8374;" x1="234.5337" x2="537.7047" y1="405.7614" y2="405.7614"/><text fill="#000000" font-family="sans-serif" font-size="23.4467" lengthAdjust="spacing" textLength="87.995" x="242.9075" y="437.5248">int label</text><text fill="#000000" font-family="sans-serif" font-size="23.4467" lengthAdjust="spacing" textLength="114.3255" x="242.9075" y="469.4591">Node next</text><line style="stroke:#181818;stroke-width:0.8374;" x1="234.5337" x2="537.7047" y1="483.028" y2="483.028"/><text fill="#000000" font-family="sans-serif" font-size="23.4467" lengthAdjust="spacing" textLength="144.4075" x="242.9075" y="514.7914">int getLabel()</text><text fill="#000000" font-family="sans-serif" font-size="23.4467" lengthAdjust="spacing" textLength="167.8306" x="242.9075" y="546.7256">Node getNext()</text><text fill="#000000" font-family="sans-serif" font-size="23.4467" lengthAdjust="spacing" textLength="286.4234" x="242.9075" y="578.6599">Node nextDifferentNode()</text><text fill="#000000" font-family="sans-serif" font-size="23.4467" lengthAdjust="spacing" textLength="135.7792" x="242.9075" y="610.5941">int redSum()</text></g><!--class GreenNode--><g class="entity" data-qualified-name="GreenNode" data-source-line="25" id="ent0005"><rect fill="#F1F1F1" height="80.3886" rx="4.1869" ry="4.1869" style="stroke:#181818;stroke-width:0.8374;" width="180.9308" x="295.6625" y="836.9625"/><ellipse cx="320.784" cy="863.7587" fill="#ADD1B2" rx="18.4224" ry="18.4224" style="stroke:#181818;stroke-width:1.6748;"/><path d="M319.8943,875.3512 Q316.9634,875.3512 315.0531,874.1213 Q313.169,872.8652 312.227,870.6147 Q311.3111,868.3381 311.3111,865.3288 Q311.3111,861.9269 312.4102,859.4933 Q313.5092,857.0596 315.655,855.7512 Q317.8008,854.4428 320.941,854.4428 Q322.4326,854.4428 323.5578,854.7568 Q324.683,855.0447 325.8344,855.6204 L324.4737,858.9961 Q323.427,858.4727 322.5111,858.2634 Q321.6214,858.054 320.8101,858.054 Q318.8475,858.054 317.67,858.9437 Q316.4924,859.8334 315.9952,861.4297 Q315.498,863.026 315.498,865.1456 Q315.498,868.5213 316.7017,870.1437 Q317.9055,871.74 320.5746,871.74 Q321.569,871.74 322.6157,871.4783 Q323.6625,871.2166 325.0494,870.5886 L325.0494,874.3044 Q323.8195,874.8278 322.4849,875.0895 Q321.1765,875.3512 319.8943,875.3512 Z " fill="#000000"/><text fill="#000000" font-family="sans-serif" font-size="23.4467" lengthAdjust="spacing" textLength="127.3384" x="344.2306" y="872.8559">GreenNode</text><line style="stroke:#181818;stroke-width:0.8374;" x1="297.3373" x2="474.9185" y1="890.5549" y2="890.5549"/><line style="stroke:#181818;stroke-width:0.8374;" x1="297.3373" x2="474.9185" y1="903.953" y2="903.953"/></g><!--class RedNode--><g class="entity" data-qualified-name="RedNode" data-source-line="29" id="ent0006"><rect fill="#F1F1F1" height="80.3886" rx="4.1869" ry="4.1869" style="stroke:#181818;stroke-width:0.8374;" width="155.4678" x="534.4836" y="836.9625"/><ellipse cx="559.6051" cy="863.7587" fill="#ADD1B2" rx="18.4224" ry="18.4224" style="stroke:#181818;stroke-width:1.6748;"/><path d="M558.7154,875.3512 Q555.7845,875.3512 553.8743,874.1213 Q551.9901,872.8652 551.0481,870.6147 Q550.1322,868.3381 550.1322,865.3288 Q550.1322,861.9269 551.2313,859.4933 Q552.3303,857.0596 554.4761,855.7512 Q556.6219,854.4428 559.7621,854.4428 Q561.2537,854.4428 562.3789,854.7568 Q563.5041,855.0447 564.6555,855.6204 L563.2948,858.9961 Q562.2481,858.4727 561.3322,858.2634 Q560.4425,858.054 559.6312,858.054 Q557.6686,858.054 556.4911,858.9437 Q555.3135,859.8334 554.8163,861.4297 Q554.3191,863.026 554.3191,865.1456 Q554.3191,868.5213 555.5228,870.1437 Q556.7266,871.74 559.3957,871.74 Q560.3901,871.74 561.4369,871.4783 Q562.4836,871.2166 563.8705,870.5886 L563.8705,874.3044 Q562.6406,874.8278 561.306,875.0895 Q559.9976,875.3512 558.7154,875.3512 Z " fill="#000000"/><text fill="#000000" font-family="sans-serif" font-size="23.4467" lengthAdjust="spacing" textLength="101.8754" x="583.0518" y="872.8559">RedNode</text><line style="stroke:#181818;stroke-width:0.8374;" x1="536.1584" x2="688.2767" y1="890.5549" y2="890.5549"/><line style="stroke:#181818;stroke-width:0.8374;" x1="536.1584" x2="688.2767" y1="903.953" y2="903.953"/></g><!--class HeadNodeImpl--><g class="entity" data-qualified-name="HeadNodeImpl" data-source-line="33" id="ent0007"><rect fill="#F1F1F1" height="112.3228" rx="4.1869" ry="4.1869" style="stroke:#181818;stroke-width:0.8374;" width="221.7513" x="50.829" y="1049.6573"/><ellipse cx="75.9505" cy="1076.4535" fill="#ADD1B2" rx="18.4224" ry="18.4224" style="stroke:#181818;stroke-width:1.6748;"/><path d="M75.0608,1088.046 Q72.1299,1088.046 70.2196,1086.8161 Q68.3355,1085.56 67.3935,1083.3095 Q66.4776,1081.0329 66.4776,1078.0236 Q66.4776,1074.6217 67.5767,1072.1881 Q68.6757,1069.7544 70.8215,1068.446 Q72.9673,1067.1376 76.1075,1067.1376 Q77.5991,1067.1376 78.7243,1067.4516 Q79.8495,1067.7395 81.0009,1068.3152 L79.6402,1071.6909 Q78.5935,1071.1675 77.6776,1070.9582 Q76.7879,1070.7488 75.9766,1070.7488 Q74.014,1070.7488 72.8365,1071.6385 Q71.6589,1072.5283 71.1617,1074.1245 Q70.6645,1075.7208 70.6645,1077.8404 Q70.6645,1081.2161 71.8682,1082.8385 Q73.072,1084.4348 75.7411,1084.4348 Q76.7355,1084.4348 77.7822,1084.1731 Q78.829,1083.9114 80.2159,1083.2834 L80.2159,1086.9992 Q78.986,1087.5226 77.6514,1087.7843 Q76.343,1088.046 75.0608,1088.046 Z " fill="#000000"/><text fill="#000000" font-family="sans-serif" font-size="23.4467" lengthAdjust="spacing" textLength="168.1589" x="99.3971" y="1085.5507">HeadNodeImpl</text><line style="stroke:#181818;stroke-width:0.8374;" x1="52.5038" x2="270.9056" y1="1103.2497" y2="1103.2497"/><line style="stroke:#181818;stroke-width:0.8374;" x1="52.5038" x2="270.9056" y1="1116.6478" y2="1116.6478"/><text fill="#000000" font-family="sans-serif" font-size="23.4467" lengthAdjust="spacing" textLength="199.4835" x="60.8776" y="1148.4112">boolean validList()</text></g><!--reverse link GreenNode to HeadNodeImpl--><g class="link" data-entity-1="ent0005" data-entity-2="ent0007" data-link-type="extension" data-source-line="37" id="lnk8"><path codeLine="37" d="M325.7508,939.4437 C289.71,975.6186 257.1263,1008.3409 216.7477,1048.8869" fill="none" id="GreenNode-backto-HeadNodeImpl" style="stroke:#181818;stroke-width:1.6748;"/><polygon fill="none" points="347.0275,918.088,318.6323,932.3515,332.8694,946.5359,347.0275,918.088" style="stroke:#181818;stroke-width:1.6748;"/><text fill="#000000" font-family="sans-serif" font-size="21.7719" lengthAdjust="spacing" textLength="81.2093" x="295.696" y="992.5429">extends</text></g><!--reverse link AbstractNode to RedNode--><g class="link" data-entity-1="ent0004" data-entity-2="ent0006" data-link-type="extension" data-source-line="38" id="lnk9"><path codeLine="38" d="M480.448,650.7241 C524.2598,725.4353 560.3085,786.9541 589.2651,836.3428" fill="none" id="AbstractNode-backto-RedNode" style="stroke:#181818;stroke-width:1.6748;"/><polygon fill="none" points="465.1987,624.7198,471.78,655.8072,489.1161,645.641,465.1987,624.7198" style="stroke:#181818;stroke-width:1.6748;"/><text fill="#000000" font-family="sans-serif" font-size="21.7719" lengthAdjust="spacing" textLength="81.2093" x="559.2534" y="739.6035">extends</text></g><!--reverse link AbstractNode to GreenNode--><g class="link" data-entity-1="ent0004" data-entity-2="ent0005" data-link-type="extension" data-source-line="39" id="lnk10"><path codeLine="39" d="M386.1332,654.8656 C386.1332,729.5767 386.1332,786.9541 386.1332,836.3428" fill="none" id="AbstractNode-backto-GreenNode" style="stroke:#181818;stroke-width:1.6748;"/><polygon fill="none" points="386.1332,624.7198,376.0846,654.8656,396.1818,654.8656,386.1332,624.7198" style="stroke:#181818;stroke-width:1.6748;"/><text fill="#000000" font-family="sans-serif" font-size="21.7719" lengthAdjust="spacing" textLength="81.2093" x="387.808" y="739.6035">extends</text></g><!--reverse link Node to HeadNode--><g class="link" data-entity-1="ent0002" data-entity-2="ent0003" data-link-type="extension" data-source-line="41" id="lnk11"><path codeLine="41" d="M192.3035,250.32 C172.96,381.0017 144.7497,571.8141 129.6434,673.9579" fill="none" id="Node-backto-HeadNode" style="stroke:#181818;stroke-width:1.6748;stroke-dasharray:11.7233,11.7233;"/><polygon fill="none" points="196.7176,220.4992,182.3632,248.8487,202.2438,251.7914,196.7176,220.4992" style="stroke:#181818;stroke-width:1.6748;"/><text fill="#000000" font-family="sans-serif" font-size="21.7719" lengthAdjust="spacing" textLength="81.2093" x="190.7554" y="295.0546">extends</text></g><!--reverse link HeadNode to HeadNodeImpl--><g class="link" data-entity-1="ent0003" data-entity-2="ent0007" data-link-type="dependency" data-source-line="44" id="lnk12"><path codeLine="44" d="M128.5272,797.0954 C136.1139,867.4187 148.1495,978.6139 155.7529,1049.0376" fill="none" id="HeadNode-backto-HeadNodeImpl" style="stroke:#181818;stroke-width:1.6748;"/><polygon fill="#181818" points="127.4494,787.1048,122.4057,802.8092,128.3476,795.4303,135.7265,801.3722,127.4494,787.1048" style="stroke:#181818;stroke-width:1.6748;"/><text fill="#000000" font-family="sans-serif" font-size="21.7719" lengthAdjust="spacing" textLength="121.6398" x="142.4218" y="886.1955">implements</text></g><!--reverse link Node to AbstractNode--><g class="link" data-entity-1="ent0002" data-entity-2="ent0004" data-link-type="dependency" data-source-line="45" id="lnk13"><path codeLine="45" d="M264.7652,229.3518 C283.9915,270.082 302.0601,308.3907 322.5592,351.8006" fill="none" id="Node-backto-AbstractNode" style="stroke:#181818;stroke-width:1.6748;"/><polygon fill="#181818" points="260.4758,220.2647,260.8519,236.7549,264.0503,227.8373,272.968,231.0357,260.4758,220.2647" style="stroke:#181818;stroke-width:1.6748;"/><text fill="#000000" font-family="sans-serif" font-size="21.7719" lengthAdjust="spacing" textLength="121.6398" x="295.4951" y="295.0546">implements</text></g><?plantuml-src hL1DQm8n5Bo_N_6EUb2y2SMBK511FBI_uErcjWQoMKdILcZxtvku7zb5yEGfpBp9pBpdIp7WzMh5trg5Cv6s0QwI4dng5FY7E3ByWN2K0cOsfvQFn0dNC60RmQkkAZZOa9WqIJyTrFjd7T7Vs7iFKRq_5qrZ89Q_n6Xrr3wqQYbyS586BerupziEZckPr6dKW9xMDXLeStSEi5rePj-WxhX-gKDzCOyMouwRtyLY-ks5OpLOvMcoxqtOPpxIPE-iecwyNEQxZwOqa9lxDZe-gEELF0sIIUf4yWy0?></g></svg>