<?plantuml 1.2026.2?><svg xmlns="http://www.w3.org/2000/svg" xmlns:xlink="http://www.w3.org/1999/xlink" contentStyleType="text/css" data-diagram-type="CLASS" height="416.8158px" preserveAspectRatio="none" style="width:250px;height:416px;background:#FFFFFF;" version="1.1" viewBox="0 0 250 416" width="250.0895px" zoomAndPan="magnify"><defs/><g><!--class Node--><g class="entity" data-qualified-name="Node" data-source-line="3" id="ent0002"><rect fill="#F1F1F1" height="73.9977" rx="1.4886" ry="1.4886" style="stroke:#181818;stroke-width:0.2977;" width="108.9814" x="21.9841" y="4.1682"/><ellipse cx="64.1573" cy="13.6954" fill="#B4A7E5" rx="6.55" ry="6.55" style="stroke:#181818;stroke-width:0.5955;"/><path d="M61.7941,17.5658 L61.7941,16.5517 L63.199,16.3935 L63.199,11.509 L61.7941,11.3508 L61.7941,10.3367 L66.046,10.3367 L66.046,11.3508 L64.6039,11.509 L64.6039,16.3935 L66.046,16.5517 L66.046,17.5658 L61.7941,17.5658 Z " fill="#000000"/><text fill="#000000" font-family="sans-serif" font-size="8.3363" font-style="italic" lengthAdjust="spacing" textLength="19.5736" x="76.3641" y="16.9299">Node</text><line style="stroke:#181818;stroke-width:0.2977;" x1="22.5795" x2="130.37" y1="23.2226" y2="23.2226"/><line style="stroke:#181818;stroke-width:0.2977;" x1="22.5795" x2="130.37" y1="27.9862" y2="27.9862"/><text fill="#000000" font-family="sans-serif" font-size="8.3363" lengthAdjust="spacing" textLength="59.6711" x="25.5568" y="39.2795">Node getNext()</text><text fill="#000000" font-family="sans-serif" font-size="8.3363" lengthAdjust="spacing" textLength="59.6711" x="25.5568" y="50.6335">Node getNext()</text><text fill="#000000" font-family="sans-serif" font-size="8.3363" lengthAdjust="spacing" textLength="101.836" x="25.5568" y="61.9875">Node nextDifferentNode()</text><text fill="#000000" font-family="sans-serif" font-size="8.3363" lengthAdjust="spacing" textLength="48.2754" x="25.5568" y="73.3415">int redSum()</text></g><!--class HeadNode--><g class="entity" data-qualified-name="HeadNode" data-source-line="10" id="ent0003"><rect fill="#F1F1F1" height="39.9357" rx="1.4886" ry="1.4886" style="stroke:#181818;stroke-width:0.2977;" width="80.3046" x="4.1682" y="239.7762"/><ellipse cx="23.1288" cy="249.3035" fill="#B4A7E5" rx="6.55" ry="6.55" style="stroke:#181818;stroke-width:0.5955;"/><path d="M20.7656,253.1739 L20.7656,252.1598 L22.1705,252.0016 L22.1705,247.117 L20.7656,246.9589 L20.7656,245.9448 L25.0175,245.9448 L25.0175,246.9589 L23.5754,247.117 L23.5754,252.0016 L25.0175,252.1598 L25.0175,253.1739 L20.7656,253.1739 Z " fill="#000000"/><text fill="#000000" font-family="sans-serif" font-size="8.3363" font-style="italic" lengthAdjust="spacing" textLength="38.9638" x="33.6938" y="252.5379">HeadNode</text><line style="stroke:#181818;stroke-width:0.2977;" x1="4.7636" x2="83.8773" y1="258.8307" y2="258.8307"/><line style="stroke:#181818;stroke-width:0.2977;" x1="4.7636" x2="83.8773" y1="263.5943" y2="263.5943"/><text fill="#000000" font-family="sans-serif" font-size="8.3363" lengthAdjust="spacing" textLength="73.1592" x="7.7409" y="274.8876">boolean validList();</text></g><!--class AbstractNode--><g class="entity" data-qualified-name="AbstractNode" data-source-line="14" id="ent0004"><rect fill="#F1F1F1" height="96.7057" rx="1.4886" ry="1.4886" style="stroke:#181818;stroke-width:0.2977;" width="108.9814" x="83.911" y="125.2115"/><ellipse cx="110.8455" cy="134.7387" fill="#A9DCDF" rx="6.55" ry="6.55" style="stroke:#181818;stroke-width:0.5955;"/><path d="M107.9706,138.1625 L109.9616,130.9055 L111.8317,130.9055 L113.8414,138.1625 L112.3713,138.1625 L111.9341,136.3669 L109.8407,136.3669 L109.3941,138.1625 L107.9706,138.1625 Z M110.5943,133.371 L110.1477,135.1574 L111.6456,135.1574 L111.2177,133.371 Q111.1339,133.0268 111.0595,132.7011 Q110.9851,132.3662 110.9013,132.0219 Q110.8362,132.3662 110.7525,132.7011 Q110.6687,133.0268 110.5943,133.371 Z " fill="#000000"/><text fill="#000000" font-family="sans-serif" font-size="8.3363" font-style="italic" lengthAdjust="spacing" textLength="50.051" x="123.0522" y="137.9732">AbstractNode</text><line style="stroke:#181818;stroke-width:0.2977;" x1="84.5064" x2="192.297" y1="144.2659" y2="144.2659"/><text fill="#000000" font-family="sans-serif" font-size="8.3363" lengthAdjust="spacing" textLength="31.2861" x="87.4837" y="155.5592">int label</text><text fill="#000000" font-family="sans-serif" font-size="8.3363" lengthAdjust="spacing" textLength="40.6477" x="87.4837" y="166.9132">Node next</text><line style="stroke:#181818;stroke-width:0.2977;" x1="84.5064" x2="192.297" y1="171.7375" y2="171.7375"/><text fill="#000000" font-family="sans-serif" font-size="8.3363" lengthAdjust="spacing" textLength="59.6711" x="87.4837" y="183.0308">Node getNext()</text><text fill="#000000" font-family="sans-serif" font-size="8.3363" lengthAdjust="spacing" textLength="59.6711" x="87.4837" y="194.3848">Node getNext()</text><text fill="#000000" font-family="sans-serif" font-size="8.3363" lengthAdjust="spacing" textLength="101.836" x="87.4837" y="205.7388">Node nextDifferentNode()</text><text fill="#000000" font-family="sans-serif" font-size="8.3363" lengthAdjust="spacing" textLength="48.2754" x="87.4837" y="217.0928">int redSum()</text></g><!--class GreenNode--><g class="entity" data-qualified-name="GreenNode" data-source-line="25" id="ent0005"><rect fill="#F1F1F1" height="28.5817" rx="1.4886" ry="1.4886" style="stroke:#181818;stroke-width:0.2977;" width="64.3288" x="106.2344" y="297.5767"/><ellipse cx="115.1662" cy="307.1039" fill="#ADD1B2" rx="6.55" ry="6.55" style="stroke:#181818;stroke-width:0.5955;"/><path d="M114.8499,311.2255 Q113.8078,311.2255 113.1286,310.7883 Q112.4588,310.3417 112.1238,309.5415 Q111.7982,308.7321 111.7982,307.6621 Q111.7982,306.4526 112.1889,305.5874 Q112.5797,304.7221 113.3426,304.2569 Q114.1055,303.7917 115.222,303.7917 Q115.7523,303.7917 116.1524,303.9034 Q116.5525,304.0057 116.9619,304.2104 L116.4781,305.4106 Q116.1059,305.2245 115.7803,305.1501 Q115.4639,305.0756 115.1755,305.0756 Q114.4777,305.0756 114.059,305.392 Q113.6404,305.7083 113.4636,306.2759 Q113.2868,306.8434 113.2868,307.597 Q113.2868,308.7972 113.7148,309.3741 Q114.1428,309.9416 115.0918,309.9416 Q115.4453,309.9416 115.8175,309.8486 Q116.1896,309.7555 116.6827,309.5322 L116.6827,310.8534 Q116.2455,311.0395 115.771,311.1325 Q115.3058,311.2255 114.8499,311.2255 Z " fill="#000000"/><text fill="#000000" font-family="sans-serif" font-size="8.3363" lengthAdjust="spacing" textLength="45.2743" x="123.5025" y="310.3384">GreenNode</text><line style="stroke:#181818;stroke-width:0.2977;" x1="106.8299" x2="169.9678" y1="316.6311" y2="316.6311"/><line style="stroke:#181818;stroke-width:0.2977;" x1="106.8299" x2="169.9678" y1="321.3947" y2="321.3947"/></g><!--class RedNode--><g class="entity" data-qualified-name="RedNode" data-source-line="29" id="ent0006"><rect fill="#F1F1F1" height="28.5817" rx="1.4886" ry="1.4886" style="stroke:#181818;stroke-width:0.2977;" width="55.2756" x="191.1517" y="297.5767"/><ellipse cx="200.0835" cy="307.1039" fill="#ADD1B2" rx="6.55" ry="6.55" style="stroke:#181818;stroke-width:0.5955;"/><path d="M199.7671,311.2255 Q198.7251,311.2255 198.0459,310.7883 Q197.376,310.3417 197.0411,309.5415 Q196.7155,308.7321 196.7155,307.6621 Q196.7155,306.4526 197.1062,305.5874 Q197.497,304.7221 198.2599,304.2569 Q199.0228,303.7917 200.1393,303.7917 Q200.6696,303.7917 201.0697,303.9034 Q201.4698,304.0057 201.8791,304.2104 L201.3953,305.4106 Q201.0232,305.2245 200.6975,305.1501 Q200.3812,305.0756 200.0928,305.0756 Q199.395,305.0756 198.9763,305.392 Q198.5576,305.7083 198.3809,306.2759 Q198.2041,306.8434 198.2041,307.597 Q198.2041,308.7972 198.6321,309.3741 Q199.06,309.9416 200.009,309.9416 Q200.3626,309.9416 200.7348,309.8486 Q201.1069,309.7555 201.6,309.5322 L201.6,310.8534 Q201.1627,311.0395 200.6882,311.1325 Q200.223,311.2255 199.7671,311.2255 Z " fill="#000000"/><text fill="#000000" font-family="sans-serif" font-size="8.3363" lengthAdjust="spacing" textLength="36.2211" x="208.4198" y="310.3384">RedNode</text><line style="stroke:#181818;stroke-width:0.2977;" x1="191.7472" x2="245.8318" y1="316.6311" y2="316.6311"/><line style="stroke:#181818;stroke-width:0.2977;" x1="191.7472" x2="245.8318" y1="321.3947" y2="321.3947"/></g><!--class HeadNodeImpl--><g class="entity" data-qualified-name="HeadNodeImpl" data-source-line="33" id="ent0007"><rect fill="#F1F1F1" height="39.9357" rx="1.4886" ry="1.4886" style="stroke:#181818;stroke-width:0.2977;" width="80.3046" x="18.459" y="373.199"/><ellipse cx="28.0488" cy="382.7262" fill="#ADD1B2" rx="6.55" ry="6.55" style="stroke:#181818;stroke-width:0.5955;"/><path d="M27.7325,386.8478 Q26.6904,386.8478 26.0113,386.4105 Q25.3414,385.964 25.0064,385.1638 Q24.6808,384.3544 24.6808,383.2844 Q24.6808,382.0749 25.0716,381.2097 Q25.4623,380.3444 26.2252,379.8792 Q26.9882,379.414 28.1046,379.414 Q28.635,379.414 29.035,379.5256 Q29.4351,379.628 29.8445,379.8327 L29.3607,381.0329 Q28.9885,380.8468 28.6629,380.7724 Q28.3465,380.6979 28.0581,380.6979 Q27.3603,380.6979 26.9417,381.0143 Q26.523,381.3306 26.3462,381.8981 Q26.1694,382.4657 26.1694,383.2193 Q26.1694,384.4195 26.5974,384.9964 Q27.0254,385.5639 27.9744,385.5639 Q28.3279,385.5639 28.7001,385.4709 Q29.0722,385.3778 29.5654,385.1545 L29.5654,386.4757 Q29.1281,386.6618 28.6536,386.7548 Q28.1884,386.8478 27.7325,386.8478 Z " fill="#000000"/><text fill="#000000" font-family="sans-serif" font-size="8.3363" lengthAdjust="spacing" textLength="59.7878" x="36.5314" y="385.9607">HeadNodeImpl</text><line style="stroke:#181818;stroke-width:0.2977;" x1="19.0544" x2="98.1682" y1="392.2534" y2="392.2534"/><line style="stroke:#181818;stroke-width:0.2977;" x1="19.0544" x2="98.1682" y1="397.017" y2="397.017"/><text fill="#000000" font-family="sans-serif" font-size="8.3363" lengthAdjust="spacing" textLength="73.1592" x="22.0317" y="408.3103">boolean validList();</text></g><!--reverse link GreenNode to HeadNodeImpl--><g class="link" data-entity-1="ent0005" data-entity-2="ent0007" data-link-type="extension" data-source-line="37" id="lnk8"><path codeLine="37" d="M116.9381,334.0132 C104.124,346.875 92.5391,358.5092 78.1768,372.9251" fill="none" id="GreenNode-backto-HeadNodeImpl" style="stroke:#181818;stroke-width:0.5955;"/><polygon fill="none" points="124.5029,326.4203,114.4071,331.4916,119.4691,336.5348,124.5029,326.4203" style="stroke:#181818;stroke-width:0.5955;"/><text fill="#000000" font-family="sans-serif" font-size="7.7409" lengthAdjust="spacing" textLength="28.8734" x="106.2463" y="352.8923">extends</text></g><!--reverse link AbstractNode to RedNode--><g class="link" data-entity-1="ent0004" data-entity-2="ent0006" data-link-type="extension" data-source-line="38" id="lnk9"><path codeLine="38" d="M171.9382,231.3617 C187.5092,257.9248 200.3336,279.7965 210.6289,297.3564" fill="none" id="AbstractNode-backto-RedNode" style="stroke:#181818;stroke-width:0.5955;"/><polygon fill="none" points="166.5179,222.1152,168.856,233.1685,175.0203,229.555,166.5179,222.1152" style="stroke:#181818;stroke-width:0.5955;"/><text fill="#000000" font-family="sans-serif" font-size="7.7409" lengthAdjust="spacing" textLength="28.8734" x="199.9584" y="262.9613">extends</text></g><!--reverse link AbstractNode to GreenNode--><g class="link" data-entity-1="ent0004" data-entity-2="ent0005" data-link-type="extension" data-source-line="39" id="lnk10"><path codeLine="39" d="M138.4007,232.8333 C138.4007,259.3964 138.4007,279.7965 138.4007,297.3564" fill="none" id="AbstractNode-backto-GreenNode" style="stroke:#181818;stroke-width:0.5955;"/><polygon fill="none" points="138.4007,222.1152,134.828,232.8333,141.9734,232.8333,138.4007,222.1152" style="stroke:#181818;stroke-width:0.5955;"/><text fill="#000000" font-family="sans-serif" font-size="7.7409" lengthAdjust="spacing" textLength="28.8734" x="138.9962" y="262.9613">extends</text></g><!--reverse link Node to HeadNode--><g class="link" data-entity-1="ent0002" data-entity-2="ent0003" data-link-type="extension" data-source-line="41" id="lnk11"><path codeLine="41" d="M69.4871,88.9999 C62.6156,135.4629 52.5783,203.3049 47.2074,239.6214" fill="none" id="Node-backto-HeadNode" style="stroke:#181818;stroke-width:0.5955;stroke-dasharray:4.1682,4.1682;"/><polygon fill="none" points="71.0552,78.3971,65.9528,88.4772,73.0214,89.5226,71.0552,78.3971" style="stroke:#181818;stroke-width:0.5955;"/><text fill="#000000" font-family="sans-serif" font-size="7.7409" lengthAdjust="spacing" textLength="28.8734" x="68.9354" y="104.9048">extends</text></g><!--reverse link HeadNode to HeadNodeImpl--><g class="link" data-entity-1="ent0003" data-entity-2="ent0007" data-link-type="dependency" data-source-line="44" id="lnk12"><path codeLine="44" d="M46.8114,283.4021 C49.5147,308.4051 53.7871,347.9399 56.4964,372.9787" fill="none" id="HeadNode-backto-HeadNodeImpl" style="stroke:#181818;stroke-width:0.5955;"/><polygon fill="#181818" points="46.4273,279.8501,44.6354,285.4341,46.7474,282.8101,49.3714,284.9221,46.4273,279.8501" style="stroke:#181818;stroke-width:0.5955;"/><text fill="#000000" font-family="sans-serif" font-size="7.7409" lengthAdjust="spacing" textLength="43.2483" x="51.7566" y="315.0812">implements</text></g><!--reverse link Node to AbstractNode--><g class="link" data-entity-1="ent0002" data-entity-2="ent0004" data-link-type="dependency" data-source-line="45" id="lnk13"><path codeLine="45" d="M95.2491,81.5446 C102.0849,96.0259 108.515,109.6464 115.7974,125.0805" fill="none" id="Node-backto-AbstractNode" style="stroke:#181818;stroke-width:0.5955;"/><polygon fill="#181818" points="93.724,78.3137,93.8577,84.1767,94.9949,81.0061,98.1655,82.1433,93.724,78.3137" style="stroke:#181818;stroke-width:0.5955;"/><text fill="#000000" font-family="sans-serif" font-size="7.7409" lengthAdjust="spacing" textLength="43.2483" x="106.1749" y="104.9048">implements</text></g><?plantuml-src hL11QiCm4Bph5Nji3ZQba4lYIo7G54eEpGlMrZWHo7AHbBJGvE-H6ZkoCScffsLsPsTcrrMiGI_pP_fMqk-5KCR3rbo1Dgq4_OfhtS5lyEEVPdUm2M2bwXeMniTEd0Gjif3RGnFGUQYz1ijUdygsrM13HzPAVYWNL9UHpgNpbYjFbMRdwBM3_LvKrrn23oA8VuiR0rnztonWEjFK_OISzFghtfil_V2o95cSicoyjw2G3KOwCJhuZzYRFk8axSGItJZFq-S7Kt5h5jCqAXGquKrEt2WZrn7b0W00?></g></svg>