<?plantuml 1.2026.2?><svg xmlns="http://www.w3.org/2000/svg" xmlns:xlink="http://www.w3.org/1999/xlink" contentStyleType="text/css" data-diagram-type="CLASS" height="507.0682px" preserveAspectRatio="none" style="width:500px;height:507px;background:#FFFFFF;" version="1.1" viewBox="0 0 500 507" width="500.3668px" zoomAndPan="magnify"><defs/><g><!--class NPC--><g class="entity" data-qualified-name="NPC" data-source-line="3" id="ent0002"><rect fill="#F1F1F1" height="149.815" rx="5.5845" ry="5.5845" style="stroke:#181818;stroke-width:1.1169;" width="129.6797" x="183.7285" y="15.6365"/><ellipse cx="217.2352" cy="51.377" fill="#A9DCDF" rx="24.5716" ry="24.5716" style="stroke:#181818;stroke-width:2.2338;"/><path d="M206.4502,64.2212 L213.9194,36.997 L220.9349,36.997 L228.4739,64.2212 L222.9592,64.2212 L221.3188,57.4849 L213.4657,57.4849 L211.7903,64.2212 L206.4502,64.2212 Z M216.2928,46.2462 L214.6174,52.9476 L220.2368,52.9476 L218.6313,46.2462 Q218.3171,44.9548 218.0379,43.7332 Q217.7587,42.4767 217.4446,41.1853 Q217.2003,42.4767 216.8861,43.7332 Q216.572,44.9548 216.2928,46.2462 Z " fill="#000000"/><text fill="#000000" font-family="sans-serif" font-size="31.2729" font-style="italic" lengthAdjust="spacing" textLength="58.1987" x="248.5081" y="63.5108">NPC</text><line style="stroke:#181818;stroke-width:1.1169;" x1="185.9622" x2="311.1744" y1="87.1174" y2="87.1174"/><text fill="#000000" font-family="sans-serif" font-size="31.2729" lengthAdjust="spacing" textLength="82.5915" x="197.1311" y="129.4832">int xp</text><line style="stroke:#181818;stroke-width:1.1169;" x1="185.9622" x2="311.1744" y1="147.5812" y2="147.5812"/></g><!--class Unicorn--><g class="entity" data-qualified-name="Unicorn" data-source-line="7" id="ent0003"><rect fill="#F1F1F1" height="149.815" rx="5.5845" ry="5.5845" style="stroke:#181818;stroke-width:1.1169;" width="193.3643" x="15.6365" y="341.9248"/><ellipse cx="51.5978" cy="377.6653" fill="#ADD1B2" rx="24.5716" ry="24.5716" style="stroke:#181818;stroke-width:2.2338;"/><path d="M50.4111,393.1272 Q46.502,393.1272 43.9541,391.4868 Q41.4411,389.8115 40.1846,386.8098 Q38.963,383.7733 38.963,379.7594 Q38.963,375.2221 40.4289,371.9761 Q41.8948,368.7302 44.7568,366.985 Q47.6189,365.2399 51.8072,365.2399 Q53.7967,365.2399 55.2975,365.6587 Q56.7983,366.0426 58.334,366.8105 L56.5191,371.313 Q55.123,370.6149 53.9014,370.3357 Q52.7147,370.0565 51.6327,370.0565 Q49.015,370.0565 47.4443,371.2432 Q45.8737,372.4299 45.2106,374.5589 Q44.5474,376.688 44.5474,379.5151 Q44.5474,384.0176 46.1529,386.1816 Q47.7585,388.3106 51.3186,388.3106 Q52.6449,388.3106 54.041,387.9616 Q55.4371,387.6126 57.2869,386.7749 L57.2869,391.7311 Q55.6465,392.4292 53.8665,392.7782 Q52.1213,393.1272 50.4111,393.1272 Z " fill="#000000"/><text fill="#000000" font-family="sans-serif" font-size="31.2729" lengthAdjust="spacing" textLength="116.4287" x="83.4162" y="389.7991">Unicorn</text><line style="stroke:#181818;stroke-width:1.1169;" x1="17.8702" x2="206.767" y1="413.4058" y2="413.4058"/><line style="stroke:#181818;stroke-width:1.1169;" x1="17.8702" x2="206.767" y1="431.276" y2="431.276"/><text fill="#000000" font-family="sans-serif" font-size="31.2729" lengthAdjust="spacing" textLength="166.559" x="29.0391" y="473.6417">void sleep()</text></g><!--class Butterfly--><g class="entity" data-qualified-name="Butterfly" data-source-line="11" id="ent0004"><rect fill="#F1F1F1" height="107.2215" rx="5.5845" ry="5.5845" style="stroke:#181818;stroke-width:1.1169;" width="199.0427" x="287.5546" y="363.2351"/><ellipse cx="321.0613" cy="398.9755" fill="#ADD1B2" rx="24.5716" ry="24.5716" style="stroke:#181818;stroke-width:2.2338;"/><path d="M319.8746,414.4375 Q315.9655,414.4375 313.4176,412.7971 Q310.9046,411.1217 309.6481,408.1201 Q308.4265,405.0835 308.4265,401.0697 Q308.4265,396.5323 309.8924,393.2864 Q311.3583,390.0404 314.2203,388.2953 Q317.0824,386.5501 321.2707,386.5501 Q323.2602,386.5501 324.761,386.969 Q326.2618,387.3529 327.7975,388.1208 L325.9826,392.6232 Q324.5865,391.9252 323.3649,391.646 Q322.1782,391.3667 321.0962,391.3667 Q318.4785,391.3667 316.9078,392.5534 Q315.3372,393.7401 314.6741,395.8692 Q314.0109,397.9983 314.0109,400.8254 Q314.0109,405.3279 315.6164,407.4918 Q317.222,409.6209 320.7821,409.6209 Q322.1084,409.6209 323.5045,409.2719 Q324.9006,408.9228 326.7504,408.0852 L326.7504,413.0414 Q325.11,413.7394 323.33,414.0885 Q321.5848,414.4375 319.8746,414.4375 Z " fill="#000000"/><text fill="#000000" font-family="sans-serif" font-size="31.2729" lengthAdjust="spacing" textLength="127.5618" x="352.3342" y="411.1094">Butterfly</text><line style="stroke:#181818;stroke-width:1.1169;" x1="289.7884" x2="484.3635" y1="434.716" y2="434.716"/><line style="stroke:#181818;stroke-width:1.1169;" x1="289.7884" x2="484.3635" y1="452.5863" y2="452.5863"/></g><!--reverse link NPC to Unicorn--><g class="link" data-entity-1="ent0002" data-entity-2="ent0003" data-link-type="extension" data-source-line="14" id="lnk5"><path codeLine="14" d="M192.5316,202.0455 C181.9881,223.2664 188.7545,210.6008 179.3279,232.4695 C164.1382,267.7633 149.1942,307.7256 137.2882,341.2323" fill="none" id="NPC-backto-Unicorn" style="stroke:#181818;stroke-width:2.2338;"/><polygon fill="none" points="210.4221,166.0369,180.5287,196.0819,204.5344,208.009,210.4221,166.0369" style="stroke:#181818;stroke-width:2.2338;"/><text fill="#000000" font-family="sans-serif" font-size="29.0391" lengthAdjust="spacing" textLength="108.3161" x="181.5617" y="265.7462">extends</text></g><!--reverse link NPC to Butterfly--><g class="link" data-entity-1="ent0002" data-entity-2="ent0004" data-link-type="extension" data-source-line="15" id="lnk6"><path codeLine="15" d="M295.9027,202.7449 C321.7699,262.8336 341.8801,309.5573 364.821,362.9" fill="none" id="NPC-backto-Butterfly" style="stroke:#181818;stroke-width:2.2338;"/><polygon fill="none" points="280.0044,165.8135,283.5923,208.0444,308.2132,197.4455,280.0044,165.8135" style="stroke:#181818;stroke-width:2.2338;"/><text fill="#000000" font-family="sans-serif" font-size="29.0391" lengthAdjust="spacing" textLength="108.3161" x="328.3434" y="265.7462">extends</text></g><?plantuml-src AqvEp4bLC3KmK2ZFJ2d9uE9AJ2ekAKfCBb58paaiBbRm2t1MgEPIoCmhKQWeuAhbue88X-Pb9kSNvO6aol8pKnIASr9J2pGq4GgSIajAKelISYg1Ie2286DiQdHruHgj558hIbBpKeeHKWWj24a0?></g></svg>