<?plantuml 1.2026.2?><svg xmlns="http://www.w3.org/2000/svg" xmlns:xlink="http://www.w3.org/1999/xlink" contentStyleType="text/css" data-diagram-type="CLASS" height="456.3614px" preserveAspectRatio="none" style="width:450px;height:456px;background:#FFFFFF;" version="1.1" viewBox="0 0 450 456" width="450.3302px" zoomAndPan="magnify"><defs/><g><!--class NPC--><g class="entity" data-qualified-name="NPC" data-source-line="3" id="ent0002"><rect fill="#F1F1F1" height="134.8335" rx="5.026" ry="5.026" style="stroke:#181818;stroke-width:1.0052;" width="116.7117" x="165.3556" y="14.0728"/><ellipse cx="195.5116" cy="46.2393" fill="#A9DCDF" rx="22.1144" ry="22.1144" style="stroke:#181818;stroke-width:2.0104;"/><path d="M185.8052,57.7991 L192.5275,33.2973 L198.8414,33.2973 L205.6265,57.7991 L200.6633,57.7991 L199.1869,51.7365 L192.1191,51.7365 L190.6113,57.7991 L185.8052,57.7991 Z M194.6635,41.6216 L193.1557,47.6528 L198.2131,47.6528 L196.7681,41.6216 Q196.4854,40.4594 196.2341,39.3599 Q195.9828,38.2291 195.7001,37.0668 Q195.4802,38.2291 195.1975,39.3599 Q194.9148,40.4594 194.6635,41.6216 Z " fill="#000000"/><text fill="#000000" font-family="sans-serif" font-size="28.1456" font-style="italic" lengthAdjust="spacing" textLength="52.3788" x="223.6573" y="57.1597">NPC</text><line style="stroke:#181818;stroke-width:1.0052;" x1="167.366" x2="280.0569" y1="78.4057" y2="78.4057"/><text fill="#000000" font-family="sans-serif" font-size="28.1456" lengthAdjust="spacing" textLength="74.3323" x="177.418" y="116.5349">int xp</text><line style="stroke:#181818;stroke-width:1.0052;" x1="167.366" x2="280.0569" y1="132.8231" y2="132.8231"/></g><!--class Unicorn--><g class="entity" data-qualified-name="Unicorn" data-source-line="7" id="ent0003"><rect fill="#F1F1F1" height="134.8335" rx="5.026" ry="5.026" style="stroke:#181818;stroke-width:1.0052;" width="174.0279" x="14.0728" y="307.7323"/><ellipse cx="46.438" cy="339.8988" fill="#ADD1B2" rx="22.1144" ry="22.1144" style="stroke:#181818;stroke-width:2.0104;"/><path d="M45.37,353.8145 Q41.8518,353.8145 39.5587,352.3381 Q37.297,350.8303 36.1661,348.1288 Q35.0667,345.3959 35.0667,341.7835 Q35.0667,337.6999 36.386,334.7785 Q37.7053,331.8571 40.2811,330.2865 Q42.857,328.7159 46.6265,328.7159 Q48.417,328.7159 49.7677,329.0928 Q51.1185,329.4384 52.5006,330.1295 L50.8672,334.1817 Q49.6107,333.5534 48.5112,333.3021 Q47.4432,333.0508 46.4694,333.0508 Q44.1135,333.0508 42.6999,334.1188 Q41.2863,335.1869 40.6895,337.103 Q40.0927,339.0192 40.0927,341.5636 Q40.0927,345.6158 41.5376,347.5634 Q42.9826,349.4796 46.1867,349.4796 Q47.3804,349.4796 48.6369,349.1655 Q49.8934,348.8513 51.5582,348.0974 L51.5582,352.558 Q50.0819,353.1863 48.4798,353.5004 Q46.9092,353.8145 45.37,353.8145 Z " fill="#000000"/><text fill="#000000" font-family="sans-serif" font-size="28.1456" lengthAdjust="spacing" textLength="104.7858" x="75.0746" y="350.8192">Unicorn</text><line style="stroke:#181818;stroke-width:1.0052;" x1="16.0832" x2="186.0903" y1="372.0652" y2="372.0652"/><line style="stroke:#181818;stroke-width:1.0052;" x1="16.0832" x2="186.0903" y1="388.1484" y2="388.1484"/><text fill="#000000" font-family="sans-serif" font-size="28.1456" lengthAdjust="spacing" textLength="149.9031" x="26.1352" y="426.2776">void sleep()</text></g><!--class Butterfly--><g class="entity" data-qualified-name="Butterfly" data-source-line="11" id="ent0004"><rect fill="#F1F1F1" height="96.4993" rx="5.026" ry="5.026" style="stroke:#181818;stroke-width:1.0052;" width="179.1385" x="258.7991" y="326.9116"/><ellipse cx="288.9552" cy="359.078" fill="#ADD1B2" rx="22.1144" ry="22.1144" style="stroke:#181818;stroke-width:2.0104;"/><path d="M287.8871,372.9937 Q284.3689,372.9937 282.0758,371.5174 Q279.8141,370.0096 278.6833,367.3081 Q277.5838,364.5752 277.5838,360.9627 Q277.5838,356.8791 278.9031,353.9577 Q280.2225,351.0364 282.7983,349.4658 Q285.3741,347.8951 289.1436,347.8951 Q290.9341,347.8951 292.2849,348.2721 Q293.6356,348.6176 295.0178,349.3087 L293.3843,353.3609 Q292.1278,352.7327 291.0284,352.4814 Q289.9604,352.2301 288.9866,352.2301 Q286.6306,352.2301 285.2171,353.2981 Q283.8035,354.3661 283.2067,356.2823 Q282.6098,358.1984 282.6098,360.7429 Q282.6098,364.7951 284.0548,366.7427 Q285.4998,368.6588 288.7039,368.6588 Q289.8975,368.6588 291.154,368.3447 Q292.4105,368.0306 294.0754,367.2767 L294.0754,371.7372 Q292.599,372.3655 290.997,372.6796 Q289.4263,372.9937 287.8871,372.9937 Z " fill="#000000"/><text fill="#000000" font-family="sans-serif" font-size="28.1456" lengthAdjust="spacing" textLength="114.8056" x="317.1008" y="369.9984">Butterfly</text><line style="stroke:#181818;stroke-width:1.0052;" x1="260.8095" x2="435.9272" y1="391.2444" y2="391.2444"/><line style="stroke:#181818;stroke-width:1.0052;" x1="260.8095" x2="435.9272" y1="407.3277" y2="407.3277"/></g><!--reverse link NPC to Unicorn--><g class="link" data-entity-1="ent0002" data-entity-2="ent0003" data-link-type="extension" data-source-line="14" id="lnk5"><path codeLine="14" d="M173.2784,181.8409 C163.7893,200.9397 169.879,189.5407 161.3951,209.2226 C147.7244,240.9869 134.2748,276.953 123.5593,307.1091" fill="none" id="NPC-backto-Unicorn" style="stroke:#181818;stroke-width:2.0104;"/><polygon fill="none" points="189.3799,149.4332,162.4758,176.4737,184.081,187.2081,189.3799,149.4332" style="stroke:#181818;stroke-width:2.0104;"/><text fill="#000000" font-family="sans-serif" font-size="26.1352" lengthAdjust="spacing" textLength="97.4845" x="163.4055" y="239.1716">extends</text></g><!--reverse link NPC to Butterfly--><g class="link" data-entity-1="ent0002" data-entity-2="ent0004" data-link-type="extension" data-source-line="15" id="lnk6"><path codeLine="15" d="M266.3125,182.4705 C289.5929,236.5503 307.6921,278.6016 328.3389,326.61" fill="none" id="NPC-backto-Butterfly" style="stroke:#181818;stroke-width:2.0104;"/><polygon fill="none" points="252.004,149.2322,255.2331,187.24,277.3919,177.7009,252.004,149.2322" style="stroke:#181818;stroke-width:2.0104;"/><text fill="#000000" font-family="sans-serif" font-size="26.1352" lengthAdjust="spacing" textLength="97.4845" x="295.5091" y="239.1716">extends</text></g><?plantuml-src AqvEp4bLC34rK2ZFJ2d9uE9AJ2ekAKfCBb58paaiBbRm2t1MgEPIoCmhKQWeuAhbue88X-Pb9kSNvO6aol8pKnIASr9J2pGq4GgSIajAKelISYg1Ie2286DiQdHruHgj558hIbBpKeeHKWWj24a0?></g></svg>