<?plantuml 1.2026.2?><svg xmlns="http://www.w3.org/2000/svg" xmlns:xlink="http://www.w3.org/1999/xlink" contentStyleType="text/css" data-diagram-type="CLASS" height="494.559px" preserveAspectRatio="none" style="width:450px;height:494px;background:#FFFFFF;" version="1.1" viewBox="0 0 450 494" width="450.3302px" zoomAndPan="magnify"><defs/><g><!--class NPC--><g class="entity" data-qualified-name="NPC" data-source-line="3" id="ent0002"><rect fill="#F1F1F1" height="173.1677" rx="5.026" ry="5.026" style="stroke:#181818;stroke-width:1.0052;" width="174.0279" x="136.7074" y="14.0728"/><ellipse cx="192.6557" cy="46.2393" fill="#A9DCDF" rx="22.1144" ry="22.1144" style="stroke:#181818;stroke-width:2.0104;"/><path d="M182.9492,57.7991 L189.6715,33.2973 L195.9854,33.2973 L202.7705,57.7991 L197.8073,57.7991 L196.3309,51.7365 L189.2631,51.7365 L187.7553,57.7991 L182.9492,57.7991 Z M191.8075,41.6216 L190.2997,47.6528 L195.3572,47.6528 L193.9122,41.6216 Q193.6295,40.4594 193.3782,39.3599 Q193.1269,38.2291 192.8442,37.0668 Q192.6243,38.2291 192.3416,39.3599 Q192.0588,40.4594 191.8075,41.6216 Z " fill="#000000"/><text fill="#000000" font-family="sans-serif" font-size="28.1456" font-style="italic" lengthAdjust="spacing" textLength="52.3788" x="226.5329" y="57.1597">NPC</text><line style="stroke:#181818;stroke-width:1.0052;" x1="138.7178" x2="308.7249" y1="78.4057" y2="78.4057"/><text fill="#000000" font-family="sans-serif" font-size="28.1456" lengthAdjust="spacing" textLength="74.3323" x="148.7698" y="116.5349">int xp</text><line style="stroke:#181818;stroke-width:1.0052;" x1="138.7178" x2="308.7249" y1="132.8231" y2="132.8231"/><text fill="#000000" font-family="sans-serif" font-size="28.1456" lengthAdjust="spacing" textLength="149.9031" x="148.7698" y="170.9523">void sleep()</text></g><!--class Unicorn--><g class="entity" data-qualified-name="Unicorn" data-source-line="8" id="ent0003"><rect fill="#F1F1F1" height="134.8335" rx="5.026" ry="5.026" style="stroke:#181818;stroke-width:1.0052;" width="174.0279" x="14.0728" y="346.0506"/><ellipse cx="46.438" cy="378.217" fill="#ADD1B2" rx="22.1144" ry="22.1144" style="stroke:#181818;stroke-width:2.0104;"/><path d="M45.37,392.1328 Q41.8518,392.1328 39.5587,390.6564 Q37.297,389.1486 36.1661,386.4471 Q35.0667,383.7142 35.0667,380.1018 Q35.0667,376.0181 36.386,373.0968 Q37.7053,370.1754 40.2811,368.6048 Q42.857,367.0342 46.6265,367.0342 Q48.417,367.0342 49.7677,367.4111 Q51.1185,367.7566 52.5006,368.4477 L50.8672,372.4999 Q49.6107,371.8717 48.5112,371.6204 Q47.4432,371.3691 46.4694,371.3691 Q44.1135,371.3691 42.6999,372.4371 Q41.2863,373.5051 40.6895,375.4213 Q40.0927,377.3375 40.0927,379.8819 Q40.0927,383.9341 41.5376,385.8817 Q42.9826,387.7978 46.1867,387.7978 Q47.3804,387.7978 48.6369,387.4837 Q49.8934,387.1696 51.5582,386.4157 L51.5582,390.8763 Q50.0819,391.5045 48.4798,391.8187 Q46.9092,392.1328 45.37,392.1328 Z " fill="#000000"/><text fill="#000000" font-family="sans-serif" font-size="28.1456" lengthAdjust="spacing" textLength="104.7858" x="75.0746" y="389.1375">Unicorn</text><line style="stroke:#181818;stroke-width:1.0052;" x1="16.0832" x2="186.0903" y1="410.3835" y2="410.3835"/><line style="stroke:#181818;stroke-width:1.0052;" x1="16.0832" x2="186.0903" y1="426.4667" y2="426.4667"/><text fill="#000000" font-family="sans-serif" font-size="28.1456" lengthAdjust="spacing" textLength="149.9031" x="26.1352" y="464.5958">void sleep()</text></g><!--class Butterfly--><g class="entity" data-qualified-name="Butterfly" data-source-line="12" id="ent0004"><rect fill="#F1F1F1" height="96.4993" rx="5.026" ry="5.026" style="stroke:#181818;stroke-width:1.0052;" width="179.1385" x="258.7991" y="365.2298"/><ellipse cx="288.9552" cy="397.3963" fill="#ADD1B2" rx="22.1144" ry="22.1144" style="stroke:#181818;stroke-width:2.0104;"/><path d="M287.8871,411.312 Q284.3689,411.312 282.0758,409.8356 Q279.8141,408.3278 278.6833,405.6263 Q277.5838,402.8935 277.5838,399.281 Q277.5838,395.1974 278.9031,392.276 Q280.2225,389.3547 282.7983,387.784 Q285.3741,386.2134 289.1436,386.2134 Q290.9341,386.2134 292.2849,386.5903 Q293.6356,386.9359 295.0178,387.627 L293.3843,391.6792 Q292.1278,391.0509 291.0284,390.7996 Q289.9604,390.5483 288.9866,390.5483 Q286.6306,390.5483 285.2171,391.6164 Q283.8035,392.6844 283.2067,394.6005 Q282.6098,396.5167 282.6098,399.0611 Q282.6098,403.1133 284.0548,405.0609 Q285.4998,406.9771 288.7039,406.9771 Q289.8975,406.9771 291.154,406.663 Q292.4105,406.3488 294.0754,405.5949 L294.0754,410.0555 Q292.599,410.6838 290.997,410.9979 Q289.4263,411.312 287.8871,411.312 Z " fill="#000000"/><text fill="#000000" font-family="sans-serif" font-size="28.1456" lengthAdjust="spacing" textLength="114.8056" x="317.1008" y="408.3167">Butterfly</text><line style="stroke:#181818;stroke-width:1.0052;" x1="260.8095" x2="435.9272" y1="429.5627" y2="429.5627"/><line style="stroke:#181818;stroke-width:1.0052;" x1="260.8095" x2="435.9272" y1="445.6459" y2="445.6459"/></g><!--reverse link NPC to Unicorn--><g class="link" data-entity-1="ent0002" data-entity-2="ent0003" data-link-type="extension" data-source-line="15" id="lnk5"><path codeLine="15" d="M171.8293,221.4327 C163.5264,240.8733 169.1151,228.2209 161.3951,247.5409 C148.5888,279.647 135.2398,315.6734 124.3434,345.749" fill="none" id="NPC-backto-Unicorn" style="stroke:#181818;stroke-width:2.0104;"/><polygon fill="none" points="186.0426,188.1536,160.7363,216.6949,182.9224,226.1704,186.0426,188.1536" style="stroke:#181818;stroke-width:2.0104;"/><text fill="#000000" font-family="sans-serif" font-size="26.1352" lengthAdjust="spacing" textLength="97.4845" x="163.4055" y="277.4899">extends</text></g><!--reverse link NPC to Butterfly--><g class="link" data-entity-1="ent0002" data-entity-2="ent0004" data-link-type="extension" data-source-line="16" id="lnk6"><path codeLine="16" d="M271.6589,221.4093 C294.7183,278.545 310.6675,318.0457 329.5452,364.8076" fill="none" id="NPC-backto-Butterfly" style="stroke:#181818;stroke-width:2.0104;"/><polygon fill="none" points="258.1156,187.852,260.4732,225.9238,282.8447,216.8949,258.1156,187.852" style="stroke:#181818;stroke-width:2.0104;"/><text fill="#000000" font-family="sans-serif" font-size="26.1352" lengthAdjust="spacing" textLength="97.4845" x="299.2283" y="277.4899">extends</text></g><?plantuml-src AqvEp4bLC34rK2ZFJ2d9uE9AJ2ekAKfCBb58paaiBbRm2t1MgEPIoCmhKQWeu58eoyzCKIZEIKqjqD3agkNYWYWApSjCpY_A0od4hi2fjAGajIWjfnAe12W8CjIcHbSNhj5A8RMY93KlfHWXXT22a0G0?></g></svg>