<?plantuml 1.2026.2?><svg xmlns="http://www.w3.org/2000/svg" xmlns:xlink="http://www.w3.org/1999/xlink" contentStyleType="text/css" data-diagram-type="CLASS" height="409.7181px" preserveAspectRatio="none" style="width:400px;height:409px;background:#FFFFFF;" version="1.1" viewBox="0 0 400 409" width="400.6935px" zoomAndPan="magnify"><defs/><g><!--class NPC--><g class="entity" data-qualified-name="NPC" data-source-line="3" id="ent0002"><rect fill="#F1F1F1" height="155.4688" rx="4.5123" ry="4.5123" style="stroke:#181818;stroke-width:0.9025;" width="283.0149" x="57.1439" y="12.6345"/><ellipse cx="167.4678" cy="41.5133" fill="#A9DCDF" rx="19.8542" ry="19.8542" style="stroke:#181818;stroke-width:1.8049;"/><path d="M158.7534,51.8916 L164.7886,29.8941 L170.4572,29.8941 L176.5488,51.8916 L172.0929,51.8916 L170.7674,46.4486 L164.422,46.4486 L163.0683,51.8916 L158.7534,51.8916 Z M166.7063,37.3676 L165.3526,42.7824 L169.8932,42.7824 L168.5959,37.3676 Q168.342,36.3241 168.1164,35.3371 Q167.8908,34.3218 167.637,33.2783 Q167.4396,34.3218 167.1858,35.3371 Q166.9319,36.3241 166.7063,37.3676 Z " fill="#000000"/><text fill="#000000" font-family="sans-serif" font-size="25.269" font-style="italic" lengthAdjust="spacing" textLength="47.0254" x="204.4688" y="51.3176">NPC</text><line style="stroke:#181818;stroke-width:0.9025;" x1="58.9489" x2="338.3539" y1="70.3921" y2="70.3921"/><text fill="#000000" font-family="sans-serif" font-size="25.269" lengthAdjust="spacing" textLength="66.7351" x="67.9735" y="104.6242">int xp</text><text fill="#000000" font-family="sans-serif" font-size="25.269" lengthAdjust="spacing" textLength="261.3558" x="67.9735" y="139.0404">List&lt;NPC&gt; encounters</text><line style="stroke:#181818;stroke-width:0.9025;" x1="58.9489" x2="338.3539" y1="153.6639" y2="153.6639"/></g><!--class Unicorn--><g class="entity" data-qualified-name="Unicorn" data-source-line="8" id="ent0003"><rect fill="#F1F1F1" height="86.6364" rx="4.5123" ry="4.5123" style="stroke:#181818;stroke-width:0.9025;" width="151.8336" x="12.6345" y="310.6999"/><ellipse cx="39.7084" cy="339.5787" fill="#ADD1B2" rx="19.8542" ry="19.8542" style="stroke:#181818;stroke-width:1.8049;"/><path d="M38.7495,352.0722 Q35.5909,352.0722 33.5321,350.7467 Q31.5016,349.393 30.4863,346.9676 Q29.4993,344.5141 29.4993,341.2708 Q29.4993,337.6046 30.6837,334.9818 Q31.8682,332.359 34.1808,330.9489 Q36.4933,329.5388 39.8776,329.5388 Q41.4851,329.5388 42.6978,329.8772 Q43.9105,330.1875 45.1513,330.8079 L43.6848,334.446 Q42.5568,333.8819 41.5697,333.6563 Q40.6108,333.4307 39.7366,333.4307 Q37.6214,333.4307 36.3523,334.3896 Q35.0832,335.3484 34.5474,337.0687 Q34.0116,338.7891 34.0116,341.0734 Q34.0116,344.7115 35.3089,346.46 Q36.6061,348.1803 39.4827,348.1803 Q40.5544,348.1803 41.6825,347.8983 Q42.8106,347.6163 44.3053,346.9394 L44.3053,350.9441 Q42.9798,351.5081 41.5415,351.7902 Q40.1314,352.0722 38.7495,352.0722 Z " fill="#000000"/><text fill="#000000" font-family="sans-serif" font-size="25.269" lengthAdjust="spacing" textLength="94.076" x="64.9773" y="349.383">Unicorn</text><line style="stroke:#181818;stroke-width:0.9025;" x1="14.4394" x2="162.6631" y1="368.4575" y2="368.4575"/><line style="stroke:#181818;stroke-width:0.9025;" x1="14.4394" x2="162.6631" y1="382.8969" y2="382.8969"/></g><!--class Butterfly--><g class="entity" data-qualified-name="Butterfly" data-source-line="11" id="ent0004"><rect fill="#F1F1F1" height="86.6364" rx="4.5123" ry="4.5123" style="stroke:#181818;stroke-width:0.9025;" width="160.8293" x="228.3411" y="310.6999"/><ellipse cx="255.415" cy="339.5787" fill="#ADD1B2" rx="19.8542" ry="19.8542" style="stroke:#181818;stroke-width:1.8049;"/><path d="M254.4562,352.0722 Q251.2975,352.0722 249.2388,350.7467 Q247.2083,349.393 246.193,346.9676 Q245.2059,344.5141 245.2059,341.2708 Q245.2059,337.6046 246.3904,334.9818 Q247.5749,332.359 249.8874,330.9489 Q252.2,329.5388 255.5842,329.5388 Q257.1918,329.5388 258.4044,329.8772 Q259.6171,330.1875 260.858,330.8079 L259.3915,334.446 Q258.2634,333.8819 257.2764,333.6563 Q256.3175,333.4307 255.4432,333.4307 Q253.3281,333.4307 252.059,334.3896 Q250.7899,335.3484 250.2541,337.0687 Q249.7182,338.7891 249.7182,341.0734 Q249.7182,344.7115 251.0155,346.46 Q252.3128,348.1803 255.1894,348.1803 Q256.2611,348.1803 257.3892,347.8983 Q258.5172,347.6163 260.012,346.9394 L260.012,350.9441 Q258.6865,351.5081 257.2482,351.7902 Q255.8381,352.0722 254.4562,352.0722 Z " fill="#000000"/><text fill="#000000" font-family="sans-serif" font-size="25.269" lengthAdjust="spacing" textLength="103.0717" x="280.684" y="349.383">Butterfly</text><line style="stroke:#181818;stroke-width:0.9025;" x1="230.1461" x2="387.3655" y1="368.4575" y2="368.4575"/><line style="stroke:#181818;stroke-width:0.9025;" x1="230.1461" x2="387.3655" y1="382.8969" y2="382.8969"/></g><!--reverse link NPC to Unicorn--><g class="link" data-entity-1="ent0002" data-entity-2="ent0003" data-link-type="extension" data-source-line="14" id="lnk5"><path codeLine="14" d="M151.1498,198.0346 C143.3344,215.6868 148.3107,204.7327 140.8925,222.2585 C128.5649,251.372 115.2626,284.4382 105.155,309.9238" fill="none" id="NPC-backto-Unicorn" style="stroke:#181818;stroke-width:1.8049;"/><polygon fill="none" points="164.3024,168.3274,141.2474,193.6504,161.0522,202.4188,164.3024,168.3274" style="stroke:#181818;stroke-width:1.8049;"/><text fill="#000000" font-family="sans-serif" font-size="23.464" lengthAdjust="spacing" textLength="87.5209" x="142.6974" y="249.1465">extends</text></g><!--reverse link NPC to Butterfly--><g class="link" data-entity-1="ent0002" data-entity-2="ent0004" data-link-type="extension" data-source-line="15" id="lnk6"><path codeLine="15" d="M243.7595,198.7109 C263.3069,244.8448 274.7638,271.9301 290.8999,310.0321" fill="none" id="NPC-backto-Butterfly" style="stroke:#181818;stroke-width:1.8049;"/><polygon fill="none" points="231.0846,168.7966,233.7881,202.9358,253.731,194.4859,231.0846,168.7966" style="stroke:#181818;stroke-width:1.8049;"/><text fill="#000000" font-family="sans-serif" font-size="23.464" lengthAdjust="spacing" textLength="87.5209" x="268.609" y="249.1465">extends</text></g><?plantuml-src HOmn2i9044NxESM_G225bGGBquhOU81rCfA5PI8x4uoeTtSba6tVV-yRXoJOjIsUSV2HADpCSs07fs26ywN7cn3LiJm8fsZU5NQ0A4-pkcIZBz4gNpNobBK46phENfnxUgtmVzTzccPJzv35HGUhKqtg-0C0?></g></svg>