<?plantuml 1.2026.2?><svg xmlns="http://www.w3.org/2000/svg" xmlns:xlink="http://www.w3.org/1999/xlink" contentStyleType="text/css" data-diagram-type="CLASS" height="349.8346px" preserveAspectRatio="none" style="width:201px;height:349px;background:#FFFFFF;" version="1.1" viewBox="0 0 201 349" width="201.7564px" zoomAndPan="magnify"><defs/><g><!--class I--><g class="entity" data-qualified-name="I" data-source-line="3" id="ent0002"><rect fill="#F1F1F1" height="88.8469" rx="4.6274" ry="4.6274" style="stroke:#181818;stroke-width:0.9255;" width="67.6272" x="16.9549" y="12.9568"/><ellipse cx="44.7196" cy="42.5725" fill="#B4A7E5" rx="20.3607" ry="20.3607" style="stroke:#181818;stroke-width:1.851;"/><path d="M37.3735,54.6038 L37.3735,51.4514 L41.7407,50.9597 L41.7407,35.7759 L37.3735,35.2842 L37.3735,32.1318 L50.5907,32.1318 L50.5907,35.2842 L46.1078,35.7759 L46.1078,50.9597 L50.5907,51.4514 L50.5907,54.6038 L37.3735,54.6038 Z " fill="#000000"/><text fill="#000000" font-family="sans-serif" font-size="25.9137" font-style="italic" lengthAdjust="spacing" textLength="8.396" x="70.6333" y="52.6269">I</text><line style="stroke:#181818;stroke-width:0.9255;" x1="18.8059" x2="82.7312" y1="72.1881" y2="72.1881"/><line style="stroke:#181818;stroke-width:0.9255;" x1="18.8059" x2="82.7312" y1="86.9959" y2="86.9959"/></g><!--class C--><g class="entity" data-qualified-name="C" data-source-line="6" id="ent0003"><rect fill="#F1F1F1" height="88.8469" rx="4.6274" ry="4.6274" style="stroke:#181818;stroke-width:0.9255;" width="75.6086" x="12.9568" y="248.0309"/><ellipse cx="40.7215" cy="277.6465" fill="#ADD1B2" rx="20.3607" ry="20.3607" style="stroke:#181818;stroke-width:1.851;"/><path d="M39.7382,290.4587 Q36.4989,290.4587 34.3877,289.0994 Q32.3053,287.7112 31.2642,285.2239 Q30.2519,282.7077 30.2519,279.3818 Q30.2519,275.622 31.4666,272.9323 Q32.6813,270.2426 35.0529,268.7965 Q37.4244,267.3504 40.895,267.3504 Q42.5435,267.3504 43.7872,267.6975 Q45.0308,268.0156 46.3033,268.6519 L44.7994,272.3828 Q43.6426,271.8043 42.6303,271.573 Q41.647,271.3416 40.7504,271.3416 Q38.5813,271.3416 37.2798,272.3249 Q35.9784,273.3083 35.4288,275.0725 Q34.8793,276.8367 34.8793,279.1793 Q34.8793,282.9102 36.2097,284.7033 Q37.5401,286.4675 40.4901,286.4675 Q41.5891,286.4675 42.746,286.1783 Q43.9028,285.8891 45.4357,285.195 L45.4357,289.3018 Q44.0764,289.8803 42.6014,290.1695 Q41.1553,290.4587 39.7382,290.4587 Z " fill="#000000"/><text fill="#000000" font-family="sans-serif" font-size="25.9137" lengthAdjust="spacing" textLength="16.3774" x="66.6352" y="287.7009">C</text><line style="stroke:#181818;stroke-width:0.9255;" x1="14.8078" x2="86.7145" y1="307.2621" y2="307.2621"/><line style="stroke:#181818;stroke-width:0.9255;" x1="14.8078" x2="86.7145" y1="322.0699" y2="322.0699"/></g><!--reverse link I to C--><g class="link" data-entity-1="ent0002" data-entity-2="ent0003" data-link-type="dependency" data-source-line="9" id="lnk4"><path codeLine="9" d="M50.7538,113.3168 C50.7538,154.8712 50.7538,206.3839 50.7538,247.8643" fill="none" id="I-backto-C" style="stroke:#181818;stroke-width:1.851;"/><polygon fill="#181818" points="50.7538,102.2109,43.3499,118.8697,50.7538,111.4658,58.1577,118.8697,50.7538,102.2109" style="stroke:#181818;stroke-width:1.851;"/><text fill="#000000" font-family="sans-serif" font-size="24.0627" lengthAdjust="spacing" textLength="134.4384" x="52.6048" y="184.907">implements</text></g><?plantuml-src AqvEp4bLC38mK2ZFJ2d9uEBAp2j9BKfBJ4vLy5IevghbuahEIImkLd26S3mLR7HrWHmhXSpSWfpKtDIyac8k0000?></g></svg>