<?plantuml 1.2026.2?><svg xmlns="http://www.w3.org/2000/svg" xmlns:xlink="http://www.w3.org/1999/xlink" contentStyleType="text/css" data-diagram-type="CLASS" height="360.8942px" preserveAspectRatio="none" style="width:301px;height:360px;background:#FFFFFF;" version="1.1" viewBox="0 0 301 360" width="301.6999px" zoomAndPan="magnify"><defs/><g><!--class I--><g class="entity" data-qualified-name="I" data-source-line="3" id="ent0002"><rect fill="#F1F1F1" height="91.6557" rx="4.7737" ry="4.7737" style="stroke:#181818;stroke-width:0.9547;" width="69.7652" x="109.127" y="255.8721"/><ellipse cx="137.7694" cy="286.424" fill="#B4A7E5" rx="21.0044" ry="21.0044" style="stroke:#181818;stroke-width:1.9095;"/><path d="M130.1911,298.8357 L130.1911,295.5836 L134.6963,295.0763 L134.6963,279.4125 L130.1911,278.9053 L130.1911,275.6532 L143.8261,275.6532 L143.8261,278.9053 L139.2015,279.4125 L139.2015,295.0763 L143.8261,295.5836 L143.8261,298.8357 L130.1911,298.8357 Z " fill="#000000"/><text fill="#000000" font-family="sans-serif" font-size="26.7329" font-style="italic" lengthAdjust="spacing" textLength="8.6614" x="164.5023" y="296.7963">I</text><line style="stroke:#181818;stroke-width:0.9547;" x1="111.0365" x2="176.9827" y1="316.9758" y2="316.9758"/><line style="stroke:#181818;stroke-width:0.9547;" x1="111.0365" x2="176.9827" y1="332.2518" y2="332.2518"/></g><!--class J--><g class="entity" data-qualified-name="J" data-source-line="6" id="ent0003"><rect fill="#F1F1F1" height="91.6557" rx="4.7737" ry="4.7737" style="stroke:#181818;stroke-width:0.9547;" width="68.4018" x="23.8872" y="13.3665"/><ellipse cx="52.5296" cy="43.9183" fill="#B4A7E5" rx="21.0044" ry="21.0044" style="stroke:#181818;stroke-width:1.9095;"/><path d="M44.9513,56.33 L44.9513,53.0779 L49.4565,52.5707 L49.4565,36.9069 L44.9513,36.3997 L44.9513,33.1476 L58.5863,33.1476 L58.5863,36.3997 L53.9618,36.9069 L53.9618,52.5707 L58.5863,53.0779 L58.5863,56.33 L44.9513,56.33 Z " fill="#000000"/><text fill="#000000" font-family="sans-serif" font-size="26.7329" font-style="italic" lengthAdjust="spacing" textLength="7.2981" x="79.2625" y="54.2907">J</text><line style="stroke:#181818;stroke-width:0.9547;" x1="25.7967" x2="90.3796" y1="74.4702" y2="74.4702"/><line style="stroke:#181818;stroke-width:0.9547;" x1="25.7967" x2="90.3796" y1="89.7462" y2="89.7462"/></g><!--class K--><g class="entity" data-qualified-name="K" data-source-line="9" id="ent0004"><rect fill="#F1F1F1" height="91.6557" rx="4.7737" ry="4.7737" style="stroke:#181818;stroke-width:0.9547;" width="76.1276" x="191.8844" y="13.3665"/><ellipse cx="220.5268" cy="43.9183" fill="#B4A7E5" rx="21.0044" ry="21.0044" style="stroke:#181818;stroke-width:1.9095;"/><path d="M212.9485,56.33 L212.9485,53.0779 L217.4537,52.5707 L217.4537,36.9069 L212.9485,36.3997 L212.9485,33.1476 L226.5835,33.1476 L226.5835,36.3997 L221.959,36.9069 L221.959,52.5707 L226.5835,53.0779 L226.5835,56.33 L212.9485,56.33 Z " fill="#000000"/><text fill="#000000" font-family="sans-serif" font-size="26.7329" font-style="italic" lengthAdjust="spacing" textLength="15.0238" x="247.2597" y="54.2907">K</text><line style="stroke:#181818;stroke-width:0.9547;" x1="193.7939" x2="266.1025" y1="74.4702" y2="74.4702"/><line style="stroke:#181818;stroke-width:0.9547;" x1="193.7939" x2="266.1025" y1="89.7462" y2="89.7462"/></g><!--reverse link J to I--><g class="link" data-entity-1="ent0003" data-entity-2="ent0002" data-link-type="extension" data-source-line="12" id="lnk5"><path codeLine="12" d="M41.8605,139.8454 C37.3732,167.4566 41.0154,169.162 52.3578,198.5873 C63.6238,227.7834 87.6261,253.7716 108.2486,272.1028" fill="none" id="J-backto-I" style="stroke:#181818;stroke-width:1.9095;stroke-dasharray:13.3665,13.3665;"/><polygon fill="none" points="47.374,105.9196,30.5519,138.0075,53.1691,141.6832,47.374,105.9196" style="stroke:#181818;stroke-width:1.9095;"/><text fill="#000000" font-family="sans-serif" font-size="24.8234" lengthAdjust="spacing" textLength="92.5914" x="54.2673" y="190.7526">extends</text></g><!--reverse link K to I--><g class="link" data-entity-1="ent0004" data-entity-2="ent0002" data-link-type="extension" data-source-line="13" id="lnk6"><path codeLine="13" d="M202.3377,137.7822 C186.909,180.6504 175.2909,212.9085 159.8813,255.7002" fill="none" id="K-backto-I" style="stroke:#181818;stroke-width:1.9095;stroke-dasharray:13.3665,13.3665;"/><polygon fill="none" points="213.9773,105.4422,191.5577,133.9024,213.1178,141.6621,213.9773,105.4422" style="stroke:#181818;stroke-width:1.9095;"/><text fill="#000000" font-family="sans-serif" font-size="24.8234" lengthAdjust="spacing" textLength="92.5914" x="194.0422" y="190.7526">extends</text></g><?plantuml-src AqvEp4bLC3OmK2ZFJ2d9uEBAp2j9BKfBJ4vLy5Ievgf55l125_2627WfsDJewG7LMocaLfIavgKKStbZ2W40?></g></svg>