<?plantuml 1.2026.2?><svg xmlns="http://www.w3.org/2000/svg" xmlns:xlink="http://www.w3.org/1999/xlink" contentStyleType="text/css" data-diagram-type="CLASS" height="346.7464px" preserveAspectRatio="none" style="width:150px;height:346px;background:#FFFFFF;" version="1.1" viewBox="0 0 150 346" width="150.4402px" zoomAndPan="magnify"><defs/><g><!--class I--><g class="entity" data-qualified-name="I" data-source-line="3" id="ent0002"><rect fill="#F1F1F1" height="88.0626" rx="4.5866" ry="4.5866" style="stroke:#181818;stroke-width:0.9173;" width="67.0303" x="12.8425" y="245.8414"/><ellipse cx="40.362" cy="275.1956" fill="#B4A7E5" rx="20.181" ry="20.181" style="stroke:#181818;stroke-width:1.8346;"/><path d="M33.0808,287.1207 L33.0808,283.9961 L37.4094,283.5088 L37.4094,268.459 L33.0808,267.9717 L33.0808,264.8471 L46.1813,264.8471 L46.1813,267.9717 L41.738,268.459 L41.738,283.5088 L46.1813,283.9961 L46.1813,287.1207 L33.0808,287.1207 Z " fill="#000000"/><text fill="#000000" font-family="sans-serif" font-size="25.6849" font-style="italic" lengthAdjust="spacing" textLength="8.3219" x="66.0469" y="285.1613">I</text><line style="stroke:#181818;stroke-width:0.9173;" x1="14.6771" x2="78.0381" y1="304.5498" y2="304.5498"/><line style="stroke:#181818;stroke-width:0.9173;" x1="14.6771" x2="78.0381" y1="319.2269" y2="319.2269"/></g><!--class J--><g class="entity" data-qualified-name="J" data-source-line="6" id="ent0003"><rect fill="#F1F1F1" height="88.0626" rx="4.5866" ry="4.5866" style="stroke:#181818;stroke-width:0.9173;" width="65.7204" x="13.5029" y="12.8425"/><ellipse cx="41.0225" cy="42.1967" fill="#B4A7E5" rx="20.181" ry="20.181" style="stroke:#181818;stroke-width:1.8346;"/><path d="M33.7413,54.1218 L33.7413,50.9972 L38.0699,50.5099 L38.0699,35.4601 L33.7413,34.9728 L33.7413,31.8482 L46.8417,31.8482 L46.8417,34.9728 L42.3985,35.4601 L42.3985,50.5099 L46.8417,50.9972 L46.8417,54.1218 L33.7413,54.1218 Z " fill="#000000"/><text fill="#000000" font-family="sans-serif" font-size="25.6849" font-style="italic" lengthAdjust="spacing" textLength="7.012" x="66.7074" y="52.1624">J</text><line style="stroke:#181818;stroke-width:0.9173;" x1="15.3376" x2="77.3886" y1="71.5508" y2="71.5508"/><line style="stroke:#181818;stroke-width:0.9173;" x1="15.3376" x2="77.3886" y1="86.2279" y2="86.2279"/></g><!--reverse link J to I--><g class="link" data-entity-1="ent0003" data-entity-2="ent0002" data-link-type="extension" data-source-line="9" id="lnk4"><path codeLine="9" d="M46.3613,134.3321 C46.3613,175.5197 46.3613,204.562 46.3613,245.6763" fill="none" id="J-backto-I" style="stroke:#181818;stroke-width:1.8346;stroke-dasharray:12.8425,12.8425;"/><polygon fill="none" points="46.3613,101.3087,35.3535,134.3321,57.3691,134.3321,46.3613,101.3087" style="stroke:#181818;stroke-width:1.8346;"/><text fill="#000000" font-family="sans-serif" font-size="23.8503" lengthAdjust="spacing" textLength="88.9616" x="48.1959" y="183.2748">extends</text></g><?plantuml-src AqvEp4bLC3GrK2ZFJ2d9uEBAp2j9BKfBJ4vLy5Ievgf55l2227WfsDJewG6bhHHIAqfIyrAAkG00?></g></svg>