<?plantuml 1.2026.2?><svg xmlns="http://www.w3.org/2000/svg" xmlns:xlink="http://www.w3.org/1999/xlink" contentStyleType="text/css" data-diagram-type="CLASS" height="868.4487px" preserveAspectRatio="none" style="width:500px;height:868px;background:#FFFFFF;" version="1.1" viewBox="0 0 500 868" width="500.4073px" zoomAndPan="magnify"><defs/><g><!--class NPC--><g class="entity" data-qualified-name="NPC" data-source-line="3" id="ent0002"><rect fill="#F1F1F1" height="139.0419" rx="4.0355" ry="4.0355" style="stroke:#181818;stroke-width:0.8071;" width="139.7326" x="198.3066" y="11.2995"/><ellipse cx="243.2293" cy="37.127" fill="#B4A7E5" rx="17.7564" ry="17.7564" style="stroke:#181818;stroke-width:1.6142;"/><path d="M236.8228,47.6194 L236.8228,44.8702 L240.6314,44.4414 L240.6314,31.1998 L236.8228,30.771 L236.8228,28.0218 L248.3494,28.0218 L248.3494,30.771 L244.4399,31.1998 L244.4399,44.4414 L248.3494,44.8702 L248.3494,47.6194 L236.8228,47.6194 Z " fill="#000000"/><text fill="#000000" font-family="sans-serif" font-size="22.599" font-style="italic" lengthAdjust="spacing" textLength="42.0567" x="270.4304" y="45.8954">NPC</text><line style="stroke:#181818;stroke-width:0.8071;" x1="199.9208" x2="336.4249" y1="62.9545" y2="62.9545"/><line style="stroke:#181818;stroke-width:0.8071;" x1="199.9208" x2="336.4249" y1="75.8682" y2="75.8682"/><text fill="#000000" font-family="sans-serif" font-size="22.599" lengthAdjust="spacing" textLength="118.8705" x="207.9919" y="106.4833">void learn()</text><text fill="#000000" font-family="sans-serif" font-size="22.599" lengthAdjust="spacing" textLength="120.362" x="207.9919" y="137.2631">void sleep()</text></g><!--class MobileNPC--><g class="entity" data-qualified-name="MobileNPC" data-source-line="8" id="ent0003"><rect fill="#F1F1F1" height="108.2622" rx="4.0355" ry="4.0355" style="stroke:#181818;stroke-width:0.8071;" width="245.7895" x="11.2995" y="277.8713"/><ellipse cx="73.4596" cy="303.6988" fill="#B4A7E5" rx="17.7564" ry="17.7564" style="stroke:#181818;stroke-width:1.6142;"/><path d="M67.0531,314.1912 L67.0531,311.442 L70.8617,311.0132 L70.8617,297.7716 L67.0531,297.3428 L67.0531,294.5936 L78.5797,294.5936 L78.5797,297.3428 L74.6702,297.7716 L74.6702,311.0132 L78.5797,311.442 L78.5797,314.1912 L67.0531,314.1912 Z " fill="#000000"/><text fill="#000000" font-family="sans-serif" font-size="22.599" font-style="italic" lengthAdjust="spacing" textLength="109.8083" x="104.4912" y="312.4672">MobileNPC</text><line style="stroke:#181818;stroke-width:0.8071;" x1="12.9137" x2="255.4748" y1="329.5263" y2="329.5263"/><line style="stroke:#181818;stroke-width:0.8071;" x1="12.9137" x2="255.4748" y1="342.44" y2="342.44"/><text fill="#000000" font-family="sans-serif" font-size="22.599" lengthAdjust="spacing" textLength="226.4189" x="20.9848" y="373.0551">void move(int x, int y)</text></g><!--class AbstractNPC--><g class="entity" data-qualified-name="AbstractNPC" data-source-line="12" id="ent0004"><rect fill="#F1F1F1" height="108.2622" rx="4.0355" ry="4.0355" style="stroke:#181818;stroke-width:0.8071;" width="176.3334" x="313.9813" y="277.8713"/><ellipse cx="338.1946" cy="303.6988" fill="#A9DCDF" rx="17.7564" ry="17.7564" style="stroke:#181818;stroke-width:1.6142;"/><path d="M330.401,312.9805 L335.7985,293.3073 L340.8681,293.3073 L346.3161,312.9805 L342.331,312.9805 L341.1456,308.1127 L335.4706,308.1127 L334.2599,312.9805 L330.401,312.9805 Z M337.5136,299.9911 L336.3029,304.8338 L340.3637,304.8338 L339.2035,299.9911 Q338.9765,299.0579 338.7747,298.1751 Q338.5729,297.2671 338.3459,296.3339 Q338.1694,297.2671 337.9424,298.1751 Q337.7154,299.0579 337.5136,299.9911 Z " fill="#000000"/><text fill="#000000" font-family="sans-serif" font-size="22.599" font-style="italic" lengthAdjust="spacing" textLength="124.6784" x="360.7936" y="312.4672">AbstractNPC</text><line style="stroke:#181818;stroke-width:0.8071;" x1="315.5956" x2="488.7005" y1="329.5263" y2="329.5263"/><line style="stroke:#181818;stroke-width:0.8071;" x1="315.5956" x2="488.7005" y1="342.44" y2="342.44"/><text fill="#000000" font-family="sans-serif" font-size="22.599" lengthAdjust="spacing" textLength="118.8705" x="323.6666" y="373.0551">void learn()</text></g><!--class AbstractMobileNPC--><g class="entity" data-qualified-name="AbstractMobileNPC" data-source-line="16" id="ent0005"><rect fill="#F1F1F1" height="108.2622" rx="4.0355" ry="4.0355" style="stroke:#181818;stroke-width:0.8071;" width="245.7895" x="145.2795" y="513.6438"/><ellipse cx="170.2598" cy="539.4713" fill="#A9DCDF" rx="17.7564" ry="17.7564" style="stroke:#181818;stroke-width:1.6142;"/><path d="M162.4661,548.7531 L167.8637,529.0798 L172.9333,529.0798 L178.3813,548.7531 L174.3962,548.7531 L173.2108,543.8852 L167.5358,543.8852 L166.3251,548.7531 L162.4661,548.7531 Z M169.5788,535.7637 L168.3681,540.6063 L172.4289,540.6063 L171.2687,535.7637 Q171.0417,534.8304 170.8399,533.9477 Q170.6381,533.0397 170.4111,532.1065 Q170.2346,533.0397 170.0076,533.9477 Q169.7806,534.8304 169.5788,535.7637 Z " fill="#000000"/><text fill="#000000" font-family="sans-serif" font-size="22.599" font-style="italic" lengthAdjust="spacing" textLength="192.4301" x="193.0293" y="548.2397">AbstractMobileNPC</text><line style="stroke:#181818;stroke-width:0.8071;" x1="146.8937" x2="389.4548" y1="565.2988" y2="565.2988"/><line style="stroke:#181818;stroke-width:0.8071;" x1="146.8937" x2="389.4548" y1="578.2125" y2="578.2125"/><text fill="#000000" font-family="sans-serif" font-size="22.599" lengthAdjust="spacing" textLength="226.4189" x="154.9648" y="608.8277">void move(int x, int y)</text></g><!--class Unicorn--><g class="entity" data-qualified-name="Unicorn" data-source-line="20" id="ent0006"><rect fill="#F1F1F1" height="108.2622" rx="4.0355" ry="4.0355" style="stroke:#181818;stroke-width:0.8071;" width="139.7326" x="99.8393" y="749.4325"/><ellipse cx="125.8264" cy="775.26" fill="#ADD1B2" rx="17.7564" ry="17.7564" style="stroke:#181818;stroke-width:1.6142;"/><path d="M124.9688,786.4334 Q122.1439,786.4334 120.3027,785.248 Q118.4867,784.0373 117.5787,781.8682 Q116.696,779.6739 116.696,776.7733 Q116.696,773.4944 117.7553,771.1488 Q118.8146,768.8031 120.8828,767.542 Q122.951,766.2809 125.9777,766.2809 Q127.4154,766.2809 128.4999,766.5836 Q129.5845,766.861 130.6942,767.4159 L129.3827,770.6696 Q128.3738,770.1651 127.491,769.9633 Q126.6335,769.7616 125.8516,769.7616 Q123.9599,769.7616 122.8249,770.6191 Q121.6899,771.4767 121.2107,773.0152 Q120.7315,774.5538 120.7315,776.5968 Q120.7315,779.8504 121.8917,781.4142 Q123.0519,782.9527 125.6246,782.9527 Q126.583,782.9527 127.5919,782.7005 Q128.6008,782.4483 129.9376,781.843 L129.9376,785.4245 Q128.7521,785.929 127.4658,786.1812 Q126.2047,786.4334 124.9688,786.4334 Z " fill="#000000"/><text fill="#000000" font-family="sans-serif" font-size="22.599" lengthAdjust="spacing" textLength="84.1359" x="148.8196" y="784.0284">Unicorn</text><line style="stroke:#181818;stroke-width:0.8071;" x1="101.4535" x2="237.9577" y1="801.0875" y2="801.0875"/><line style="stroke:#181818;stroke-width:0.8071;" x1="101.4535" x2="237.9577" y1="814.0012" y2="814.0012"/><text fill="#000000" font-family="sans-serif" font-size="22.599" lengthAdjust="spacing" textLength="120.362" x="109.5246" y="844.6163">void sleep()</text></g><!--class Butterfly--><g class="entity" data-qualified-name="Butterfly" data-source-line="24" id="ent0007"><rect fill="#F1F1F1" height="108.2622" rx="4.0355" ry="4.0355" style="stroke:#181818;stroke-width:0.8071;" width="143.8361" x="296.338" y="749.4325"/><ellipse cx="320.5512" cy="775.26" fill="#ADD1B2" rx="17.7564" ry="17.7564" style="stroke:#181818;stroke-width:1.6142;"/><path d="M319.6937,786.4334 Q316.8688,786.4334 315.0276,785.248 Q313.2116,784.0373 312.3036,781.8682 Q311.4208,779.6739 311.4208,776.7733 Q311.4208,773.4944 312.4801,771.1488 Q313.5395,768.8031 315.6077,767.542 Q317.6759,766.2809 320.7025,766.2809 Q322.1402,766.2809 323.2248,766.5836 Q324.3093,766.861 325.4191,767.4159 L324.1075,770.6696 Q323.0986,770.1651 322.2159,769.9633 Q321.3583,769.7616 320.5764,769.7616 Q318.6848,769.7616 317.5498,770.6191 Q316.4148,771.4767 315.9356,773.0152 Q315.4563,774.5538 315.4563,776.5968 Q315.4563,779.8504 316.6166,781.4142 Q317.7768,782.9527 320.3494,782.9527 Q321.3079,782.9527 322.3168,782.7005 Q323.3256,782.4483 324.6624,781.843 L324.6624,785.4245 Q323.477,785.929 322.1906,786.1812 Q320.9295,786.4334 319.6937,786.4334 Z " fill="#000000"/><text fill="#000000" font-family="sans-serif" font-size="22.599" lengthAdjust="spacing" textLength="92.1811" x="343.1502" y="784.0284">Butterfly</text><line style="stroke:#181818;stroke-width:0.8071;" x1="297.9522" x2="438.5598" y1="801.0875" y2="801.0875"/><line style="stroke:#181818;stroke-width:0.8071;" x1="297.9522" x2="438.5598" y1="814.0012" y2="814.0012"/><text fill="#000000" font-family="sans-serif" font-size="22.599" lengthAdjust="spacing" textLength="118.8705" x="306.0233" y="844.6163">void learn()</text></g><!--reverse link NPC to MobileNPC--><g class="link" data-entity-1="ent0002" data-entity-2="ent0003" data-link-type="extension" data-source-line="28" id="lnk8"><path codeLine="28" d="M217.3882,176.4095 C195.8545,216.2484 182.9231,240.1955 162.9713,277.1288" fill="none" id="NPC-backto-MobileNPC" style="stroke:#181818;stroke-width:1.6142;stroke-dasharray:11.2995,11.2995;"/><polygon fill="none" points="231.2043,150.8486,208.8679,171.8041,225.9085,181.0149,231.2043,150.8486" style="stroke:#181818;stroke-width:1.6142;"/><text fill="#000000" font-family="sans-serif" font-size="20.9848" lengthAdjust="spacing" textLength="78.2734" x="206.8135" y="222.8217">extends</text></g><!--reverse link NPC to AbstractNPC--><g class="link" data-entity-1="ent0002" data-entity-2="ent0004" data-link-type="dependency" data-source-line="30" id="lnk9"><path codeLine="30" d="M309.7408,159.3689 C331.2745,199.2078 353.4167,240.1955 373.3845,277.1288" fill="none" id="NPC-backto-AbstractNPC" style="stroke:#181818;stroke-width:1.6142;"/><polygon fill="#181818" points="305.1354,150.8486,306.3633,166.6993,308.9733,157.9488,317.7237,160.5588,305.1354,150.8486" style="stroke:#181818;stroke-width:1.6142;"/><text fill="#000000" font-family="sans-serif" font-size="20.9848" lengthAdjust="spacing" textLength="117.2423" x="348.7839" y="222.8217">implements</text></g><!--reverse link MobileNPC to AbstractMobileNPC--><g class="link" data-entity-1="ent0003" data-entity-2="ent0005" data-link-type="dependency" data-source-line="31" id="lnk10"><path codeLine="31" d="M158.1487,395.7976 C168.286,420.3176 177.7737,440.4391 192.3017,465.2173 C201.8417,481.4886 213.5286,498.2119 224.8443,513.2564" fill="none" id="MobileNPC-backto-AbstractMobileNPC" style="stroke:#181818;stroke-width:1.6142;"/><polygon fill="#181818" points="154.4483,386.8471,154.0319,402.7398,157.532,394.3059,165.9659,397.806,154.4483,386.8471" style="stroke:#181818;stroke-width:1.6142;"/><text fill="#000000" font-family="sans-serif" font-size="20.9848" lengthAdjust="spacing" textLength="117.2423" x="193.9159" y="458.5942">implements</text></g><!--reverse link AbstractNPC to AbstractMobileNPC--><g class="link" data-entity-1="ent0004" data-entity-2="ent0005" data-link-type="extension" data-source-line="33" id="lnk11"><path codeLine="33" d="M357.2534,411.5578 C335.3323,449.621 320.3575,475.5967 298.4526,513.6116" fill="none" id="AbstractNPC-backto-AbstractMobileNPC" style="stroke:#181818;stroke-width:1.6142;"/><polygon fill="none" points="371.7542,386.379,348.8605,406.7242,365.6463,416.3914,371.7542,386.379" style="stroke:#181818;stroke-width:1.6142;"/><text fill="#000000" font-family="sans-serif" font-size="20.9848" lengthAdjust="spacing" textLength="78.2734" x="344.7967" y="458.5942">extends</text></g><!--reverse link AbstractMobileNPC to Unicorn--><g class="link" data-entity-1="ent0005" data-entity-2="ent0006" data-link-type="extension" data-source-line="34" id="lnk12"><path codeLine="34" d="M227.6706,648.3503 C220.0515,663.6853 224.9411,654.5327 218.1291,670.3359 C207.1686,695.8405 196.3534,724.7189 187.7496,748.9321" fill="none" id="AbstractMobileNPC-backto-Unicorn" style="stroke:#181818;stroke-width:1.6142;"/><polygon fill="none" points="240.599,622.3291,218.9969,644.0408,236.3444,652.6597,240.599,622.3291" style="stroke:#181818;stroke-width:1.6142;"/><text fill="#000000" font-family="sans-serif" font-size="20.9848" lengthAdjust="spacing" textLength="78.2734" x="219.7434" y="694.3829">extends</text></g><!--reverse link AbstractMobileNPC to Butterfly--><g class="link" data-entity-1="ent0005" data-entity-2="ent0007" data-link-type="extension" data-source-line="35" id="lnk13"><path codeLine="35" d="M302.3699,648.8561 C318.7542,686.9193 329.2841,711.3854 345.6361,749.3841" fill="none" id="AbstractMobileNPC-backto-Butterfly" style="stroke:#181818;stroke-width:1.6142;"/><polygon fill="none" points="290.8819,622.1677,293.4738,652.6854,311.2661,645.0267,290.8819,622.1677" style="stroke:#181818;stroke-width:1.6142;"/><text fill="#000000" font-family="sans-serif" font-size="20.9848" lengthAdjust="spacing" textLength="78.2734" x="325.8136" y="694.3829">extends</text></g><?plantuml-src ZO-z3e9048JxUuejCH52OqDer5fZumCSnnelEGx2dGWHtrr-POqGhJQJ_MPdnmYk43Q-3tSPsojZKblCBrmW74zxU30eKXc3GfvhPpKeen2pHZqfVaWZgP2QahH0fm6WN4Cxgix18sDpBYm8nOs1xI3dqfRfVyDwrrbBaURwpPB_Us1tisqDLSszqAQ4jUUHXW5WQL77PjYwxaUF06IIAKnGMyCc5yNeBG8pUYQi5mnZ-FUkiunrVu9JRLBe1G00?></g></svg>