<?plantuml 1.2026.2?><svg xmlns="http://www.w3.org/2000/svg" xmlns:xlink="http://www.w3.org/1999/xlink" contentStyleType="text/css" data-diagram-type="CLASS" height="735.1488px" preserveAspectRatio="none" style="width:500px;height:735px;background:#FFFFFF;" version="1.1" viewBox="0 0 500 735" width="500.8313px" zoomAndPan="magnify"><defs/><g><!--class NPC--><g class="entity" data-qualified-name="NPC" data-source-line="3" id="ent0002"><rect fill="#F1F1F1" height="188.1762" rx="4.4717" ry="4.4717" style="stroke:#181818;stroke-width:0.8943;" width="363.0048" x="126.2631" y="12.5208"/><ellipse cx="276.8625" cy="41.1397" fill="#A9DCDF" rx="19.6755" ry="19.6755" style="stroke:#181818;stroke-width:1.7887;"/><path d="M268.2265,51.4246 L274.2074,29.6251 L279.825,29.6251 L285.8618,51.4246 L281.446,51.4246 L280.1325,46.0306 L273.8441,46.0306 L272.5026,51.4246 L268.2265,51.4246 Z M276.1079,37.0313 L274.7664,42.3974 L279.2661,42.3974 L277.9805,37.0313 Q277.7289,35.9972 277.5053,35.0191 Q277.2817,34.0129 277.0302,32.9788 Q276.8346,34.0129 276.583,35.0191 Q276.3315,35.9972 276.1079,37.0313 Z " fill="#000000"/><text fill="#000000" font-family="sans-serif" font-size="25.0416" font-style="italic" lengthAdjust="spacing" textLength="46.6022" x="313.5305" y="50.8558">NPC</text><line style="stroke:#181818;stroke-width:0.8943;" x1="128.0518" x2="487.4792" y1="69.7586" y2="69.7586"/><text fill="#000000" font-family="sans-serif" font-size="25.0416" lengthAdjust="spacing" textLength="66.1345" x="136.9952" y="103.6827">int xp</text><line style="stroke:#181818;stroke-width:0.8943;" x1="128.0518" x2="487.4792" y1="118.1746" y2="118.1746"/><text fill="#000000" font-family="sans-serif" font-size="25.0416" lengthAdjust="spacing" textLength="341.5406" x="136.9952" y="152.0986">void meetsWith(NPC contact)</text><text fill="#000000" font-family="sans-serif" font-size="25.0416" lengthAdjust="spacing" textLength="131.7181" x="136.9952" y="186.2051">void learn()</text></g><!--class MobileNPC--><g class="entity" data-qualified-name="MobileNPC" data-source-line="9" id="ent0003"><rect fill="#F1F1F1" height="154.0697" rx="4.4717" ry="4.4717" style="stroke:#181818;stroke-width:0.8943;" width="178.9144" x="107.4104" y="341.9962"/><ellipse cx="134.2407" cy="370.6152" fill="#A9DCDF" rx="19.6755" ry="19.6755" style="stroke:#181818;stroke-width:1.7887;"/><path d="M125.6047,380.9001 L131.5856,359.1005 L137.2032,359.1005 L143.24,380.9001 L138.8242,380.9001 L137.5106,375.5061 L131.2223,375.5061 L129.8808,380.9001 L125.6047,380.9001 Z M133.4861,366.5068 L132.1446,371.8728 L136.6442,371.8728 L135.3586,366.5068 Q135.1071,365.4727 134.8835,364.4945 Q134.6599,363.4884 134.4084,362.4543 Q134.2127,363.4884 133.9612,364.4945 Q133.7097,365.4727 133.4861,366.5068 Z " fill="#000000"/><text fill="#000000" font-family="sans-serif" font-size="25.0416" font-style="italic" lengthAdjust="spacing" textLength="121.6765" x="159.2822" y="380.3312">MobileNPC</text><line style="stroke:#181818;stroke-width:0.8943;" x1="109.1991" x2="284.5361" y1="399.2341" y2="399.2341"/><text fill="#000000" font-family="sans-serif" font-size="25.0416" lengthAdjust="spacing" textLength="114.8903" x="118.1425" y="433.1581">int moves</text><line style="stroke:#181818;stroke-width:0.8943;" x1="109.1991" x2="284.5361" y1="447.65" y2="447.65"/><text fill="#000000" font-family="sans-serif" font-size="25.0416" lengthAdjust="spacing" textLength="131.7181" x="118.1425" y="481.5741">void learn()</text></g><!--class Flower--><g class="entity" data-qualified-name="Flower" data-source-line="14" id="ent0004"><rect fill="#F1F1F1" height="85.8568" rx="4.4717" ry="4.4717" style="stroke:#181818;stroke-width:0.8943;" width="135.9933" x="348.8827" y="376.1064"/><ellipse cx="375.7129" cy="404.7253" fill="#ADD1B2" rx="19.6755" ry="19.6755" style="stroke:#181818;stroke-width:1.7887;"/><path d="M374.7627,417.1064 Q371.6325,417.1064 369.5922,415.7928 Q367.58,414.4513 366.5738,412.0478 Q365.5957,409.6163 365.5957,406.4022 Q365.5957,402.769 366.7695,400.1698 Q367.9433,397.5706 370.2351,396.1732 Q372.5268,394.7758 375.8806,394.7758 Q377.4736,394.7758 378.6754,395.1112 Q379.8772,395.4186 381.1069,396.0335 L379.6536,399.6388 Q378.5357,399.0798 377.5575,398.8562 Q376.6072,398.6326 375.7408,398.6326 Q373.6447,398.6326 372.3871,399.5829 Q371.1294,400.5331 370.5984,402.238 Q370.0674,403.9428 370.0674,406.2066 Q370.0674,409.8119 371.353,411.5447 Q372.6386,413.2495 375.4893,413.2495 Q376.5513,413.2495 377.6693,412.9701 Q378.7872,412.6906 380.2685,412.0198 L380.2685,415.9885 Q378.9549,416.5474 377.5295,416.8269 Q376.1321,417.1064 374.7627,417.1064 Z " fill="#000000"/><text fill="#000000" font-family="sans-serif" font-size="25.0416" lengthAdjust="spacing" textLength="78.7554" x="400.7545" y="414.4414">Flower</text><line style="stroke:#181818;stroke-width:0.8943;" x1="350.6713" x2="483.0872" y1="433.3443" y2="433.3443"/><line style="stroke:#181818;stroke-width:0.8943;" x1="350.6713" x2="483.0872" y1="447.6537" y2="447.6537"/></g><!--class Unicorn--><g class="entity" data-qualified-name="Unicorn" data-source-line="17" id="ent0005"><rect fill="#F1F1F1" height="85.8568" rx="4.4717" ry="4.4717" style="stroke:#181818;stroke-width:0.8943;" width="150.4672" x="12.5208" y="637.3794"/><ellipse cx="39.351" cy="665.9983" fill="#ADD1B2" rx="19.6755" ry="19.6755" style="stroke:#181818;stroke-width:1.7887;"/><path d="M38.4008,678.3793 Q35.2706,678.3793 33.2304,677.0658 Q31.2181,675.7243 30.212,673.3207 Q29.2338,670.8892 29.2338,667.6752 Q29.2338,664.0419 30.4076,661.4427 Q31.5814,658.8436 33.8732,657.4462 Q36.1649,656.0487 39.5187,656.0487 Q41.1118,656.0487 42.3135,656.3841 Q43.5153,656.6915 44.745,657.3064 L43.2917,660.9117 Q42.1738,660.3528 41.1956,660.1292 Q40.2454,659.9056 39.379,659.9056 Q37.2829,659.9056 36.0252,660.8558 Q34.7675,661.8061 34.2365,663.5109 Q33.7055,665.2157 33.7055,667.4795 Q33.7055,671.0849 34.9911,672.8176 Q36.2767,674.5225 39.1274,674.5225 Q40.1895,674.5225 41.3074,674.243 Q42.4253,673.9635 43.9066,673.2928 L43.9066,677.2614 Q42.593,677.8204 41.1677,678.0999 Q39.7703,678.3793 38.4008,678.3793 Z " fill="#000000"/><text fill="#000000" font-family="sans-serif" font-size="25.0416" lengthAdjust="spacing" textLength="93.2294" x="64.3926" y="675.7144">Unicorn</text><line style="stroke:#181818;stroke-width:0.8943;" x1="14.3095" x2="161.1993" y1="694.6172" y2="694.6172"/><line style="stroke:#181818;stroke-width:0.8943;" x1="14.3095" x2="161.1993" y1="708.9267" y2="708.9267"/></g><!--class Butterfly--><g class="entity" data-qualified-name="Butterfly" data-source-line="20" id="ent0006"><rect fill="#F1F1F1" height="85.8568" rx="4.4717" ry="4.4717" style="stroke:#181818;stroke-width:0.8943;" width="159.382" x="226.2863" y="637.3794"/><ellipse cx="253.1166" cy="665.9983" fill="#ADD1B2" rx="19.6755" ry="19.6755" style="stroke:#181818;stroke-width:1.7887;"/><path d="M252.1663,678.3793 Q249.0361,678.3793 246.9959,677.0658 Q244.9836,675.7243 243.9775,673.3207 Q242.9993,670.8892 242.9993,667.6752 Q242.9993,664.0419 244.1731,661.4427 Q245.347,658.8436 247.6387,657.4462 Q249.9305,656.0487 253.2842,656.0487 Q254.8773,656.0487 256.0791,656.3841 Q257.2808,656.6915 258.5106,657.3064 L257.0572,660.9117 Q255.9393,660.3528 254.9611,660.1292 Q254.0109,659.9056 253.1445,659.9056 Q251.0484,659.9056 249.7907,660.8558 Q248.5331,661.8061 248.002,663.5109 Q247.471,665.2157 247.471,667.4795 Q247.471,671.0849 248.7566,672.8176 Q250.0423,674.5225 252.893,674.5225 Q253.955,674.5225 255.0729,674.243 Q256.1909,673.9635 257.6721,673.2928 L257.6721,677.2614 Q256.3585,677.8204 254.9332,678.0999 Q253.5358,678.3793 252.1663,678.3793 Z " fill="#000000"/><text fill="#000000" font-family="sans-serif" font-size="25.0416" lengthAdjust="spacing" textLength="102.1441" x="278.1581" y="675.7144">Butterfly</text><line style="stroke:#181818;stroke-width:0.8943;" x1="228.075" x2="383.8796" y1="694.6172" y2="694.6172"/><line style="stroke:#181818;stroke-width:0.8943;" x1="228.075" x2="383.8796" y1="708.9267" y2="708.9267"/></g><!--reverse link NPC to MobileNPC--><g class="link" data-entity-1="ent0002" data-entity-2="ent0003" data-link-type="extension" data-source-line="23" id="lnk7"><path codeLine="23" d="M263.6081,231.367 C247.5278,276.1377 239.3616,298.9068 224.1399,341.2629" fill="none" id="NPC-backto-MobileNPC" style="stroke:#181818;stroke-width:1.7887;"/><polygon fill="none" points="274.4913,201.0659,253.5077,227.7392,273.7085,234.9947,274.4913,201.0659" style="stroke:#181818;stroke-width:1.7887;"/><text fill="#000000" font-family="sans-serif" font-size="23.2529" lengthAdjust="spacing" textLength="86.7333" x="254.1003" y="280.9968">extends</text></g><!--reverse link NPC to Flower--><g class="link" data-entity-1="ent0002" data-entity-2="ent0004" data-link-type="extension" data-source-line="24" id="lnk8"><path codeLine="24" d="M351.2191,231.4232 C371.6816,289.3408 386.3377,330.7991 402.0602,375.3194" fill="none" id="NPC-backto-Flower" style="stroke:#181818;stroke-width:1.7887;"/><polygon fill="none" points="340.4937,201.0659,341.1,234.9983,361.3382,227.8481,340.4937,201.0659" style="stroke:#181818;stroke-width:1.7887;"/><text fill="#000000" font-family="sans-serif" font-size="23.2529" lengthAdjust="spacing" textLength="86.7333" x="370.633" y="280.9968">extends</text></g><!--reverse link MobileNPC to Unicorn--><g class="link" data-entity-1="ent0003" data-entity-2="ent0005" data-link-type="extension" data-source-line="25" id="lnk9"><path codeLine="25" d="M149.7896,525.728 C142.0446,543.2213 146.9761,532.3658 139.6246,549.7339 C127.4079,578.5853 114.2253,611.354 104.2087,636.6102" fill="none" id="MobileNPC-backto-Unicorn" style="stroke:#181818;stroke-width:1.7887;"/><polygon fill="none" points="162.8238,496.288,139.9763,521.3832,159.6029,530.0727,162.8238,496.288" style="stroke:#181818;stroke-width:1.7887;"/><text fill="#000000" font-family="sans-serif" font-size="23.2529" lengthAdjust="spacing" textLength="86.7333" x="141.4133" y="576.3799">extends</text></g><!--reverse link MobileNPC to Butterfly--><g class="link" data-entity-1="ent0003" data-entity-2="ent0006" data-link-type="extension" data-source-line="26" id="lnk10"><path codeLine="26" d="M241.566,526.3981 C260.9374,572.1168 272.2912,598.9584 288.2821,636.7175" fill="none" id="MobileNPC-backto-Butterfly" style="stroke:#181818;stroke-width:1.7887;"/><polygon fill="none" points="229.0051,496.7531,231.6843,530.585,251.4476,522.2111,229.0051,496.7531" style="stroke:#181818;stroke-width:1.7887;"/><text fill="#000000" font-family="sans-serif" font-size="23.2529" lengthAdjust="spacing" textLength="86.7333" x="266.1918" y="576.3799">extends</text></g><?plantuml-src TOsn3e8m54NtViKROI1XSJ5EchXfN8XpAS_GfBIcxmaOzTy5GTk4kDvpxhsaf45OvJbqkk9Q25aIUwaOb954S3pju250MuR-Ag1rke86aUcikKv6gfpbmKzdQ51wcwJYjPWwk58RZ0ORro8jQvEzDwv3FwY_fB1QEM_ZQ7jZHdynzoaSjpVFB8kkre0zewqem7ava61_-FVdhn1UW_86?></g></svg>