<?plantuml 1.2026.2?><svg xmlns="http://www.w3.org/2000/svg" xmlns:xlink="http://www.w3.org/1999/xlink" contentStyleType="text/css" data-diagram-type="CLASS" height="940.9022px" preserveAspectRatio="none" style="width:750px;height:940px;background:#FFFFFF;" version="1.1" viewBox="0 0 750 940" width="750.2071px" zoomAndPan="magnify"><defs/><g><!--class NPC--><g class="entity" data-qualified-name="NPC" data-source-line="3" id="ent0002"><rect fill="#F1F1F1" height="260.4176" rx="5.2389" ry="5.2389" style="stroke:#181818;stroke-width:1.0478;" width="472.9263" x="195.3472" y="14.6689"/><ellipse cx="395.6056" cy="48.1977" fill="#A9DCDF" rx="23.0511" ry="23.0511" style="stroke:#181818;stroke-width:2.0956;"/><path d="M385.4881,60.2471 L392.4951,34.7076 L399.0764,34.7076 L406.1489,60.2471 L400.9755,60.2471 L399.4366,53.9277 L392.0694,53.9277 L390.4977,60.2471 L385.4881,60.2471 Z M394.7216,43.3844 L393.1499,49.6711 L398.4215,49.6711 L396.9154,43.3844 Q396.6207,42.173 396.3587,41.027 Q396.0968,39.8482 395.8021,38.6367 Q395.5729,39.8482 395.2782,41.027 Q394.9835,42.173 394.7216,43.3844 Z " fill="#000000"/><text fill="#000000" font-family="sans-serif" font-size="29.3377" font-style="italic" lengthAdjust="spacing" textLength="54.5973" x="438.5644" y="59.5806">NPC</text><line style="stroke:#181818;stroke-width:1.0478;" x1="197.4428" x2="666.178" y1="81.7265" y2="81.7265"/><text fill="#000000" font-family="sans-serif" font-size="29.3377" lengthAdjust="spacing" textLength="77.4806" x="207.9205" y="121.4705">int xp</text><line style="stroke:#181818;stroke-width:1.0478;" x1="197.4428" x2="666.178" y1="138.4487" y2="138.4487"/><text fill="#000000" font-family="sans-serif" font-size="29.3377" lengthAdjust="spacing" textLength="400.1354" x="207.9205" y="178.1927">void meetsWith(NPC contact)</text><text fill="#000000" font-family="sans-serif" font-size="29.3377" lengthAdjust="spacing" textLength="154.3157" x="207.9205" y="218.1505">void learn()</text><text fill="#000000" font-family="sans-serif" font-size="29.3377" lengthAdjust="spacing" textLength="447.7797" x="207.9205" y="258.1083">void spiesOn(MobileNPC source)</text></g><!--class MobileNPC--><g class="entity" data-qualified-name="MobileNPC" data-source-line="10" id="ent0003"><rect fill="#F1F1F1" height="180.502" rx="5.2389" ry="5.2389" style="stroke:#181818;stroke-width:1.0478;" width="209.609" x="197.0865" y="440.6524"/><ellipse cx="228.5198" cy="474.1812" fill="#A9DCDF" rx="23.0511" ry="23.0511" style="stroke:#181818;stroke-width:2.0956;"/><path d="M218.4022,486.2306 L225.4092,460.6911 L231.9905,460.6911 L239.063,486.2306 L233.8896,486.2306 L232.3507,479.9112 L224.9835,479.9112 L223.4119,486.2306 L218.4022,486.2306 Z M227.6357,469.368 L226.0641,475.6546 L231.3357,475.6546 L229.8295,469.368 Q229.5348,468.1565 229.2729,467.0105 Q229.0109,465.8317 228.7162,464.6202 Q228.487,465.8317 228.1924,467.0105 Q227.8977,468.1565 227.6357,469.368 Z " fill="#000000"/><text fill="#000000" font-family="sans-serif" font-size="29.3377" font-style="italic" lengthAdjust="spacing" textLength="142.5514" x="257.8575" y="485.5642">MobileNPC</text><line style="stroke:#181818;stroke-width:1.0478;" x1="199.1821" x2="404.6" y1="507.71" y2="507.71"/><text fill="#000000" font-family="sans-serif" font-size="29.3377" lengthAdjust="spacing" textLength="134.6009" x="209.6598" y="547.4541">int moves</text><line style="stroke:#181818;stroke-width:1.0478;" x1="199.1821" x2="404.6" y1="564.4322" y2="564.4322"/><text fill="#000000" font-family="sans-serif" font-size="29.3377" lengthAdjust="spacing" textLength="154.3157" x="209.6598" y="604.1763">void learn()</text></g><!--class Flower--><g class="entity" data-qualified-name="Flower" data-source-line="15" id="ent0004"><rect fill="#F1F1F1" height="100.5864" rx="5.2389" ry="5.2389" style="stroke:#181818;stroke-width:1.0478;" width="159.3244" x="479.9859" y="480.5936"/><ellipse cx="511.4191" cy="514.1224" fill="#ADD1B2" rx="23.0511" ry="23.0511" style="stroke:#181818;stroke-width:2.0956;"/><path d="M510.3059,528.6275 Q506.6386,528.6275 504.2484,527.0886 Q501.8909,525.5169 500.7122,522.701 Q499.5662,519.8524 499.5662,516.087 Q499.5662,511.8304 500.9414,508.7853 Q502.3166,505.7402 505.0015,504.103 Q507.6864,502.4659 511.6156,502.4659 Q513.4819,502.4659 514.8899,502.8588 Q516.2978,503.219 517.7385,503.9393 L516.0359,508.1632 Q514.7262,507.5083 513.5802,507.2464 Q512.4669,506.9844 511.4519,506.9844 Q508.9961,506.9844 507.5227,508.0977 Q506.0493,509.2109 505.4272,511.2083 Q504.805,513.2056 504.805,515.8578 Q504.805,520.0816 506.3112,522.1117 Q507.8174,524.109 511.1572,524.109 Q512.4014,524.109 513.7111,523.7816 Q515.0208,523.4541 516.7562,522.6683 L516.7562,527.3178 Q515.2173,527.9727 513.5474,528.3001 Q511.9103,528.6275 510.3059,528.6275 Z " fill="#000000"/><text fill="#000000" font-family="sans-serif" font-size="29.3377" lengthAdjust="spacing" textLength="92.2667" x="540.7568" y="525.5054">Flower</text><line style="stroke:#181818;stroke-width:1.0478;" x1="482.0814" x2="637.2147" y1="547.6512" y2="547.6512"/><line style="stroke:#181818;stroke-width:1.0478;" x1="482.0814" x2="637.2147" y1="564.4156" y2="564.4156"/></g><!--class Unicorn--><g class="entity" data-qualified-name="Unicorn" data-source-line="18" id="ent0005"><rect fill="#F1F1F1" height="100.5864" rx="5.2389" ry="5.2389" style="stroke:#181818;stroke-width:1.0478;" width="176.2815" x="14.6689" y="806.6822"/><ellipse cx="46.1021" cy="840.211" fill="#ADD1B2" rx="23.0511" ry="23.0511" style="stroke:#181818;stroke-width:2.0956;"/><path d="M44.9889,854.7161 Q41.3216,854.7161 38.9314,853.1772 Q36.5739,851.6056 35.3952,848.7897 Q34.2492,845.941 34.2492,842.1756 Q34.2492,837.919 35.6244,834.8739 Q36.9996,831.8288 39.6845,830.1917 Q42.3694,828.5545 46.2986,828.5545 Q48.1649,828.5545 49.5729,828.9474 Q50.9808,829.3076 52.4215,830.0279 L50.7189,834.2518 Q49.4092,833.5969 48.2631,833.335 Q47.1499,833.073 46.1349,833.073 Q43.6791,833.073 42.2057,834.1863 Q40.7323,835.2996 40.1101,837.2969 Q39.488,839.2942 39.488,841.9464 Q39.488,846.1702 40.9942,848.2003 Q42.5004,850.1976 45.8402,850.1976 Q47.0844,850.1976 48.3941,849.8702 Q49.7038,849.5428 51.4392,848.7569 L51.4392,853.4064 Q49.9003,854.0613 48.2304,854.3887 Q46.5933,854.7161 44.9889,854.7161 Z " fill="#000000"/><text fill="#000000" font-family="sans-serif" font-size="29.3377" lengthAdjust="spacing" textLength="109.2239" x="75.4398" y="851.594">Unicorn</text><line style="stroke:#181818;stroke-width:1.0478;" x1="16.7644" x2="188.8548" y1="873.7398" y2="873.7398"/><line style="stroke:#181818;stroke-width:1.0478;" x1="16.7644" x2="188.8548" y1="890.5042" y2="890.5042"/></g><!--class Butterfly--><g class="entity" data-qualified-name="Butterfly" data-source-line="21" id="ent0006"><rect fill="#F1F1F1" height="140.5442" rx="5.2389" ry="5.2389" style="stroke:#181818;stroke-width:1.0478;" width="472.9263" x="264.5004" y="786.6906"/><ellipse cx="432.2234" cy="820.2195" fill="#ADD1B2" rx="23.0511" ry="23.0511" style="stroke:#181818;stroke-width:2.0956;"/><path d="M431.1102,834.7246 Q427.443,834.7246 425.0527,833.1857 Q422.6952,831.614 421.5165,828.7981 Q420.3705,825.9495 420.3705,822.184 Q420.3705,817.9274 421.7457,814.8823 Q423.1209,811.8373 425.8058,810.2001 Q428.4907,808.563 432.4199,808.563 Q434.2862,808.563 435.6942,808.9559 Q437.1021,809.316 438.5428,810.0364 L436.8402,814.2602 Q435.5305,813.6054 434.3845,813.3434 Q433.2712,813.0815 432.2562,813.0815 Q429.8005,813.0815 428.327,814.1947 Q426.8536,815.308 426.2315,817.3053 Q425.6094,819.3026 425.6094,821.9548 Q425.6094,826.1787 427.1155,828.2087 Q428.6217,830.2061 431.9615,830.2061 Q433.2057,830.2061 434.5154,829.8786 Q435.8252,829.5512 437.5605,828.7654 L437.5605,833.4149 Q436.0216,834.0697 434.3517,834.3972 Q432.7146,834.7246 431.1102,834.7246 Z " fill="#000000"/><text fill="#000000" font-family="sans-serif" font-size="29.3377" lengthAdjust="spacing" textLength="119.668" x="475.1822" y="831.6024">Butterfly</text><line style="stroke:#181818;stroke-width:1.0478;" x1="266.5959" x2="735.3311" y1="853.7483" y2="853.7483"/><line style="stroke:#181818;stroke-width:1.0478;" x1="266.5959" x2="735.3311" y1="870.5127" y2="870.5127"/><text fill="#000000" font-family="sans-serif" font-size="29.3377" lengthAdjust="spacing" textLength="447.7797" x="277.0737" y="910.2567">void spiesOn(MobileNPC source)</text></g><!--reverse link NPC to MobileNPC--><g class="link" data-entity-1="ent0002" data-entity-2="ent0003" data-link-type="extension" data-source-line="25" id="lnk7"><path codeLine="25" d="M375.8553,311.4188 C357.4983,365.3373 348.7834,390.9459 332.1867,439.7513" fill="none" id="NPC-backto-MobileNPC" style="stroke:#181818;stroke-width:2.0956;"/><polygon fill="none" points="388.0121,275.7116,363.9529,307.3665,387.7577,315.4711,388.0121,275.7116" style="stroke:#181818;stroke-width:2.0956;"/><text fill="#000000" font-family="sans-serif" font-size="27.2422" lengthAdjust="spacing" textLength="101.6133" x="365.0449" y="369.1878">extends</text></g><!--reverse link NPC to Flower--><g class="link" data-entity-1="ent0002" data-entity-2="ent0004" data-link-type="extension" data-source-line="26" id="lnk8"><path codeLine="26" d="M486.8812,311.483 C510.3513,381.642 526.088,428.582 543.2505,479.8601" fill="none" id="NPC-backto-Flower" style="stroke:#181818;stroke-width:2.0956;"/><polygon fill="none" points="474.9146,275.7116,474.9574,315.4718,498.805,307.4942,474.9146,275.7116" style="stroke:#181818;stroke-width:2.0956;"/><text fill="#000000" font-family="sans-serif" font-size="27.2422" lengthAdjust="spacing" textLength="101.6133" x="509.2607" y="369.1878">extends</text></g><!--reverse link MobileNPC to Unicorn--><g class="link" data-entity-1="ent0003" data-entity-2="ent0005" data-link-type="extension" data-source-line="27" id="lnk9"><path codeLine="27" d="M227.1256,653.8755 C190.3068,713.431 163.0338,757.4996 132.8789,806.2421" fill="none" id="MobileNPC-backto-Unicorn" style="stroke:#181818;stroke-width:2.0956;"/><polygon fill="none" points="246.9606,621.7918,216.4311,647.2638,237.8202,660.4871,246.9606,621.7918" style="stroke:#181818;stroke-width:2.0956;"/><text fill="#000000" font-family="sans-serif" font-size="27.2422" lengthAdjust="spacing" textLength="101.6133" x="210.4142" y="715.2261">extends</text></g><!--reverse link MobileNPC to Butterfly--><g class="link" data-entity-1="ent0003" data-entity-2="ent0006" data-link-type="extension" data-source-line="28" id="lnk10"><path codeLine="28" d="M376.65,653.872 C408.6491,705.6111 428.561,737.8014 458.2131,785.7267" fill="none" id="MobileNPC-backto-Butterfly" style="stroke:#181818;stroke-width:2.0956;"/><polygon fill="none" points="356.8094,621.7918,365.9566,660.4855,387.3434,647.2585,356.8094,621.7918" style="stroke:#181818;stroke-width:2.0956;"/><text fill="#000000" font-family="sans-serif" font-size="27.2422" lengthAdjust="spacing" textLength="101.6133" x="421.3524" y="715.2261">extends</text></g><?plantuml-src XOuz2y8m48Rt_8eRsw7W8e8uARZviOXpcfuq49EIktw8-jzjjJL54SUxvxbxNrBI8Coc4wXrnhaGCYNsKZ4e8ubWkr_1LO2s34qXe78wWpCYqr5p7dLKESkj7_VGeFGs6YOgDDBEHXkNQeETJgxq2cDn_ueAJXzuTXNInzlsx6MlZQlHj-fxSx1QEM_7gsN9ZFvaBjtB_uMwSN5Bab6LEM33Q3CAi4yE9DXFFlJuAOHMGNa0?></g></svg>