<?plantuml 1.2026.2?><svg xmlns="http://www.w3.org/2000/svg" xmlns:xlink="http://www.w3.org/1999/xlink" contentStyleType="text/css" data-diagram-type="CLASS" height="586.8199px" preserveAspectRatio="none" style="width:800px;height:586px;background:#FFFFFF;" version="1.1" viewBox="0 0 800 586" width="800.781px" zoomAndPan="magnify"><defs/><g><!--class NPC--><g class="entity" data-qualified-name="NPC" data-source-line="3" id="ent0002"><rect fill="#F1F1F1" height="105.5142" rx="3.9331" ry="3.9331" style="stroke:#181818;stroke-width:0.7866;" width="136.1858" x="344.3673" y="11.0127"/><ellipse cx="388.1498" cy="36.1846" fill="#B4A7E5" rx="17.3057" ry="17.3057" style="stroke:#181818;stroke-width:1.5732;"/><path d="M381.9059,46.4107 L381.9059,43.7313 L385.6178,43.3134 L385.6178,30.4079 L381.9059,29.99 L381.9059,27.3105 L393.1399,27.3105 L393.1399,29.99 L389.3297,30.4079 L389.3297,43.3134 L393.1399,43.7313 L393.1399,46.4107 L381.9059,46.4107 Z " fill="#000000"/><text fill="#000000" font-family="sans-serif" font-size="22.0254" font-style="italic" lengthAdjust="spacing" textLength="40.9891" x="414.6605" y="44.7304">NPC</text><line style="stroke:#181818;stroke-width:0.7866;" x1="345.9406" x2="478.9799" y1="61.3565" y2="61.3565"/><line style="stroke:#181818;stroke-width:0.7866;" x1="345.9406" x2="478.9799" y1="73.9425" y2="73.9425"/><text fill="#000000" font-family="sans-serif" font-size="22.0254" lengthAdjust="spacing" textLength="117.3069" x="353.8068" y="103.7805">void sleep()</text></g><!--class Animal--><g class="entity" data-qualified-name="Animal" data-source-line="7" id="ent0003"><rect fill="#F1F1F1" height="105.5142" rx="3.9331" ry="3.9331" style="stroke:#181818;stroke-width:0.7866;" width="126.825" x="144.5339" y="240.8007"/><ellipse cx="171.8238" cy="265.9726" fill="#B4A7E5" rx="17.3057" ry="17.3057" style="stroke:#181818;stroke-width:1.5732;"/><path d="M165.58,276.1987 L165.58,273.5192 L169.2918,273.1013 L169.2918,260.1958 L165.58,259.7779 L165.58,257.0985 L176.8139,257.0985 L176.8139,259.7779 L173.0037,260.1958 L173.0037,273.1013 L176.8139,273.5192 L176.8139,276.1987 L165.58,276.1987 Z " fill="#000000"/><text fill="#000000" font-family="sans-serif" font-size="22.0254" font-style="italic" lengthAdjust="spacing" textLength="68.2785" x="194.6695" y="274.5184">Animal</text><line style="stroke:#181818;stroke-width:0.7866;" x1="146.1071" x2="269.7857" y1="291.1445" y2="291.1445"/><line style="stroke:#181818;stroke-width:0.7866;" x1="146.1071" x2="269.7857" y1="303.7304" y2="303.7304"/><text fill="#000000" font-family="sans-serif" font-size="22.0254" lengthAdjust="spacing" textLength="107.9461" x="153.9734" y="333.5685">void hide()</text></g><!--class ImaginaryCreature--><g class="entity" data-qualified-name="ImaginaryCreature" data-source-line="11" id="ent0004"><rect fill="#F1F1F1" height="105.5142" rx="3.9331" ry="3.9331" style="stroke:#181818;stroke-width:0.7866;" width="237.0305" x="553.5301" y="240.8007"/><ellipse cx="577.1287" cy="265.9726" fill="#B4A7E5" rx="17.3057" ry="17.3057" style="stroke:#181818;stroke-width:1.5732;"/><path d="M570.8849,276.1987 L570.8849,273.5192 L574.5968,273.1013 L574.5968,260.1958 L570.8849,259.7779 L570.8849,257.0985 L582.1189,257.0985 L582.1189,259.7779 L578.3087,260.1958 L578.3087,273.1013 L582.1189,273.5192 L582.1189,276.1987 L570.8849,276.1987 Z " fill="#000000"/><text fill="#000000" font-family="sans-serif" font-size="22.0254" font-style="italic" lengthAdjust="spacing" textLength="186.6867" x="599.1541" y="274.5184">ImaginaryCreature</text><line style="stroke:#181818;stroke-width:0.7866;" x1="555.1033" x2="788.9873" y1="291.1445" y2="291.1445"/><line style="stroke:#181818;stroke-width:0.7866;" x1="555.1033" x2="788.9873" y1="303.7304" y2="303.7304"/><text fill="#000000" font-family="sans-serif" font-size="22.0254" lengthAdjust="spacing" textLength="167.04" x="562.9695" y="333.5685">void heal(NPC c)</text></g><!--class AbstractNPC--><g class="entity" data-qualified-name="AbstractNPC" data-source-line="15" id="ent0005"><rect fill="#F1F1F1" height="105.5142" rx="3.9331" ry="3.9331" style="stroke:#181818;stroke-width:0.7866;" width="171.8575" x="326.5425" y="240.8007"/><ellipse cx="350.1411" cy="265.9726" fill="#A9DCDF" rx="17.3057" ry="17.3057" style="stroke:#181818;stroke-width:1.5732;"/><path d="M342.5453,275.0187 L347.8058,255.8448 L352.7468,255.8448 L358.0565,275.0187 L354.1726,275.0187 L353.0172,270.2744 L347.4863,270.2744 L346.3063,275.0187 L342.5453,275.0187 Z M349.4774,262.359 L348.2975,267.0788 L352.2552,267.0788 L351.1244,262.359 Q350.9032,261.4495 350.7065,260.5891 Q350.5098,259.7042 350.2886,258.7947 Q350.1165,259.7042 349.8953,260.5891 Q349.6741,261.4495 349.4774,262.359 Z " fill="#000000"/><text fill="#000000" font-family="sans-serif" font-size="22.0254" font-style="italic" lengthAdjust="spacing" textLength="121.5137" x="372.1665" y="274.5184">AbstractNPC</text><line style="stroke:#181818;stroke-width:0.7866;" x1="328.1157" x2="496.8267" y1="291.1445" y2="291.1445"/><line style="stroke:#181818;stroke-width:0.7866;" x1="328.1157" x2="496.8267" y1="303.7304" y2="303.7304"/><text fill="#000000" font-family="sans-serif" font-size="22.0254" lengthAdjust="spacing" textLength="117.3069" x="335.9819" y="333.5685">void sleep()</text></g><!--class Butterfly--><g class="entity" data-qualified-name="Butterfly" data-source-line="19" id="ent0006"><rect fill="#F1F1F1" height="105.5142" rx="3.9331" ry="3.9331" style="stroke:#181818;stroke-width:0.7866;" width="140.1851" x="49.746" y="470.6044"/><ellipse cx="73.3446" cy="495.7763" fill="#ADD1B2" rx="17.3057" ry="17.3057" style="stroke:#181818;stroke-width:1.5732;"/><path d="M72.5088,506.6661 Q69.7557,506.6661 67.9612,505.5107 Q66.1913,504.3308 65.3063,502.2168 Q64.446,500.0781 64.446,497.2512 Q64.446,494.0556 65.4784,491.7694 Q66.5108,489.4833 68.5266,488.2542 Q70.5423,487.0251 73.4921,487.0251 Q74.8933,487.0251 75.9503,487.3201 Q77.0073,487.5905 78.0889,488.1313 L76.8107,491.3024 Q75.8274,490.8107 74.967,490.6141 Q74.1312,490.4174 73.3692,490.4174 Q71.5256,490.4174 70.4194,491.2532 Q69.3132,492.089 68.8461,493.5885 Q68.3791,495.088 68.3791,497.0791 Q68.3791,500.2502 69.5098,501.7743 Q70.6406,503.2738 73.148,503.2738 Q74.0821,503.2738 75.0654,503.028 Q76.0486,502.7821 77.3515,502.1922 L77.3515,505.6828 Q76.1961,506.1744 74.9424,506.4203 Q73.7134,506.6661 72.5088,506.6661 Z " fill="#000000"/><text fill="#000000" font-family="sans-serif" font-size="22.0254" lengthAdjust="spacing" textLength="89.8413" x="95.37" y="504.3221">Butterfly</text><line style="stroke:#181818;stroke-width:0.7866;" x1="51.3192" x2="188.3578" y1="520.9482" y2="520.9482"/><line style="stroke:#181818;stroke-width:0.7866;" x1="51.3192" x2="188.3578" y1="533.5341" y2="533.5341"/><text fill="#000000" font-family="sans-serif" font-size="22.0254" lengthAdjust="spacing" textLength="107.9461" x="59.1854" y="563.3722">void hide()</text></g><!--class Unicorn--><g class="entity" data-qualified-name="Unicorn" data-source-line="24" id="ent0007"><rect fill="#F1F1F1" height="105.5142" rx="3.9331" ry="3.9331" style="stroke:#181818;stroke-width:0.7866;" width="185.919" x="437.5033" y="470.6044"/><ellipse cx="485.2107" cy="495.7763" fill="#ADD1B2" rx="17.3057" ry="17.3057" style="stroke:#181818;stroke-width:1.5732;"/><path d="M484.3749,506.6661 Q481.6217,506.6661 479.8273,505.5107 Q478.0574,504.3308 477.1724,502.2168 Q476.312,500.0781 476.312,497.2512 Q476.312,494.0556 477.3445,491.7694 Q478.3769,489.4833 480.3926,488.2542 Q482.4084,487.0251 485.3582,487.0251 Q486.7594,487.0251 487.8164,487.3201 Q488.8734,487.5905 489.955,488.1313 L488.6767,491.3024 Q487.6935,490.8107 486.8331,490.6141 Q485.9973,490.4174 485.2353,490.4174 Q483.3916,490.4174 482.2854,491.2532 Q481.1793,492.089 480.7122,493.5885 Q480.2451,495.088 480.2451,497.0791 Q480.2451,500.2502 481.3759,501.7743 Q482.5067,503.2738 485.014,503.2738 Q485.9482,503.2738 486.9314,503.028 Q487.9147,502.7821 489.2176,502.1922 L489.2176,505.6828 Q488.0622,506.1744 486.8085,506.4203 Q485.5794,506.6661 484.3749,506.6661 Z " fill="#000000"/><text fill="#000000" font-family="sans-serif" font-size="22.0254" lengthAdjust="spacing" textLength="82.0003" x="512.5936" y="504.3221">Unicorn</text><line style="stroke:#181818;stroke-width:0.7866;" x1="439.0766" x2="621.8491" y1="520.9482" y2="520.9482"/><line style="stroke:#181818;stroke-width:0.7866;" x1="439.0766" x2="621.8491" y1="533.5341" y2="533.5341"/><text fill="#000000" font-family="sans-serif" font-size="22.0254" lengthAdjust="spacing" textLength="167.04" x="446.9428" y="563.3722">void heal(NPC c)</text></g><!--reverse link NPC to Animal--><g class="link" data-entity-1="ent0002" data-entity-2="ent0003" data-link-type="extension" data-source-line="31" id="lnk8"><path codeLine="31" d="M344.6669,137.9549 C330.8066,152.9007 334.9751,148.5142 321.2249,163.7117 C298.4915,188.8364 273.5399,217.0132 252.8675,240.549" fill="none" id="NPC-backto-Animal" style="stroke:#181818;stroke-width:1.5732;stroke-dasharray:11.0127,11.0127;"/><polygon fill="none" points="363.9227,117.1909,337.7455,131.5363,351.5882,144.3735,363.9227,117.1909" style="stroke:#181818;stroke-width:1.5732;"/><text fill="#000000" font-family="sans-serif" font-size="20.4522" lengthAdjust="spacing" textLength="76.2866" x="322.7981" y="187.1484">extends</text></g><!--reverse link NPC to ImaginaryCreature--><g class="link" data-entity-1="ent0002" data-entity-2="ent0004" data-link-type="extension" data-source-line="32" id="lnk9"><path codeLine="32" d="M503.2431,131.971 C523.239,147.1528 522.3169,147.114 541.479,163.7117 C569.3254,187.861 598.7608,216.4626 622.6112,240.5175" fill="none" id="NPC-backto-ImaginaryCreature" style="stroke:#181818;stroke-width:1.5732;stroke-dasharray:11.0127,11.0127;"/><polygon fill="none" points="480.6889,114.8468,497.5351,139.489,508.9512,124.4529,480.6889,114.8468" style="stroke:#181818;stroke-width:1.5732;"/><text fill="#000000" font-family="sans-serif" font-size="20.4522" lengthAdjust="spacing" textLength="76.2866" x="572.8338" y="187.1484">extends</text></g><!--reverse link NPC to AbstractNPC--><g class="link" data-entity-1="ent0002" data-entity-2="ent0005" data-link-type="dependency" data-source-line="34" id="lnk10"><path codeLine="34" d="M412.473,126.2056 C412.473,163.3027 412.473,203.7193 412.473,240.7692" fill="none" id="NPC-backto-AbstractNPC" style="stroke:#181818;stroke-width:1.5732;"/><polygon fill="#181818" points="412.473,116.7661,406.1801,130.9253,412.473,124.6324,418.766,130.9253,412.473,116.7661" style="stroke:#181818;stroke-width:1.5732;"/><text fill="#000000" font-family="sans-serif" font-size="20.4522" lengthAdjust="spacing" textLength="114.2664" x="414.0463" y="187.1484">implements</text></g><!--reverse link Animal to Unicorn--><g class="link" data-entity-1="ent0003" data-entity-2="ent0007" data-link-type="dependency" data-source-line="35" id="lnk11"><path codeLine="35" d="M260.9878,353.7316 C285.027,378.699 309.2211,401.1929 340.1038,423.4071 C369.8381,444.8189 404.8743,464.3114 436.7325,480.2012" fill="none" id="Animal-backto-Unicorn" style="stroke:#181818;stroke-width:1.5732;"/><polygon fill="#181818" points="254.4407,346.9317,259.7281,361.4963,259.8966,352.5983,268.7946,352.7668,254.4407,346.9317" style="stroke:#181818;stroke-width:1.5732;"/><text fill="#000000" font-family="sans-serif" font-size="20.4522" lengthAdjust="spacing" textLength="114.2664" x="341.6771" y="416.9521">implements</text></g><!--reverse link Animal to Butterfly--><g class="link" data-entity-1="ent0003" data-entity-2="ent0006" data-link-type="dependency" data-source-line="36" id="lnk12"><path codeLine="36" d="M135.1095,314.2744 C93.3871,328.465 51.0046,350.7075 25.4551,393.5154 C9.4395,420.3393 25.9428,448.4846 49.3999,471.5483" fill="none" id="Animal-backto-Butterfly" style="stroke:#181818;stroke-width:1.5732;"/><polygon fill="#181818" points="144.0462,311.2348,128.6148,309.8363,136.5989,313.7678,132.6675,321.7519,144.0462,311.2348" style="stroke:#181818;stroke-width:1.5732;"/><text fill="#000000" font-family="sans-serif" font-size="20.4522" lengthAdjust="spacing" textLength="114.2664" x="27.0283" y="416.9521">implements</text></g><!--reverse link ImaginaryCreature to Unicorn--><g class="link" data-entity-1="ent0004" data-entity-2="ent0007" data-link-type="dependency" data-source-line="37" id="lnk13"><path codeLine="37" d="M634.9182,354.5772 C611.7601,391.6743 585.6085,433.523 562.4661,470.5572" fill="none" id="ImaginaryCreature-backto-Unicorn" style="stroke:#181818;stroke-width:1.5732;"/><polygon fill="#181818" points="639.9169,346.5699,627.0807,355.2484,635.7514,353.2426,637.7571,361.9133,639.9169,346.5699" style="stroke:#181818;stroke-width:1.5732;"/><text fill="#000000" font-family="sans-serif" font-size="20.4522" lengthAdjust="spacing" textLength="114.2664" x="611.2996" y="416.9521">implements</text></g><!--reverse link AbstractNPC to Unicorn--><g class="link" data-entity-1="ent0005" data-entity-2="ent0007" data-link-type="extension" data-source-line="39" id="lnk14"><path codeLine="39" d="M457.3483,371.3357 C465.9697,386.2815 461.0233,378.1763 469.1098,393.5154 C482.1992,418.4199 495.8078,446.581 506.8677,470.1639" fill="none" id="AbstractNPC-backto-Unicorn" style="stroke:#181818;stroke-width:1.5732;"/><polygon fill="none" points="443.1985,346.8058,449.1717,376.0523,465.5249,366.6191,443.1985,346.8058" style="stroke:#181818;stroke-width:1.5732;"/><text fill="#000000" font-family="sans-serif" font-size="20.4522" lengthAdjust="spacing" textLength="76.2866" x="484.858" y="416.9521">extends</text></g><!--reverse link AbstractNPC to Butterfly--><g class="link" data-entity-1="ent0005" data-entity-2="ent0006" data-link-type="extension" data-source-line="40" id="lnk15"><path codeLine="40" d="M300.1524,346.7782 C245.5451,372.0602 210.0595,388.9688 204.8049,393.5154 C180.3724,414.6913 160.0618,444.5043 145.4306,470.0538" fill="none" id="AbstractNPC-backto-Butterfly" style="stroke:#181818;stroke-width:1.5732;"/><polygon fill="none" points="325.8502,334.8807,296.1865,338.2123,304.1182,355.3442,325.8502,334.8807" style="stroke:#181818;stroke-width:1.5732;"/><text fill="#000000" font-family="sans-serif" font-size="20.4522" lengthAdjust="spacing" textLength="76.2866" x="206.3781" y="416.9521">extends</text></g><?plantuml-src TS-n3e8m40RWlKzn8muGHqDOqCd5kFW0PpcrIQccBIeHtrqBL4gGRfT-kVj_mr4Ih9PBU8Z2NXWJof8-8IVOxJVmOW3tgoZ0IA9Rj63lKEHAb2W7T145EGCXsfPu5WfrlT64jj8KU48PkJEyNOn7OpLo2roYCP3turoEJgqhwox9UXg3UNDGWb-rcZtyVMx8cYJndLAWfoLLcE5dMcH0dOfZ6ALEGPGtIIKfQrY_k4K-q2mOMet8D8BJVxUnC4ZMZ9XFFI7XsLyrzpu0?></g></svg>