<?plantuml 1.2026.2?><svg xmlns="http://www.w3.org/2000/svg" xmlns:xlink="http://www.w3.org/1999/xlink" contentStyleType="text/css" data-diagram-type="CLASS" height="335.4159px" preserveAspectRatio="none" style="width:351px;height:335px;background:#FFFFFF;" version="1.1" viewBox="0 0 351 335" width="351.3881px" zoomAndPan="magnify"><defs/><g><!--class I--><g class="entity" data-qualified-name="I" data-source-line="3" id="ent0002"><rect fill="#F1F1F1" height="85.185" rx="4.4367" ry="4.4367" style="stroke:#181818;stroke-width:0.8873;" width="64.8399" x="16.6941" y="12.4228"/><ellipse cx="43.3144" cy="40.8178" fill="#B4A7E5" rx="19.5216" ry="19.5216" style="stroke:#181818;stroke-width:1.7747;"/><path d="M36.2711,52.3533 L36.2711,49.3308 L40.4583,48.8594 L40.4583,34.3014 L36.2711,33.83 L36.2711,30.8075 L48.9435,30.8075 L48.9435,33.83 L44.6454,34.3014 L44.6454,48.8594 L48.9435,49.3308 L48.9435,52.3533 L36.2711,52.3533 Z " fill="#000000"/><text fill="#000000" font-family="sans-serif" font-size="24.8456" font-style="italic" lengthAdjust="spacing" textLength="8.0499" x="68.16" y="50.4579">I</text><line style="stroke:#181818;stroke-width:0.8873;" x1="18.4688" x2="79.7593" y1="69.2128" y2="69.2128"/><line style="stroke:#181818;stroke-width:0.8873;" x1="18.4688" x2="79.7593" y1="83.4103" y2="83.4103"/></g><!--class J--><g class="entity" data-qualified-name="J" data-source-line="6" id="ent0003"><rect fill="#F1F1F1" height="85.185" rx="4.4367" ry="4.4367" style="stroke:#181818;stroke-width:0.8873;" width="63.5728" x="219.6473" y="12.4228"/><ellipse cx="246.2676" cy="40.8178" fill="#B4A7E5" rx="19.5216" ry="19.5216" style="stroke:#181818;stroke-width:1.7747;"/><path d="M239.2243,52.3533 L239.2243,49.3308 L243.4115,48.8594 L243.4115,34.3014 L239.2243,33.83 L239.2243,30.8075 L251.8967,30.8075 L251.8967,33.83 L247.5986,34.3014 L247.5986,48.8594 L251.8967,49.3308 L251.8967,52.3533 L239.2243,52.3533 Z " fill="#000000"/><text fill="#000000" font-family="sans-serif" font-size="24.8456" font-style="italic" lengthAdjust="spacing" textLength="6.7828" x="271.1133" y="50.4579">J</text><line style="stroke:#181818;stroke-width:0.8873;" x1="221.422" x2="281.4455" y1="69.2128" y2="69.2128"/><line style="stroke:#181818;stroke-width:0.8873;" x1="221.422" x2="281.4455" y1="83.4103" y2="83.4103"/></g><!--class C--><g class="entity" data-qualified-name="C" data-source-line="9" id="ent0004"><rect fill="#F1F1F1" height="85.185" rx="4.4367" ry="4.4367" style="stroke:#181818;stroke-width:0.8873;" width="72.4924" x="114.0179" y="237.8081"/><ellipse cx="140.6383" cy="266.2031" fill="#ADD1B2" rx="19.5216" ry="19.5216" style="stroke:#181818;stroke-width:1.7747;"/><path d="M139.6954,278.4872 Q136.5897,278.4872 134.5655,277.184 Q132.569,275.8529 131.5707,273.4682 Q130.6002,271.0557 130.6002,267.8668 Q130.6002,264.262 131.7648,261.6832 Q132.9295,259.1043 135.2033,257.7179 Q137.4771,256.3314 140.8046,256.3314 Q142.3852,256.3314 143.5776,256.6641 Q144.7699,256.9692 145.99,257.5792 L144.5481,261.1563 Q143.4389,260.6017 142.4684,260.3799 Q141.5256,260.158 140.666,260.158 Q138.5863,260.158 137.3384,261.1008 Q136.0906,262.0437 135.5638,263.7352 Q135.0369,265.4266 135.0369,267.6727 Q135.0369,271.2498 136.3125,272.9691 Q137.588,274.6606 140.4164,274.6606 Q141.4701,274.6606 142.5793,274.3833 Q143.6885,274.106 145.1582,273.4405 L145.1582,277.3781 Q143.8549,277.9326 142.4407,278.2099 Q141.0542,278.4872 139.6954,278.4872 Z " fill="#000000"/><text fill="#000000" font-family="sans-serif" font-size="24.8456" lengthAdjust="spacing" textLength="15.7024" x="165.4839" y="275.8431">C</text><line style="stroke:#181818;stroke-width:0.8873;" x1="115.7926" x2="184.7356" y1="294.5981" y2="294.5981"/><line style="stroke:#181818;stroke-width:0.8873;" x1="115.7926" x2="184.7356" y1="308.7956" y2="308.7956"/></g><!--reverse link I to C--><g class="link" data-entity-1="ent0002" data-entity-2="ent0004" data-link-type="dependency" data-source-line="12" id="lnk5"><path codeLine="12" d="M36.3225,108.7806 C31.6728,134.6911 31.6547,157.6455 43.7936,184.5675 C57.9911,216.0504 88.4979,241.2332 113.2371,257.5781" fill="none" id="I-backto-C" style="stroke:#181818;stroke-width:1.7747;"/><polygon fill="#181818" points="38.2033,98.2999,28.395,112.7671,36.636,107.0338,42.3693,115.2748,38.2033,98.2999" style="stroke:#181818;stroke-width:1.7747;"/><text fill="#000000" font-family="sans-serif" font-size="23.0709" lengthAdjust="spacing" textLength="128.8974" x="45.5683" y="177.2859">implements</text></g><!--reverse link J to C--><g class="link" data-entity-1="ent0003" data-entity-2="ent0004" data-link-type="dependency" data-source-line="13" id="lnk6"><path codeLine="13" d="M228.2191,107.6861 C210.0463,147.5279 187.0996,197.8776 168.9623,237.6484" fill="none" id="J-backto-C" style="stroke:#181818;stroke-width:1.7747;"/><polygon fill="#181818" points="232.638,97.9982,219.5511,109.5842,228.9556,106.0715,232.4683,115.476,232.638,97.9982" style="stroke:#181818;stroke-width:1.7747;"/><text fill="#000000" font-family="sans-serif" font-size="23.0709" lengthAdjust="spacing" textLength="128.8974" x="208.6798" y="177.2859">implements</text></g><?plantuml-src AqvEp4bLC3OrK2ZFJ2d9uEBAp2j9BKfBJ4vLy5Ievgf55l2222Jd91ONApX3E9uADhgwG8wLGcPkGKvgRcfUIJ6N5pP10000?></g></svg>