<?plantuml 1.2026.2?><svg xmlns="http://www.w3.org/2000/svg" xmlns:xlink="http://www.w3.org/1999/xlink" contentStyleType="text/css" data-diagram-type="CLASS" height="197.186px" preserveAspectRatio="none" style="width:500px;height:197px;background:#FFFFFF;" version="1.1" viewBox="0 0 500 197" width="500.8524px" zoomAndPan="magnify"><defs/><g><!--class Region--><g class="entity" data-qualified-name="Region" data-source-line="3" id="ent0002"><rect fill="#F1F1F1" height="169.8478" rx="4.9297" ry="4.9297" style="stroke:#181818;stroke-width:0.9859;" width="222.0661" x="13.803" y="13.803"/><ellipse cx="74.1447" cy="45.3528" fill="#ADD1B2" rx="21.6905" ry="21.6905" style="stroke:#181818;stroke-width:1.9719;"/><path d="M73.0972,59.0017 Q69.6464,59.0017 67.3972,57.5537 Q65.1789,56.0748 64.0697,53.4251 Q62.9914,50.7446 62.9914,47.2014 Q62.9914,43.1961 64.2854,40.3307 Q65.5794,37.4653 68.1059,35.9248 Q70.6323,34.3843 74.3296,34.3843 Q76.0858,34.3843 77.4106,34.754 Q78.7354,35.0929 80.0911,35.7708 L78.489,39.7453 Q77.2565,39.1291 76.1782,38.8826 Q75.1306,38.6361 74.1755,38.6361 Q71.8647,38.6361 70.4783,39.6837 Q69.0918,40.7312 68.5064,42.6107 Q67.921,44.4901 67.921,46.9857 Q67.921,50.9603 69.3383,52.8705 Q70.7556,54.7499 73.8982,54.7499 Q75.069,54.7499 76.3014,54.4418 Q77.5338,54.1337 79.1668,53.3943 L79.1668,57.7693 Q77.7187,58.3855 76.1474,58.6936 Q74.6069,59.0017 73.0972,59.0017 Z " fill="#000000"/><text fill="#000000" font-family="sans-serif" font-size="27.606" lengthAdjust="spacing" textLength="90.6027" x="108.5871" y="56.0639">Region</text><line style="stroke:#181818;stroke-width:0.9859;" x1="15.7749" x2="233.8973" y1="76.9025" y2="76.9025"/><text fill="#000000" font-family="sans-serif" font-size="27.606" lengthAdjust="spacing" textLength="158.7893" x="25.6342" y="114.3007">String name</text><text fill="#000000" font-family="sans-serif" font-size="27.606" lengthAdjust="spacing" textLength="198.4038" x="25.6342" y="151.9">List&lt;City&gt; cities</text><line style="stroke:#181818;stroke-width:0.9859;" x1="15.7749" x2="233.8973" y1="167.8759" y2="167.8759"/></g><!--class City--><g class="entity" data-qualified-name="City" data-source-line="8" id="ent0003"><rect fill="#F1F1F1" height="169.8478" rx="4.9297" ry="4.9297" style="stroke:#181818;stroke-width:0.9859;" width="182.4517" x="305.7172" y="13.803"/><ellipse cx="367.1272" cy="45.3528" fill="#ADD1B2" rx="21.6905" ry="21.6905" style="stroke:#181818;stroke-width:1.9719;"/><path d="M366.0797,59.0017 Q362.6289,59.0017 360.3798,57.5537 Q358.1614,56.0748 357.0523,53.4251 Q355.9739,50.7446 355.9739,47.2014 Q355.9739,43.1961 357.2679,40.3307 Q358.562,37.4653 361.0884,35.9248 Q363.6148,34.3843 367.3121,34.3843 Q369.0683,34.3843 370.3931,34.754 Q371.718,35.0929 373.0736,35.7708 L371.4715,39.7453 Q370.2391,39.1291 369.1607,38.8826 Q368.1132,38.6361 367.158,38.6361 Q364.8473,38.6361 363.4608,39.6837 Q362.0743,40.7312 361.4889,42.6107 Q360.9035,44.4901 360.9035,46.9857 Q360.9035,50.9603 362.3208,52.8705 Q363.7381,54.7499 366.8807,54.7499 Q368.0515,54.7499 369.2839,54.4418 Q370.5164,54.1337 372.1493,53.3943 L372.1493,57.7693 Q370.7012,58.3855 369.1299,58.6936 Q367.5894,59.0017 366.0797,59.0017 Z " fill="#000000"/><text fill="#000000" font-family="sans-serif" font-size="27.606" lengthAdjust="spacing" textLength="48.614" x="401.8071" y="56.0639">City</text><line style="stroke:#181818;stroke-width:0.9859;" x1="307.689" x2="486.197" y1="76.9025" y2="76.9025"/><text fill="#000000" font-family="sans-serif" font-size="27.606" lengthAdjust="spacing" textLength="158.7893" x="317.5483" y="114.3007">String name</text><text fill="#000000" font-family="sans-serif" font-size="27.606" lengthAdjust="spacing" textLength="145.0968" x="317.5483" y="151.9">int zipCode</text><line style="stroke:#181818;stroke-width:0.9859;" x1="307.689" x2="486.197" y1="167.8759" y2="167.8759"/></g><?plantuml-src AqvEp4bLC3KmK2ZFJ2d9uE9ApaaiBbO8IatFpCzJgEPI08BWagBCl7I5lCJSL33V9xEunCOviwJIJY4vioGpjPYh5gOF98f3LsPUYK9LPe5pVaegI3q0?></g></svg>