<?xml version="1.0" encoding="UTF-8"?>
<svg xmlns="http://www.w3.org/2000/svg" xmlns:xlink="http://www.w3.org/1999/xlink" width="869.642pt" height="409.012pt" viewBox="0 0 869.642 409.012">
<defs>
<clipPath id="clip-0">
<path clip-rule="nonzero" d="M 0 305 L 104 305 L 104 409.011719 L 0 409.011719 Z M 0 305 "/>
</clipPath>
<clipPath id="clip-1">
<path clip-rule="nonzero" d="M 128 305 L 245 305 L 245 409.011719 L 128 409.011719 Z M 128 305 "/>
</clipPath>
<clipPath id="clip-2">
<path clip-rule="nonzero" d="M 199 305 L 316 305 L 316 409.011719 L 199 409.011719 Z M 199 305 "/>
</clipPath>
<clipPath id="clip-3">
<path clip-rule="nonzero" d="M 341 305 L 458 305 L 458 409.011719 L 341 409.011719 Z M 341 305 "/>
</clipPath>
<clipPath id="clip-4">
<path clip-rule="nonzero" d="M 412 305 L 529 305 L 529 409.011719 L 412 409.011719 Z M 412 305 "/>
</clipPath>
<clipPath id="clip-5">
<path clip-rule="nonzero" d="M 553 305 L 671 305 L 671 409.011719 L 553 409.011719 Z M 553 305 "/>
</clipPath>
<clipPath id="clip-6">
<path clip-rule="nonzero" d="M 624 305 L 741 305 L 741 409.011719 L 624 409.011719 Z M 624 305 "/>
</clipPath>
<clipPath id="clip-7">
<path clip-rule="nonzero" d="M 766 305 L 869.640625 305 L 869.640625 409.011719 L 766 409.011719 Z M 766 305 "/>
</clipPath>
</defs>
<path fill="none" stroke-width="1.99255" stroke-linecap="butt" stroke-linejoin="miter" stroke="rgb(0%, 0%, 0%)" stroke-opacity="1" stroke-miterlimit="10" d="M 29.889938 -0.00159375 C 29.889938 16.506219 16.507125 29.889031 -0.0006875 29.889031 C -16.5085 29.889031 -29.887406 16.506219 -29.887406 -0.00159375 C -29.887406 -16.5055 -16.5085 -29.888312 -0.0006875 -29.888312 C 16.507125 -29.888312 29.889938 -16.5055 29.889938 -0.00159375 Z M 29.889938 -0.00159375 " transform="matrix(1, 0, 0, -1, 434.821, 45.057)"/>
<path fill="none" stroke-width="1.99255" stroke-linecap="butt" stroke-linejoin="miter" stroke="rgb(0%, 0%, 0%)" stroke-opacity="1" stroke-miterlimit="10" d="M -182.711625 -106.302375 C -182.711625 -89.794562 -196.094437 -76.41175 -212.60225 -76.41175 C -229.110062 -76.41175 -242.488969 -89.794562 -242.488969 -106.302375 C -242.488969 -122.806281 -229.110062 -136.189094 -212.60225 -136.189094 C -196.094437 -136.189094 -182.711625 -122.806281 -182.711625 -106.302375 Z M -182.711625 -106.302375 " transform="matrix(1, 0, 0, -1, 434.821, 45.057)"/>
<path fill="none" stroke-width="1.99255" stroke-linecap="butt" stroke-linejoin="miter" stroke="rgb(0%, 0%, 0%)" stroke-opacity="1" stroke-miterlimit="10" d="M -27.582719 -13.790656 L -184.973344 -92.485969 " transform="matrix(1, 0, 0, -1, 434.821, 45.057)"/>
<path fill="none" stroke-width="1.99255" stroke-linecap="butt" stroke-linejoin="miter" stroke="rgb(0%, 0%, 0%)" stroke-opacity="1" stroke-miterlimit="10" d="M -289.012406 -212.59925 C -289.012406 -196.095344 -302.395219 -182.712531 -318.903031 -182.712531 C -335.406937 -182.712531 -348.78975 -196.095344 -348.78975 -212.59925 C -348.78975 -229.107062 -335.406937 -242.489875 -318.903031 -242.489875 C -302.395219 -242.489875 -289.012406 -229.107062 -289.012406 -212.59925 Z M -289.012406 -212.59925 " transform="matrix(1, 0, 0, -1, 434.821, 45.057)"/>
<path fill="none" stroke-width="1.99255" stroke-linecap="butt" stroke-linejoin="miter" stroke="rgb(0%, 0%, 0%)" stroke-opacity="1" stroke-miterlimit="10" d="M -234.422562 -128.122687 L -297.059281 -190.759406 " transform="matrix(1, 0, 0, -1, 434.821, 45.057)"/>
<g clip-path="url(#clip-0)">
<path fill="none" stroke-width="1.99255" stroke-linecap="butt" stroke-linejoin="miter" stroke="rgb(0%, 0%, 0%)" stroke-opacity="1" stroke-miterlimit="10" d="M -359.879594 -318.900031 C -359.879594 -302.396125 -373.262406 -289.013312 -389.770219 -289.013312 C -406.274125 -289.013312 -419.656937 -302.396125 -419.656937 -318.900031 C -419.656937 -335.407844 -406.274125 -348.790656 -389.770219 -348.790656 C -373.262406 -348.790656 -359.879594 -335.407844 -359.879594 -318.900031 Z M -359.879594 -318.900031 " transform="matrix(1, 0, 0, -1, 434.821, 45.057)"/>
</g>
<path fill="none" stroke-width="1.99255" stroke-linecap="butt" stroke-linejoin="miter" stroke="rgb(0%, 0%, 0%)" stroke-opacity="1" stroke-miterlimit="10" d="M -336.020219 -238.278937 L -372.6335 -293.200812 " transform="matrix(1, 0, 0, -1, 434.821, 45.057)"/>
<g clip-path="url(#clip-1)">
<path fill="none" stroke-width="1.99255" stroke-linecap="butt" stroke-linejoin="miter" stroke="rgb(0%, 0%, 0%)" stroke-opacity="1" stroke-miterlimit="10" d="M -218.145219 -318.900031 C -218.145219 -302.396125 -231.528031 -289.013312 -248.035844 -289.013312 C -264.53975 -289.013312 -277.922562 -302.396125 -277.922562 -318.900031 C -277.922562 -335.407844 -264.53975 -348.790656 -248.035844 -348.790656 C -231.528031 -348.790656 -218.145219 -335.407844 -218.145219 -318.900031 Z M -218.145219 -318.900031 " transform="matrix(1, 0, 0, -1, 434.821, 45.057)"/>
</g>
<path fill="none" stroke-width="1.99255" stroke-linecap="butt" stroke-linejoin="miter" stroke="rgb(0%, 0%, 0%)" stroke-opacity="1" stroke-miterlimit="10" d="M -301.781937 -238.278937 L -265.168656 -293.200812 " transform="matrix(1, 0, 0, -1, 434.821, 45.057)"/>
<path fill="none" stroke-width="1.99255" stroke-linecap="butt" stroke-linejoin="miter" stroke="rgb(0%, 0%, 0%)" stroke-opacity="1" stroke-miterlimit="10" d="M -76.410844 -212.59925 C -76.410844 -196.095344 -89.793656 -182.712531 -106.301469 -182.712531 C -122.809281 -182.712531 -136.188187 -196.095344 -136.188187 -212.59925 C -136.188187 -229.107062 -122.809281 -242.489875 -106.301469 -242.489875 C -89.793656 -242.489875 -76.410844 -229.107062 -76.410844 -212.59925 Z M -76.410844 -212.59925 " transform="matrix(1, 0, 0, -1, 434.821, 45.057)"/>
<path fill="none" stroke-width="1.99255" stroke-linecap="butt" stroke-linejoin="miter" stroke="rgb(0%, 0%, 0%)" stroke-opacity="1" stroke-miterlimit="10" d="M -190.781937 -128.122687 L -128.145219 -190.759406 " transform="matrix(1, 0, 0, -1, 434.821, 45.057)"/>
<g clip-path="url(#clip-2)">
<path fill="none" stroke-width="1.99255" stroke-linecap="butt" stroke-linejoin="miter" stroke="rgb(0%, 0%, 0%)" stroke-opacity="1" stroke-miterlimit="10" d="M -147.278031 -318.900031 C -147.278031 -302.396125 -160.660844 -289.013312 -177.168656 -289.013312 C -193.676469 -289.013312 -207.055375 -302.396125 -207.055375 -318.900031 C -207.055375 -335.407844 -193.676469 -348.790656 -177.168656 -348.790656 C -160.660844 -348.790656 -147.278031 -335.407844 -147.278031 -318.900031 Z M -147.278031 -318.900031 " transform="matrix(1, 0, 0, -1, 434.821, 45.057)"/>
</g>
<path fill="none" stroke-width="1.99255" stroke-linecap="butt" stroke-linejoin="miter" stroke="rgb(0%, 0%, 0%)" stroke-opacity="1" stroke-miterlimit="10" d="M -123.418656 -238.278937 L -160.031937 -293.200812 " transform="matrix(1, 0, 0, -1, 434.821, 45.057)"/>
<g clip-path="url(#clip-3)">
<path fill="none" stroke-width="1.99255" stroke-linecap="butt" stroke-linejoin="miter" stroke="rgb(0%, 0%, 0%)" stroke-opacity="1" stroke-miterlimit="10" d="M -5.543656 -318.900031 C -5.543656 -302.396125 -18.926469 -289.013312 -35.434281 -289.013312 C -51.942094 -289.013312 -65.321 -302.396125 -65.321 -318.900031 C -65.321 -335.407844 -51.942094 -348.790656 -35.434281 -348.790656 C -18.926469 -348.790656 -5.543656 -335.407844 -5.543656 -318.900031 Z M -5.543656 -318.900031 " transform="matrix(1, 0, 0, -1, 434.821, 45.057)"/>
</g>
<path fill="none" stroke-width="1.99255" stroke-linecap="butt" stroke-linejoin="miter" stroke="rgb(0%, 0%, 0%)" stroke-opacity="1" stroke-miterlimit="10" d="M -89.180375 -238.278937 L -52.567094 -293.200812 " transform="matrix(1, 0, 0, -1, 434.821, 45.057)"/>
<path fill="none" stroke-width="1.99255" stroke-linecap="butt" stroke-linejoin="miter" stroke="rgb(0%, 0%, 0%)" stroke-opacity="1" stroke-miterlimit="10" d="M 242.487594 -106.302375 C 242.487594 -89.794562 229.108688 -76.41175 212.600875 -76.41175 C 196.093063 -76.41175 182.714156 -89.794562 182.714156 -106.302375 C 182.714156 -122.806281 196.093063 -136.189094 212.600875 -136.189094 C 229.108688 -136.189094 242.487594 -122.806281 242.487594 -106.302375 Z M 242.487594 -106.302375 " transform="matrix(1, 0, 0, -1, 434.821, 45.057)"/>
<path fill="none" stroke-width="1.99255" stroke-linecap="butt" stroke-linejoin="miter" stroke="rgb(0%, 0%, 0%)" stroke-opacity="1" stroke-miterlimit="10" d="M 27.581344 -13.790656 L 184.971969 -92.485969 " transform="matrix(1, 0, 0, -1, 434.821, 45.057)"/>
<path fill="none" stroke-width="1.99255" stroke-linecap="butt" stroke-linejoin="miter" stroke="rgb(0%, 0%, 0%)" stroke-opacity="1" stroke-miterlimit="10" d="M 136.190719 -212.59925 C 136.190719 -196.095344 122.807906 -182.712531 106.300094 -182.712531 C 89.792281 -182.712531 76.413375 -196.095344 76.413375 -212.59925 C 76.413375 -229.107062 89.792281 -242.489875 106.300094 -242.489875 C 122.807906 -242.489875 136.190719 -229.107062 136.190719 -212.59925 Z M 136.190719 -212.59925 " transform="matrix(1, 0, 0, -1, 434.821, 45.057)"/>
<path fill="none" stroke-width="1.99255" stroke-linecap="butt" stroke-linejoin="miter" stroke="rgb(0%, 0%, 0%)" stroke-opacity="1" stroke-miterlimit="10" d="M 190.780563 -128.122687 L 128.143844 -190.759406 " transform="matrix(1, 0, 0, -1, 434.821, 45.057)"/>
<g clip-path="url(#clip-4)">
<path fill="none" stroke-width="1.99255" stroke-linecap="butt" stroke-linejoin="miter" stroke="rgb(0%, 0%, 0%)" stroke-opacity="1" stroke-miterlimit="10" d="M 65.323531 -318.900031 C 65.323531 -302.396125 51.940719 -289.013312 35.432906 -289.013312 C 18.925094 -289.013312 5.546188 -302.396125 5.546188 -318.900031 C 5.546188 -335.407844 18.925094 -348.790656 35.432906 -348.790656 C 51.940719 -348.790656 65.323531 -335.407844 65.323531 -318.900031 Z M 65.323531 -318.900031 " transform="matrix(1, 0, 0, -1, 434.821, 45.057)"/>
</g>
<path fill="none" stroke-width="1.99255" stroke-linecap="butt" stroke-linejoin="miter" stroke="rgb(0%, 0%, 0%)" stroke-opacity="1" stroke-miterlimit="10" d="M 89.182906 -238.278937 L 52.569625 -293.200812 " transform="matrix(1, 0, 0, -1, 434.821, 45.057)"/>
<g clip-path="url(#clip-5)">
<path fill="none" stroke-width="1.99255" stroke-linecap="butt" stroke-linejoin="miter" stroke="rgb(0%, 0%, 0%)" stroke-opacity="1" stroke-miterlimit="10" d="M 207.057906 -318.900031 C 207.057906 -302.396125 193.675094 -289.013312 177.167281 -289.013312 C 160.659469 -289.013312 147.280563 -302.396125 147.280563 -318.900031 C 147.280563 -335.407844 160.659469 -348.790656 177.167281 -348.790656 C 193.675094 -348.790656 207.057906 -335.407844 207.057906 -318.900031 Z M 207.057906 -318.900031 " transform="matrix(1, 0, 0, -1, 434.821, 45.057)"/>
</g>
<path fill="none" stroke-width="1.99255" stroke-linecap="butt" stroke-linejoin="miter" stroke="rgb(0%, 0%, 0%)" stroke-opacity="1" stroke-miterlimit="10" d="M 123.421188 -238.278937 L 160.034469 -293.200812 " transform="matrix(1, 0, 0, -1, 434.821, 45.057)"/>
<path fill="none" stroke-width="1.99255" stroke-linecap="butt" stroke-linejoin="miter" stroke="rgb(0%, 0%, 0%)" stroke-opacity="1" stroke-miterlimit="10" d="M 348.788375 -212.59925 C 348.788375 -196.095344 335.409469 -182.712531 318.901656 -182.712531 C 302.393844 -182.712531 289.014938 -196.095344 289.014938 -212.59925 C 289.014938 -229.107062 302.393844 -242.489875 318.901656 -242.489875 C 335.409469 -242.489875 348.788375 -229.107062 348.788375 -212.59925 Z M 348.788375 -212.59925 " transform="matrix(1, 0, 0, -1, 434.821, 45.057)"/>
<path fill="none" stroke-width="1.99255" stroke-linecap="butt" stroke-linejoin="miter" stroke="rgb(0%, 0%, 0%)" stroke-opacity="1" stroke-miterlimit="10" d="M 234.421188 -128.122687 L 297.057906 -190.759406 " transform="matrix(1, 0, 0, -1, 434.821, 45.057)"/>
<g clip-path="url(#clip-6)">
<path fill="none" stroke-width="1.99255" stroke-linecap="butt" stroke-linejoin="miter" stroke="rgb(0%, 0%, 0%)" stroke-opacity="1" stroke-miterlimit="10" d="M 277.925094 -318.900031 C 277.925094 -302.396125 264.542281 -289.013312 248.034469 -289.013312 C 231.526656 -289.013312 218.14775 -302.396125 218.14775 -318.900031 C 218.14775 -335.407844 231.526656 -348.790656 248.034469 -348.790656 C 264.542281 -348.790656 277.925094 -335.407844 277.925094 -318.900031 Z M 277.925094 -318.900031 " transform="matrix(1, 0, 0, -1, 434.821, 45.057)"/>
</g>
<path fill="none" stroke-width="1.99255" stroke-linecap="butt" stroke-linejoin="miter" stroke="rgb(0%, 0%, 0%)" stroke-opacity="1" stroke-miterlimit="10" d="M 301.780563 -238.278937 L 265.171188 -293.200812 " transform="matrix(1, 0, 0, -1, 434.821, 45.057)"/>
<g clip-path="url(#clip-7)">
<path fill="none" stroke-width="1.99255" stroke-linecap="butt" stroke-linejoin="miter" stroke="rgb(0%, 0%, 0%)" stroke-opacity="1" stroke-miterlimit="10" d="M 419.655563 -318.900031 C 419.655563 -302.396125 406.276656 -289.013312 389.768844 -289.013312 C 373.261031 -289.013312 359.882125 -302.396125 359.882125 -318.900031 C 359.882125 -335.407844 373.261031 -348.790656 389.768844 -348.790656 C 406.276656 -348.790656 419.655563 -335.407844 419.655563 -318.900031 Z M 419.655563 -318.900031 " transform="matrix(1, 0, 0, -1, 434.821, 45.057)"/>
</g>
<path fill="none" stroke-width="1.99255" stroke-linecap="butt" stroke-linejoin="miter" stroke="rgb(0%, 0%, 0%)" stroke-opacity="1" stroke-miterlimit="10" d="M 336.02275 -238.278937 L 372.636031 -293.200812 " transform="matrix(1, 0, 0, -1, 434.821, 45.057)"/>
</svg>
